<?xml version="1.0" standalone="no"?>
<!DOCTYPE svg PUBLIC "-//W3C//DTD SVG 1.1//EN" "http://www.w3.org/Graphics/SVG/1.1/DTD/svg11.dtd" >
<svg xmlns="http://www.w3.org/2000/svg">
<metadata></metadata>
<defs>
<font id="augusta_shadowregular" horiz-adv-x="1314" >
<font-face units-per-em="2048" ascent="1638" descent="-410" />
<missing-glyph horiz-adv-x="854" />
<glyph horiz-adv-x="2048" />
<glyph horiz-adv-x="2048" />
<glyph unicode="&#xd;" horiz-adv-x="2048" />
<glyph horiz-adv-x="923" d="M31 623q2 -35 41 -50l47 -47v-401q-2 -18 -13 -31q-33 -47 -32 -71q2 -31 30 -41l89 -88q10 -10 30 -11q33 0 56 13h2l32 12h49l27 -8l70 -19l28 17q8 10 13 30l45 -45h348v37l-43 55h2q-18 31 -18 66v569l-37 84q-23 45 -43 68h-2l-9 20l-90 88l-4 9l43 -41q8 -8 17 -9 q45 0 104 86q59 84 59 127q0 47 -32 80l-78 78q-29 45 -88 62q-12 39 -82 55l-68 14h-55q-111 0 -231 -127q-119 -125 -119 -237v-156q-37 -47 -56 -86q-33 -59 -32 -102zM51 625q0 33 31 92q10 20 24.5 42.5t32.5 45.5v162q0 104 113 223q115 121 217 121h51l68 -15 q68 -14 69 -47l-2 -4q41 -2 71 -30.5t30 -69.5q0 -37 -58 -119q-55 -80 -92 -80q-16 0 -37 64q-16 47 -18 84q-2 -4 -12 -15l-60 51q-47 31 -71 31h-76v-332q8 -10 37 -6l47 2l53 4q57 2 82 21l55 49l25 -25l6 -12l-2 -2q27 -25 47 -69l35 -80v-568q0 -41 20 -73l39 -50v-20 h-319v27l32 65q18 37 19 78v467q0 8 -4 25q-29 -25 -53 -25h-125v-457q0 -61 28 -106l29 -43q0 -12 -8 -21l-19 -10l-65 16l-27 9h-57l-33 -13q-23 -12 -53 -12q-25 0 -27 25q0 18 31 59q12 20 14 35v512q-39 0 -41 -19q-4 -18 -22 -18q-23 8 -25 31zM342 838v2v-2zM442 78 v442h45v-350q0 -33 -16 -70l-27 -53q-2 8 -2 31zM449 848v196h61q6 0 27 -8q4 -10 6 -17t6 -15q25 -74 55 -78l-65 -60q-17 -12 -72 -16z" />
<glyph horiz-adv-x="1032" d="M31 623q2 -35 41 -50l47 -47v-401q-2 -18 -13 -31q-33 -47 -32 -71q2 -31 30 -41l89 -88q10 -10 30 -11q33 0 56 13h2l32 12h49l27 -8l70 -19l28 17q12 12 13 34l-31 48q-12 20 -19.5 43.5t-7.5 54.5v442h111q16 0 25 4v-348q0 -14 -17 -63q-14 -41 -33 -60v-73h13 l96 -97h43l74 25q37 12 61 12q29 0 92 -33q4 0 7.5 -1t5.5 -1h2l4 -4l32 6q16 10 17 35q0 23 -17 45q-33 39 -32 133v963q0 33 30 70l43 51l-20 26l-76 74l2 2l-26 33l-27 12q-47 0 -174 -76l-4 5q-8 23 -29.5 35t-52.5 22l-68 14h-55q-111 0 -231 -127q-119 -125 -119 -237 v-156q-37 -47 -56 -86q-33 -59 -32 -102zM51 625q0 33 31 92q10 20 24.5 42.5t32.5 45.5v162q0 104 113 223q115 121 217 121h51l68 -15q68 -14 69 -47l-30 -49q180 111 221 111l18 -8l13 -17l-35 -41q-35 -41 -35 -80v-962q0 -100 33 -140q16 -23 16 -38q0 -14 -8 -21 l-23 -4q-4 2 -8 2t-12 2q-63 33 -94 33q-29 0 -66 -12l-74 -25h-24v45q18 18 33 61q16 49 16 70v608q-80 -147 -147 -147h-125v-457q0 -61 28 -106l29 -43q0 -12 -8 -21l-19 -10l-65 16l-27 9h-57l-33 -13q-23 -12 -53 -12q-25 0 -27 25q0 18 31 59q12 20 14 35v512 q-39 0 -41 -19q-4 -18 -22 -18q-23 8 -25 31zM332 829q8 -10 37 -6l47 2l53 4q57 2 82 21l47 41v162q0 31 -31 59q-4 -4 -11 -13t-17 -20l-60 51q-47 31 -71 31h-76v-332zM342 838v2v-2zM449 848v196h61q18 0 63 -28l5 -4v-113l-39 -33l-2 -2q-8 -6 -26.5 -9t-43.5 -5z" />
<glyph horiz-adv-x="1433" d="M31 459q0 -33 12 -88l27 -117h2q8 -29 15 -43t19 -16l91 -91q4 -4 6 -4q-12 -4 -21 -4q-51 -12 -51 -61l4 -31q4 -10 11.5 -14t17.5 -8h2l86 -86q8 -8 18 -11l27 11h127l92 12q45 6 133 6h467l221 -31q66 0 66 58q0 12 -5 29.5t-18 39.5q-41 88 -41 133l2 232v6 q0 123 -116 240l-47 45q-25 35 -54 63h-63v-65q41 -59 41 -105v-63q0 -10 -2 -21q0 -2 -2 -2q-10 -41 -14.5 -73.5t-6.5 -61.5l-4 -94l-4 -27l-65 45q-59 41 -132 41q-109 0 -213 -67q-41 -27 -65 -41v204q76 43 104 43h7q8 -2 14 -2h12h10q37 2 37 45q0 8 -1 14.5t-3 14.5 q-6 25 -6 53q0 35 12 82q2 8 3 14.5t1 16.5t-1 11t-1 5q-2 0 -2 2q-4 4 -6 9.5t-6 9.5l-82 82v2q-10 16 -17 24.5t-22 8.5q-4 0 -12 -1.5t-17 -7.5l-24 -24v88q0 236 223 235q51 0 94 -18l99 -43q61 0 61 51q0 20 -20 41l-78 78q-16 43 -99 74q-23 8 -44 14t-37 10h-170 q-10 0 -56 -12q-6 -2 -13 -3t-15 -5q-6 -2 -13.5 -4t-15.5 -4l-164 -48l-176 -38q-96 -23 -96 -64q0 -23 37 -41l82 -82q8 -12 30 -18q2 -6 2 -21v-428l-100 -55q-14 -2 -24.5 -3t-20.5 -3q-4 0 -7 -1t-7 -1q-2 -2 -7 -2h-8q-16 -8 -18 -17.5t-2 -21.5zM55 477q12 2 30.5 4 t45.5 6l115 64v440q0 59 -39 92q-23 20 -74 43q-39 14 -39 27q0 25 82 43l176 39l164 47q104 29 107 29h163q16 -4 38 -10.5t44 -14.5q86 -31 86 -69q0 -37 -45 -37l-94 41q-43 20 -100 20q-238 0 -238 -250v-307q104 61 133 104l21 21q23 14 33 -8q8 -14 0 -45 q-23 -78 -7 -142q14 -53 -20 -57q-8 -2 -17.5 -1t-21.5 3q-25 4 -121 -49v-391h25q43 16 170 98q102 66 200 66q63 0 119 -37l94 -64l9 60l4 96q4 49 20 127q2 10 3 17t1 14v63q0 53 -41 113v37h35q111 -113 109 -232l-2 -231q0 -51 43 -140q20 -38 20 -63q0 -43 -49 -43 l-221 31h-469q-90 0 -135 -6l-93 -13h-131l-6 -4l-14 -6q-10 4 -12 8l-4 27q0 33 38 39q39 8 56 18v275l-51 -35q-31 -27 -60 -96q-4 -6 -12 -19q-8 -4 -12 -4q-10 0 -21 47l-27 115q-20 90 -8 100z" />
<glyph horiz-adv-x="813" d="M29 461q0 -33 12 -90l27 -117q16 -57 41 -59l90 -91q2 -6 10 -6q-10 -29 -27 -45v-73h13l96 -97h43l74 25q37 12 61 12q29 0 92 -33q4 0 7 -1t5 -1t7 -4l32 6q16 10 17 35q0 23 -17 45q-33 39 -32 133v293q45 23 74.5 36t43.5 13h7q8 -2 14 -2h12h10q37 2 37 45 q0 8 -1 14.5t-3 14.5q-6 25 -6 53q0 35 12 82q2 8 3 14.5t1 16.5t-1 14t-3 8l-2 3q-2 6 -8 12l-84 82v4q-2 2 -2 4l-2 2q-12 25 -35 25q-4 0 -12 -1.5t-17 -7.5l-24 -24q-4 -6 -14 -17v279q0 33 30 70l43 51l-20 26l-76 74l2 2l-27 33l-26 12q-53 0 -191 -84 q-41 -23 -77.5 -48t-63.5 -46q4 -18 11.5 -30.5t17.5 -20.5q29 -23 28 -49v-486l-106 -59q-25 -2 -45 -6q-4 0 -7 -1t-7 -1q-4 -2 -11 -2h-10q-6 -6 -11 -16.5t-5 -20.5zM53 477q12 2 31.5 4t46.5 6l121 68v498q0 37 -37 65q-16 12 -18 27q16 12 49 33.5t82 50.5 q137 82 174 82l18 -8l12 -17l-34 -41q-35 -41 -35 -80v-489q117 70 147 112l21 21q23 15 33 -8q8 -14 0 -45q-23 -78 -7 -142q14 -53 -20 -57q-8 -2 -17.5 -1t-21.5 3q-29 2 -135 -55v-301q0 -100 33 -140q16 -23 16 -38q0 -14 -8 -21l-23 -4q-4 2 -8 2t-12 2q-63 33 -94 33 q-29 0 -66 -12l-74 -25h-24v45q18 18 33 61q16 49 16 70v197l-57 -39q-31 -27 -60 -96q-4 -6 -12 -19q-8 -4 -12 -4q-12 0 -23 47l-27 115q-18 90 -8 100z" />
<glyph horiz-adv-x="1447" d="M29 1053q0 -45 34 -56l87 -86q12 -12 34 -12q20 0 49 33q4 4 10.5 10t16.5 21h2q25 27 43 49l68 -68q57 -57 164 -57h163q29 0 57.5 2t63.5 10q-10 -10 -18 -19.5t-15 -17.5l-14 -14t-16 -14q0 2 -10 -9l-5 -4h-2l-2 -2h-49q-115 0 -229 -121q-98 -104 -99 -145v-45h13 l47 -49l-385 -402l31 -49q12 -8 20 -10l88 -88q25 -14 45 -14q8 0 96 51q88 47 162 47h72l211 -74q106 -37 162 -37h65q131 0 232 66q68 43 120 102q76 82 76 142q0 33 -16 49l-84 82q-10 41 -60 41q-20 0 -40.5 -24t-49.5 -71q-18 -27 -37.5 -45t-42.5 -28l-16 14 q-16 27 -33 43q-43 41 -97 60.5t-120 19.5h-106q-10 0 -21.5 -1t-23.5 -3l106 112h4l99 -96h39q80 100 118 135l86 76l-98 100l4 2l-35 35l422 453l-31 43l-75 76l-25 32l-29 15q-20 0 -125 -45q-100 -41 -155 -41h-64q-29 0 -65 6h96l248 309l-98 98l8 11h-258l-86 -133 l-15 24l-84 84l-16 25h-256l246 -322h8l49 -51q-170 53 -201 53h-122q-115 0 -236 -114q-100 -100 -100 -164zM49 1053q0 55 94 149q113 109 222 109h122q35 0 244 -70q111 -35 180 -35h64q61 0 164 43q100 43 112 43l19 -10l24 -33l-424 -454l129 -136l-75 -65 q-49 -41 -117 -131h-19l-24 100q-2 27 -55 39l-373 -393l10 -6l139 55q137 55 230 55h106q125 0 203 -73q20 -20 49 -72q59 6 113 90q51 86 71 86q43 0 43 -49q0 -53 -71 -131q-55 -61 -119 -101q-100 -63 -223 -63h-66q-51 0 -157 37l-211 74h-76q-80 0 -168 -50 q-86 -49 -90 -49q-18 0 -35 11l-21 32l547 572l-6 12q-41 8 -104 -33q-51 -33 -80 -78h-37v25q0 35 92 131q111 115 215 115h58q4 4 8 7t6 5q14 12 24.5 21.5t16.5 15.5q23 27 58.5 65.5t82.5 92.5q8 8 22.5 21t37.5 36q33 27 32 51l-254 -78q-104 -33 -184 -32h-164 q-156 0 -203 139h-20q-16 -16 -38.5 -41t-51.5 -58q-25 -29 -39 -28q-33 0 -33 37zM426 1630h205l114 -170l109 170h205l-225 -280h-193z" />
<glyph horiz-adv-x="970" d="M31 629q6 -25 18 -37l21 -19h6l80 -79l18 -17q41 0 57 60q10 37 29 55l35 -35q41 -41 84 -41h45l-33 -41l-76 -102h2l-174 -213q-86 -104 -86 -123q0 -37 31 -43l88 -88q10 -10 29 -10q18 0 65 20q43 18 52 18h98l133 -34q33 -8 53.5 -12.5t34.5 -4.5q74 0 186 97 q113 100 113 170l-4 10l-92 92v2l-4 10l-19 19l-22 6q-12 0 -28.5 -14.5t-45.5 -38.5q-39 -39 -59 -39h-74l-60 8h3l-37 6q16 18 32.5 39.5t38.5 48.5l353 424v53l-97 96v13h-75q-10 -4 -24.5 -10.5t-31.5 -10.5l226 281l-99 98l8 10h-258l-86 -133l-14 25l-84 84l-16 24 h-256l245 -321h9l53 -53l-64 14h-94q-96 0 -172 -117h2q-63 -94 -63 -147zM51 633q0 41 60 131q72 109 153 108h88l140 -30q55 -12 100 -13l65 7q33 6 56.5 13t40.5 15h51v-35l-348 -419q-127 -152 -135 -185l208 -41l62 -8h74q29 0 73 45q51 47 54 47l20 -6l10 -10 q0 -63 -108 -160q-109 -92 -176 -92q-10 0 -31 4t-53 12l-133 35h-103q-14 0 -57 -20q-47 -18 -60 -19q-25 0 -24 25q0 12 80 110l182 224l68 92l73 92l123 147h-24l-107 -34q-45 -14 -75.5 -22.5t-51.5 -12.5h-70q-37 0 -71 35l-39 53q-35 -27 -51 -78q-12 -49 -37 -49 l-15 12q-10 10 -12 27zM156 1233h204l115 -170l109 170h204l-225 -281h-192z" />
<glyph unicode=" "  horiz-adv-x="854" />
<glyph unicode="&#x09;" horiz-adv-x="854" />
<glyph unicode="&#xa0;" horiz-adv-x="854" />
<glyph unicode="!" horiz-adv-x="442" d="M31 692q0 -123 24 -186q29 -63 133 -162q0 2 2 4l68 -67q6 -8 23 -21l8 -8q23 53 35 89t16 50q8 47 12 115.5t4 159.5q0 31 5.5 78t15.5 110q10 66 15 113t5 82q0 84 -41 125l-75 73q-37 72 -140 72q-4 -10 -7 -22.5t-7 -22.5q-2 4 -4 -8.5t-4 -16.5q-6 -20 -9.5 -32.5 t-5.5 -18.5q-10 -43 -16 -68.5t-6 -39.5q-2 -4 -2 -11q0 -4 -1 -6t-1 -6t-1 -5t-1 -3q-4 -25 -9.5 -57.5t-11.5 -71.5q-25 -160 -24 -238zM51 692q0 76 25 236q8 53 15 93t11 66q0 10 23 105q2 10 10 35.5t23 70.5q123 0 123 -147q0 -33 -5.5 -80t-15.5 -113 q-20 -121 -20 -190q0 -88 -4.5 -156.5t-12.5 -115.5q-6 -29 -41 -117q-78 70 -106 135q-25 63 -25 178zM68 135q0 -45 12 -84q14 -55 49 -69l78 -76q2 -2 3 -4t5 -4q14 -14 33 -15q43 0 102 60q61 57 62 102q0 45 -33 78l-76 74q-16 33 -47 52t-70 19q-119 0 -118 -133z M88 135q0 113 98 113q43 0 76 -29t33 -72q0 -37 -57 -92q-55 -55 -93 -55q-31 0 -45 57q-12 39 -12 78zM227 309l19 -18zM246 291l12 -10q-4 4 -6 5t-6 5z" />
<glyph unicode="&#x22;" horiz-adv-x="663" d="M31 756h12l96 -97h54q20 23 37.5 43.5t33.5 36.5l86 -84h53q10 10 28 28.5t36 41.5q166 190 166 256v2q-2 16 -11.5 32.5t-23.5 31.5l-72 71q-16 29 -42.5 49.5t-55.5 20.5q-49 0 -90 -88l-23 22q-14 29 -41.5 48.5t-56.5 19.5q-70 0 -111 -143q-4 -12 -7 -23.5t-7 -22.5 q-25 -84 -40 -133t-21 -65v-47zM51 776v23q10 20 28.5 80.5t47.5 160.5q37 129 90 129q33 0 60.5 -25.5t27.5 -58.5q0 -37 -96 -163q-16 -23 -47 -59t-78 -87h-33zM262 772v25l76 239q39 131 90 131q31 0 57.5 -26.5t30.5 -57.5q0 -59 -162 -245q-37 -43 -59 -66h-33z" />
<glyph unicode="#" horiz-adv-x="1134" d="M29 379q0 -37 30 -43l88 -88q10 -10 33 -10h19q-10 -66 -21.5 -111t-21.5 -74q-6 -14 -8.5 -25.5t-2.5 -19.5q0 -29 27 -35l90 -90q8 -8 29 -8l31 6l18 2l25 -2q25 -8 59 -8q33 0 33 31q0 72 6 163t16 205h45q4 0 10.5 -1t12.5 -1q-25 -168 -49 -217q-10 -20 -11 -45 q0 -29 27 -35l90 -90q8 -8 29 -8l31 6l18 2l25 -2q25 -8 59 -8q33 0 33 31q0 57 5 143t15 207l70 -8q51 0 88 37q70 70 70 106q0 14 -9 23l-88 88q-6 31 -49 30l-47 -6l20 125l72 -8q51 0 88 37q70 70 70 106q0 14 -8 23l-88 88q-6 31 -50 31l-28 -4l16 61q20 78 29.5 121 t11.5 51q0 20 -8 29l-90 88q-6 29 -41 28l-29 -4q-16 -2 -22 -2q-4 0 -21 -2h-6l-27 2h-2l-24 4q-41 0 -41 -49q0 -61 -7 -147t-24 -199h-65q14 68 27.5 118t25.5 87t12 49q0 18 -8 27l-90 88q-6 29 -41 28l-29 -4q-4 -2 -8 -2h-10q-10 -2 -17 -2h-12l-27 2h-2l-26 4 q-41 0 -41 -49q0 -59 -6 -142t-23 -194l-80 9h-6q-31 0 -72 -35q-61 -55 -61 -113q0 -35 33 -43l86 -84q12 -12 35 -12h24l-18 -117l-33 4q-4 0 -7 1t-7 1h-13q-4 0 -7 1t-7 1h-6q-35 0 -76 -34q-61 -55 -61 -113zM49 379q0 45 55 98q33 29 62 29q4 0 16.5 -1t30.5 -3l51 -4 l43 280q-4 -2 -25.5 -5t-60.5 -11q-29 -4 -49 -7t-35 -3q-31 0 -31 22q0 45 56 98q35 31 61 29l101 -8q31 223 30 356q0 29 19 29l28 -4l29 -2q8 0 20.5 1t28.5 3l29 4q20 0 20 -20q0 -8 -12 -46q-33 -92 -76 -329l131 -2l93 2q16 117 24 207t8 157q0 29 19 29l26 -4l29 -2 q4 -2 51 4l29 4q20 0 20 -20q-2 -8 -11 -50.5t-30 -119.5l-45 -183l-2 -18q12 0 43 3t78 7l58 6q26 0 26 -18q0 -31 -65 -96q-33 -33 -76 -33l-86 10l-41 -276q12 0 127 12l57 6q27 0 27 -18q0 -31 -66 -97q-33 -33 -76 -33l-83 11q-10 -125 -16.5 -216t-6.5 -151 q0 -16 -18 -16q-31 0 -56 8l-26 2l-23 -2l-31 -6q-20 0 -20 16q0 20 8 37q29 61 64 297l6 43q-12 0 -35 1t-47 1q-25 0 -47.5 1t-34.5 1h-57q-25 -238 -25 -383q0 -16 -18 -16q-31 0 -56 8l-26 2l-23 -2l-31 -6q-20 0 -20 16q0 18 8 37q29 72 64 295l6 41l-51 -6 q-6 -2 -16.5 -3t-24.5 -5q-53 -12 -74 -13q-29 0 -29 25zM377 489l133 -2h94l45 291q-12 0 -33.5 1t-52.5 3q-57 6 -84 4l-57 -2q-10 -57 -21.5 -129.5t-23.5 -165.5zM508 508q8 45 15.5 85t13.5 75l45 2h28l-24 -162h-78z" />
<glyph unicode="$" horiz-adv-x="786" d="M29 692q0 -51 16 -86t39 -41l86 -84q12 -12 27 -12h2q82 6 143 37q106 51 154 67v-14q0 -156 -109 -156h-29q-16 0 -39 3h-16q-4 0 -7 1t-7 1q-68 6 -99 6q-100 0 -100 -119q0 -4 2 -17.5t6 -35.5q4 -12 5 -32t1 -38q4 2 5.5 3t5.5 3l98 -96q23 12 46.5 21.5t45.5 13.5 v-82q0 -10 23 -33h2q0 2 2 2l98 -96q14 6 24.5 8t16.5 2q8 0 25 -6h16v135q0 49 43 49q100 0 158 125q45 98 45 203q0 47 -8.5 91t-26.5 85q-18 45 -45 72l-72 69q-45 76 -121 76q-47 0 -114 -26v-3q-72 -23 -101 -22v12q0 43 24.5 79t65.5 36q27 0 80 -27q35 -20 56 -20 q55 0 110 61q53 59 80 146l-98 96l6 18q-29 -16 -45.5 -21t-24.5 -5h-20v182l-96 96v17l-29 -15q-23 -8 -39 -8h-25v-143q0 -49 -28 -66h2q-125 -68 -197 -223q-63 -133 -63 -289zM49 692q0 147 62 281q68 150 186 213q39 20 39 84v123h4q20 0 43 8l4 2v-158 q0 -125 137 -125q20 0 37 8q-14 -49 -67 -108q-51 -57 -101 -57q-16 0 -49 18q-53 29 -86 29q-47 0 -75.5 -40t-28.5 -89q-4 -135 116 -136q39 0 111 25q68 27 104 27q80 0 123 -101q33 -74 33 -170q0 -102 -43 -196q-55 -117 -145 -117q-57 0 -58 -63v-121h-2q-16 6 -24 6 q-14 0 -37 -8q-6 6 -6 8v137q0 68 -86 68q-63 0 -115 -31q0 12 -8 43q-6 33 -6 43q0 98 79 98q33 0 99 -6q33 -2 57.5 -3t40.5 -1q129 0 129 176q0 137 -98 137q-31 0 -185 -75q-61 -29 -137 -35q-18 -2 -32.5 28.5t-14.5 77.5z" />
<glyph unicode="%" horiz-adv-x="1460" d="M31 858q0 -96 34.5 -180t84.5 -109l73 -71q35 -35 80 -35q104 0 221 158q152 201 152 426q0 39 -6 75q53 -20 102 -29.5t98 -11.5l-813 -1104l17 3l98 -99l172 13l352 477q-14 -49 -14 -99q0 -47 6 -88t23 -82h-2q31 -82 79 -106l78 -78q35 -35 86 -35q102 0 219 152 q47 63 82 126.5t51.5 129t16.5 153.5q0 166 -49 215l-78 76q-25 53 -76 53q-18 0 -39 -6q-4 -2 -8 -2q-16 -4 -29.5 -6t-19.5 -2t-27 4l435 590l-99 98l8 11h-172q-174 -156 -329 -156q-166 0 -363 72q-12 0 -21.5 -2.5t-19.5 -6.5q-4 -2 -8 -3t-8 -3q-33 -14 -45 -14 q-4 0 -16.5 2t-24.5 6q-14 4 -36 5l-22 1l-2 -2v2v6q-43 0 -75 -116l-82 -150q-84 -150 -84 -258zM51 858q0 100 82 250l84 154q31 100 55 100q6 0 20.5 -3t30 -7t30 -7.5t20.5 -3.5q8 0 21.5 4.5t27.5 10.5t27.5 10t19.5 4q197 -72 369 -72q164 0 338 156h122l-1065 -1444 l-133 -10l912 1235q-115 -37 -217 -37q-117 0 -246 51q4 -27 7 -51t3 -49q0 -219 -149 -418q-115 -152 -209 -151q-74 0 -117 106q-33 80 -33 172zM205 926q0 -162 69 -162q88 0 148 240q2 5 2 28q0 51 -18 111q-25 76 -66 76q-76 0 -127 -205q-8 -27 -8 -88zM322 807v16 q0 57 8 84q31 125 69 170q2 -12 3 -23.5t1 -21.5q0 -16 -2 -22q-18 -78 -37.5 -128.5t-41.5 -74.5zM702 272q0 100 80 246l86 154q35 96 54 96q16 0 50 -8t50 -8t49 8t47 8q86 0 86 -221q0 -84 -16 -150q-16 -63 -50 -125.5t-81 -126.5q-115 -145 -207 -145q-76 0 -117 102 q-31 76 -31 170zM856 336q0 -160 68 -160q82 0 147 240q4 20 4 28q0 53 -20 109q-27 76 -66 76q-74 0 -125 -203q-8 -27 -8 -90zM973 227v6q0 59 8 86q31 125 70 170q2 -12 3 -23.5t1 -21.5q0 -4 -4 -20q-39 -143 -78 -197z" />
<glyph unicode="&#x26;" horiz-adv-x="1140" d="M31 348q0 -268 116 -332l72 -71q45 -45 119 -45h37t47 2t45.5 3t38.5 1h29q16 0 38 -2q8 0 15.5 -1t15.5 -1q33 -2 58 -2h40q6 0 15.5 2t19.5 6q14 8 24.5 13t18.5 11h4l31 -30l29 -4v53l43 -43q8 -8 51 -8q4 0 20.5 2t38.5 6q20 4 36 6t22 2h4l31 -6q2 0 5 -1t5 -1 l12 20q-47 92 -81 150.5t-50 87.5v6q-10 31 -12 51q0 23 8 64q0 2 1 5t1 7q4 16 6 26.5t2 22.5q0 82 -22 162q-10 37 -23.5 64.5t-34.5 46.5l-69 67q-25 45 -66 68l-4 -6l-14 10q4 -8 8 -22.5t6 -18.5q0 -2 1 -4l1 -2q6 -23 8 -28t6 -17q0 -12 -2 -21v-8q0 -2 -1 -4t-1 -6 q-14 -86 -39 -92q-2 0 -2 -2h-2q-35 53 -62 100t-50 92q-4 8 -6.5 16.5t-2.5 18.5q0 27 23 45q123 129 123 291q0 43 -16.5 83t-43.5 66l-69 68q-18 33 -46 53.5t-59 20.5t-94 -7q-4 0 -6 -1t-6 -1q-12 -2 -23 -2h-20q-4 0 -9 1t-10 1h-14q-16 0 -22 2l-56 54v8h-12v2l4 -2 l-24 24v-84q-31 -14 -50.5 -47.5t-19.5 -79.5q0 -90 31 -172q2 -2 8 -18q10 -20 28.5 -58t45.5 -94q12 -25 12 -47q0 -33 -37 -59q-223 -174 -223 -461zM51 348q0 274 215 445q45 33 45 75q0 29 -14 56q-33 66 -52.5 107.5t-27.5 62.5q-31 82 -31 163q0 47 20.5 81t49.5 34 v82q-8 0 -8 -10q0 -12 8 -31q-18 -18 -18 -31q0 -6 16 -10l16 -2q10 -2 28.5 -4t47.5 -6q39 -4 90 2q63 6 92 6q25 0 45.5 -14.5t37 -38t25.5 -54t9 -61.5q0 -160 -117 -278q-29 -23 -28 -58q0 -16 10 -41q68 -133 178 -288q20 -27 60 -19q37 8 53 113q2 14 3 23.5t1 17.5 q0 2 -23 80q-16 0 -16 -15q53 -31 82 -127q23 -80 22 -157q0 -8 -3 -22.5t-7 -37.5q-8 -41 -8 -67q2 -14 6 -29.5t8 -32.5q20 -29 52 -88t79 -149q-6 2 -15 4t-24 4q-8 2 -24 -1t-41 -7q-23 -4 -38 -6.5t-19 -2.5q-37 0 -41 4q-35 59 -68 60v-80q4 12 4 18q0 31 -43 31 q6 6 10 17q-8 -8 -63 -39q-27 -10 -35 -11h-41t-57.5 2t-57 3.5t-41.5 1.5q-14 0 -36.5 -1.5t-47 -2.5t-47 -2t-36.5 -1q-184 0 -185 332zM238 477q0 -133 26 -186q51 -106 199 -107q47 0 90 21q70 33 70 92q0 18 -11 35q-37 61 -82 147t-98 197q-20 45 -65 45 q-29 0 -43 -31q-14 -27 -27.5 -51.5t-28.5 -50.5q-31 -61 -30 -111zM354 375q0 43 29 104q4 8 5 11.5t18 29.5q6 12 15 29.5t17 32.5q2 6 11 14q47 -94 82.5 -162.5t62.5 -114.5v3q8 -17 8 -25q0 -47 -57 -74q-43 -18 -82 -18q-59 0 -96 14q-8 29 -10.5 67t-2.5 89z M362 1221q0 -123 101 -242q88 125 88 207q0 152 -109 151q-80 0 -80 -116zM479 1118q0 90 49 101q2 -8 2 -17v-16q0 -57 -45 -135q-4 16 -5 33.5t-1 33.5z" />
<glyph unicode="'" horiz-adv-x="450" d="M31 750h12l96 -97h54q51 45 131 150q98 129 98 174q0 39 -29 67l-6 7v-2q2 0 2 -2l-72 71q-12 29 -38.5 47.5t-61.5 18.5q-70 0 -111 -144q-4 -12 -7 -23t-7 -22q-25 -84 -40 -133t-21 -65v-47zM51 770v23q10 20 28.5 80.5t47.5 160.5q37 129 90 129q35 0 61.5 -24.5 t26.5 -59.5q0 -39 -96 -166q-78 -102 -125 -143h-33z" />
<glyph unicode="(" horiz-adv-x="548" d="M29 688q0 -272 256 -694l106 -144l6 5l99 -99l24 13l-86 204q-109 258 -135 613l-8 104l-2 117v29q0 375 155 643l-98 96l2 2q0 2 2 4l-31 27q-39 -45 -70.5 -95.5t-60.5 -105.5q-160 -319 -159 -719zM49 688q0 395 158 711q55 111 121 188q-162 -279 -156 -678l2 -118 l8 -105q29 -354 137 -616l84 -201l-92 123q-262 432 -262 696z" />
<glyph unicode=")" horiz-adv-x="542" d="M29 -113v-84l10 15l98 -99l113 162q100 135 178 334q86 217 86 371q0 205 -47 409q-76 328 -238 502l-55 53q-10 16 -22.5 29.5t-24.5 28.5l-31 -27q23 -35 36 -61.5t24 -46.5h-2q100 -260 100 -527v-33l-2 -114l-8 -113q-8 -109 -19.5 -189.5t-25.5 -140.5 q-23 -80 -44.5 -149.5t-45.5 -128.5zM49 -117l78 187q51 127 92 280q14 55 25.5 139t19.5 197l8 111l2 116q6 295 -96 560q-10 27 -24.5 55t-34.5 59q156 -168 231 -493q47 -205 47 -406q0 -147 -86 -364q-76 -195 -176 -332l-86 -123v14z" />
<glyph unicode="*" horiz-adv-x="786" d="M31 1198q0 -33 26 -39l74 -76q-47 -18 -47 -45q0 -18 51 -63q33 -29 47 -41l11 -10q12 -16 18 -21l10 -8q12 -12 21 -18q10 -8 18 -15.5t14 -11.5l33 -33q18 -18 39 -18q18 0 27.5 15t15.5 46q2 41 17 72l2 -14q2 -18 26 -19l88 -88q6 -8 25 -8q25 0 49 28l33 37l39 25 q37 20 37 45q0 12 -11 23l-86 86q-4 14 -18 24q18 6 51 6l31 -4l47 -10q37 0 37 37v4q-4 16 -10.5 32.5t-16.5 41.5q-12 25 -13 28.5t-3 7.5l2 -2q-10 39 -27 56l-86 86q-20 33 -41 32q-12 -4 -16 -6l-82 82q-10 33 -41 33h-6l-33 -2q-4 -2 -27 -2h-14l-39 2h-2l-27 2h-6 q-47 0 -47 -49q4 -16 23 -35q31 -43 30 -84q0 -39 -4 -39q-55 0 -96 47q-37 49 -59 49q-23 0 -39.5 -35.5t-34.5 -105.5q-4 -12 -7 -22.5t-3 -22.5zM51 1198q0 12 10 39q35 127 54 127q12 0 43 -41q43 -55 112 -55q25 0 25 59q0 51 -45 109q-4 4 -8 16q0 25 32 23l27 -2 l41 -3h14q27 0 31 3l29 2q29 4 28 -25l-26 -47q-27 -45 -27 -78q0 -55 35 -55q63 0 98 55q23 37 39 41q23 0 35 -55q14 -35 24.5 -62t16.5 -47q0 -23 -21 -22l-47 10l-30 4q-94 0 -97 -45q0 -23 37 -49q37 -29 62 -31q45 -8 45 -29q0 -14 -31 -32l-39 -25l-35 -39 q-23 -25 -39 -24q-14 0 -16 8l-8 49q-6 33 -25 67q-25 45 -49 46q-53 0 -74 -125q-10 -49 -28 -50q-18 0 -39 27q-4 4 -18.5 16.5t-36.5 30.5q-45 39 -46 49q0 14 48 31q94 33 102 84q0 18 -41 31q-35 10 -55 10q-4 0 -20.5 -3t-45.5 -7l-22 -4q-18 0 -19 18zM547 1378 q2 0 2 -2z" />
<glyph unicode="+" horiz-adv-x="972" d="M29 512q0 -29 26 -35l90 -90q8 -8 27 -8l12 6q2 0 4 1t5 1q74 51 129 62h16q-2 -25 -3 -48.5t-3 -46.5q0 -10 -13 -55q-12 -43 -12 -70q0 -39 31 -45l88 -86q10 -10 27 -10q20 0 49 29q53 53 116 76q51 18 52 47q-2 10 -13 20l-2 2q-16 16 -21 30.5t-5 26.5q-2 2 -2 66 v68h37q55 0 77 -15h2q39 -31 56 -30q31 0 47 53q16 49 72 114q12 16 19 28.5t7 23.5q0 16 -10 26l-88 86q-6 33 -49 33l-27 -8q-66 -20 -141 -23q0 16 1 29t3 25q8 86 49 129q18 18 18 39q0 16 -8 24l-90 88q-6 29 -35 29q-14 0 -47 -19l-110 -57q-102 -53 -103 -84 q31 -74 31 -119v-84h-68h-37q-16 0 -30 2q-4 4 -8.5 5.5t-6.5 3.5l-24 12q-12 4 -21 10q-39 0 -69 -104q-45 -141 -45 -158zM49 512q0 10 45 152q29 90 43 90q8 -4 23.5 -11.5t38.5 -17.5q14 -2 31.5 -3t39.5 -1h88v104q0 49 -30 123q0 14 90 62l110 57q33 16 39 16 q16 0 17 -18q0 -14 -15 -29q-43 -47 -53 -137q-6 -59 -6 -178h88q100 0 178 22l27 9q24 0 24 -23q0 -12 -22 -41q-61 -70 -76 -121q-12 -43 -33 -43q-8 0 -47 29q-23 16 -88 16h-51v-82q0 -70 2 -71q0 -25 33 -64q6 -6 8 -14q0 -12 -41 -29q-66 -23 -123 -80 q-25 -25 -39 -24q-23 0 -22 24q0 20 12 64q12 45 12 59q6 57 6 133v84q-55 0 -90 -1t-51 -3q-59 -10 -133 -61l-8 -4l-8 -4q-18 0 -19 16z" />
<glyph unicode="," horiz-adv-x="415" d="M31 -119v-45h12l96 -96h49q23 16 41.5 29.5t32.5 23.5t22.5 16.5t12.5 10.5q90 61 90 102q0 31 -27 58l-75 75q-10 23 -34 41.5t-54 18.5q-66 0 -97 -76zM51 -123l68 154q27 63 78 63q33 0 53 -22t20 -47q0 -31 -84 -91q-10 -6 -35.5 -25.5t-70.5 -51.5h-29v20z" />
<glyph unicode="-" horiz-adv-x="794" d="M29 618l16 -4l94 -94l29 -6q2 14 27 14q18 0 67 -16t74 -16q20 0 100 -43q2 -2 4 -2t4 -2q4 -2 8.5 -4.5t8.5 -2.5l61 -12h15q70 0 141 82q66 72 76 145l6 19l4 39l-98 96l2 12l-68 11q-39 -49 -51 -54q-16 -16 -43 -16h-10v2l-62 18l-74 29l-86 16h-18q-72 0 -141 -69 q-68 -68 -86 -142zM51 618q14 63 78 127t127 64h14l88 -16l72 -29l57 -19l17 -2q37 0 57 21q10 4 47 47l37 -6l-2 -23l-6 -18q-10 -72 -72 -139q-68 -78 -131 -78h-12l-62 12q-4 2 -9 4t-11 4q-82 45 -107 45q-20 0 -69 16.5t-72 16.5q-39 0 -41 -27z" />
<glyph unicode="." horiz-adv-x="403" d="M31 135q0 -45 12 -84q14 -55 49 -69l78 -76q2 -2 3 -4t5 -4q14 -14 33 -15q43 0 102 60q61 57 62 102q0 45 -33 78l-76 74q-16 33 -47 52t-69 19q-119 0 -119 -133zM51 135q0 113 99 113q43 0 75.5 -29t32.5 -72q0 -37 -57 -92q-55 -55 -92 -55q-31 0 -46 57 q-12 39 -12 78z" />
<glyph unicode="/" horiz-adv-x="514" d="M27 -74l28 -22l2 2l80 -80l21 -16l51 55q37 49 66.5 103.5t52.5 111.5h-2q20 51 34.5 108.5t22.5 120.5q2 29 4 56.5t4 56.5t3 54.5t5 53.5q18 211 86 424l-98 97l2 4q0 2 2 6l-33 18q-143 -143 -192 -639q0 -100 -35 -235q-33 -92 -58.5 -162t-45.5 -117zM49 -74 q20 47 45 113.5t58 159.5q35 135 34 239q50 490 183 623q-68 -209 -86 -426q-4 -55 -8.5 -110.5t-8.5 -110.5q-16 -127 -55 -226q-47 -119 -117 -213z" />
<glyph unicode="0" horiz-adv-x="1210" d="M31 575q0 -211 174 -409q29 -35 55.5 -60.5t54.5 -48.5l43 -41q137 -133 258 -133h84q166 0 328 242q152 219 152 391v82q0 199 -138 399q-23 31 -44 58.5t-44 50.5l-43 43q-145 182 -313 182h-55q-117 0 -248 -121q-51 -47 -94 -104t-82 -123q-88 -152 -88 -274v-134z M51 575v134q0 113 86 264q39 66 82 122t90 101q125 115 234 115h55q178 0 330 -219q135 -201 135 -392v-82q0 -166 -150 -382q-160 -236 -315 -236h-84q-139 0 -295 180q-168 193 -168 395zM205 778q0 -141 147 -346q156 -215 289 -215h84q4 8 33 23l51 26q16 16 51 105 q16 35 27 43v153l-56 174q-20 70 -100 156q-12 20 -33.5 42t-50.5 48q-109 92 -217 92q-98 0 -161.5 -66.5t-63.5 -164.5v-70zM322 676v69q0 92 59 155t151 63q88 0 168 -60q4 -8 9 -12q41 -43 66.5 -82t35.5 -74l55 -176v-137q-16 -16 -26 -43q-33 -82 -45 -96l-45 -25 q-10 -4 -17.5 -10t-13.5 -10h-78q-72 0 -158 73q-4 6 -8 13.5t-8 13.5q-145 205 -145 338z" />
<glyph unicode="1" horiz-adv-x="684" d="M29 1055q12 -23 30 -29l88 -86q10 -10 27 -10l33 6h2v-684q0 -150 -103 -211v-61h13l96 -97h92l111 72q102 63 131 63h104v39q0 20 -16 43q-33 39 -33 93v880q0 31 -24 74q-20 35 -41 55l-66 64q-43 66 -80 65l-268 -176q-96 -59 -96 -100zM49 1059q0 20 88 78l264 174 q23 0 64 -68q23 -41 22 -67v-881q0 -59 33 -98q16 -23 17 -37v-25h-91q-37 0 -139 -65l-106 -70h-74v29q102 61 102 223v735q0 72 -71 72l-56 -6l-32 -6q-14 0 -21 12z" />
<glyph unicode="2" horiz-adv-x="1140" d="M31 905l6 -39q10 -10 22 -16l86 -84q16 -16 50 -16l137 131q55 55 100 55h111q18 0 43 -12q27 -41 26 -99q0 -121 -133 -284q-98 -119 -262 -281q-143 -139 -143 -178q0 -43 35 -51l86 -86q12 -12 41 -13q14 0 34.5 6.5t53.5 16.5q63 25 100 25h111q35 0 133 -48 q100 -49 125 -49q76 0 196 142q123 141 123 221v2l-4 28q0 4 -4 9l-92 90v8q-6 18 -47 18l-103 -104q-35 -35 -55 -41l-168 51l188 201q111 147 111 291q0 178 -115 301q-4 4 -7 8t-7 8l-6 4l2 -2q2 0 4 -2l-53 53l-31 37q-113 125 -293 125q-168 0 -285 -127 q-117 -125 -116 -299zM51 907q0 162 110.5 283t270.5 121q172 0 279 -119q111 -121 110 -291q0 -137 -108 -283l-258 -278l346 -104q29 0 76 47l96 98q16 0 18 -8l4 -25q0 -74 -118 -211q-117 -137 -187 -137q-18 0 -119 47q-98 49 -139 49h-110q-41 0 -105 -24 q-68 -23 -84 -23q-39 0 -39 33q0 29 137 164q78 78 143.5 147.5t119.5 134.5q139 170 139 297q0 102 -82 172q-66 55 -111 56h-110q-47 0 -111 -60l-133 -127q-20 0 -29 8z" />
<glyph unicode="3" horiz-adv-x="1157" d="M29 422q0 -190 135 -326q31 -31 61 -55l45 -43q115 -115 232 -115h129q78 0 186 58q59 29 119 79h-2q193 162 192 379q0 135 -102 242l-59 57q-8 12 -18.5 24.5t-20.5 25.5q-4 2 -13 10l27 37q41 55 41 127q0 106 -80 186l-18 16l-2 2l-35 35q-25 41 -72 80 q-55 45 -113.5 67.5t-123.5 22.5q-123 0 -224 -92q-127 -117 -127 -231q2 -37 39 -54l84 -82q6 -6 13.5 -10t19.5 -8l98 96q37 37 113 37q45 0 100 -31q4 -12 4 -18v-86q0 -41 -55 -90q-31 -29 -59.5 -53.5t-44.5 -38.5q-4 -4 -11 -8l-16 -17l-2 -20l4 -43h12l97 -97h135 q25 0 55 -12q23 -39 23 -72v-71q0 -53 -62 -121q-78 -86 -196 -86q-70 0 -140 43q-4 10 -4 22v25v66q0 20 6 32l17 6v68l-97 96v13h-233q-57 0 -57 -72zM49 422q0 51 37 51h213v-43l-6 -2q-16 -12 -17 -47v-66q0 -86 86 -149q84 -63 175 -64q127 0 211 93q68 74 67 135v71 q0 66 -67.5 133.5t-133.5 67.5h-122l-3 23l3 12q4 4 12 11t18 18q35 29 94 82q61 55 62 104v86q0 59 -86 115q-76 51 -141 51q-82 0 -123 -41l-92 -90q-25 8 -29 37q0 104 121 215q94 86 209 86q123 0 225 -84t102 -203q0 -66 -39 -119l-51 -74q33 -23 66.5 -47t72.5 -53 q97 -100 97 -229q0 -213 -187 -369q-29 -25 -57.5 -44t-56.5 -34q-109 -55 -181 -55h-129q-111 0 -221 111q-129 129 -129 311zM881 1126l2 -2q0 2 -2 2z" />
<glyph unicode="4" horiz-adv-x="1185" d="M29 371h12l96 -97h504v-81q0 -55 -47 -97l-29 -28q-14 -14 -17 -18.5t-13 -18.5q0 -39 34 -49l86 -86q12 -12 37 -13q51 0 101 31l77 57q23 14 101 21q84 2 84 41q0 16 -6.5 24.5t-12.5 18.5l-4 4q-18 23 -18 31v170h20q63 0 99 92q23 63 22 102v43l-96 96v13h-45v608 l-96 96v19q-41 -27 -87.5 -56.5t-66.5 -44.5v2l-64 -39v21l-96 96v19q-274 -158 -317 -236q-98 -100 -148 -330q-59 -268 -110 -346v-65zM49 391v37q51 80 111 350q51 229 145 324q41 72 279 209v-49l-37 -121q-37 -121 -109 -260q-90 -174 -182 -254l193 -2q6 -6 198 -7 q12 12 17 62q2 33 3 72t1 84v331l108 66q20 14 50 32.5t71 45.5v-676q0 -35 33 -35q18 0 31 6h77v-28q0 -35 -22 -99q-31 -82 -84 -82h-35v-184q0 -6 6 -16.5t14.5 -20.5t14.5 -21.5t6 -19.5q0 -25 -70 -26q-86 -6 -108 -23l-78 -57q-47 -29 -92 -29q-35 0 -35 29q2 4 9 11 t44 42q53 47 54 111v198h-613zM477 641q18 29 37 61.5t39 69.5q29 57 52.5 109.5t41.5 101.5v-147q0 -45 -1 -84t-3 -72q-2 -12 -3 -23.5t-5 -17.5h-100t-58 2z" />
<glyph unicode="5" horiz-adv-x="1015" d="M29 272q0 -113 123 -206q2 -2 3 -4.5t5 -4.5l53 -51q10 -10 21.5 -19.5t23.5 -19.5q109 -84 221 -84q80 0 197 68q309 180 309 467v106q0 119 -104 248q-10 12 -20.5 23.5t-20.5 21.5l-43 41q-4 4 -7.5 10t-7.5 11q-61 70 -114 104q16 6 31.5 14.5t31.5 18.5 q147 86 148 166l-2 20q-2 4 -7 8l-90 88v9q-6 25 -51 24l-127 -51q-49 -18 -82 -18h-80q-27 0 -92 32q-68 37 -88 37l-31 -2l-16 -20l2 -664q4 2 5 3t5 3l99 -96q166 98 227 98q63 0 119 -30q29 -45 28 -88v-129q0 -70 -59 -160q-78 -117 -199 -117q-35 0 -67 18 q-6 18 -6 37q4 12 4 13l16 45v53l-96 96v12l-199 9h-10q-12 0 -22.5 -4.5t-20.5 -8.5q-2 0 -5 -1t-5 -1v-125zM49 272v111q18 10 43 8l178 -8v-35l-14 -41q-2 -2 -6 -16q0 -51 53 -111q66 -72 137 -71q133 0 215 124q63 94 64 173v129q0 72 -64 141q-82 94 -206 94 q-70 0 -213 -86l-3 616l7 9l22 2q12 0 78 -35t100 -35h80q41 0 90 21l123 49q23 0 27 -11l2 -18q0 -70 -141 -152q-131 -76 -211 -75l-48 6h-34l-6 -49l-7 -35q0 -14 13 -14l86 24q41 10 57 10h78q113 0 219 -131q100 -121 100 -239v-107q0 -281 -301 -454 q-115 -66 -190 -66q-106 0 -213 82q-115 90 -115 190zM639 670l2 -2q2 0 4 -2z" />
<glyph unicode="6" horiz-adv-x="1132" d="M31 539q0 -248 164 -418q33 -37 69 -64l43 -41q131 -133 293 -133q143 0 307 123q195 147 195 352v150q0 92 -68 197q-23 37 -53 67l-51 49q-96 147 -268 148q-137 0 -232 -107q-82 -88 -82 -182v-55q0 -29 10.5 -57.5t32.5 -61.5q31 -45 64 -64l71 -69q35 -35 74 -35 q37 0 55 39q0 20 -22 39l-6 6q-20 20 -21 70q0 39 41 73.5t86 34.5q59 0 109 -25q31 -49 30 -94q0 -41 -18 -81t-55 -72q-72 -66 -162 -66q-125 0 -242 105q-72 102 -86 213v84q0 115 78 241q86 139 191 139h63q55 0 131 -57l25 -18l43 -43q16 0 34.5 21.5t49.5 62.5l59 80 q0 14 -16 30l-82 82q-14 39 -115 84l-104 45h-91q-201 0 -362 -198q-145 -174 -182 -379v-215zM51 539v211q37 203 176 370q156 190 348 191h87l100 -43q104 -47 104 -70l-57 -78q-59 -78 -66 -78q-14 16 -29.5 30.5t-35.5 29.5q-78 59 -139 59h-64q-113 0 -203 -145 q-80 -129 -79 -250v-86q23 -158 153 -293q139 -145 291 -145q98 0 176 71q80 70 80 168q0 72 -62 144q-80 92 -200 92q-49 0 -94 -39q-47 -37 -48 -84q0 -61 33 -86q16 -12 17 -27q-12 -27 -41 -26q-47 0 -90 63q-39 57 -39 107v55q0 86 75 168q88 100 218 100 q164 0 258 -149q66 -102 65 -189v-149q0 -199 -188 -340q-162 -121 -299 -121q-158 0 -289 135q-158 164 -158 404z" />
<glyph unicode="7" horiz-adv-x="1114" d="M29 1008l6 -52q12 -16 31 -22l86 -84q12 -12 34 -12l17 16q6 6 6 10q10 12 17 24.5t12 20.5h2q37 59 94 60q39 0 149 -54l86 -43l-20 -24t-21 -27q-14 -16 -26.5 -31.5t-24.5 -29.5q-20 -25 -36.5 -45.5t-30.5 -36.5q-184 -240 -185 -438q0 -145 113 -220h-2q4 -2 5 -3 t5 -3l57 -57q10 -10 25.5 -21.5t32.5 -21.5l2 -2q45 -29 94 -29q115 0 172 113q4 12 9 24.5t10 22.5q-4 16 -13 25l-6 4h2l-82 82q-10 27 -63 45q-6 0 -15 4v33q0 119 134 342q63 104 245 356q135 186 135 225v2l-4 31l-28 27h2l26 -27q-4 8 -10 16l-86 86v2q-18 35 -55 35 q-20 -2 -109 -76v2q-51 -39 -80 -38h-82q-33 6 -133 49q-129 57 -147 57h-64q-111 0 -204 -125q-82 -109 -82 -192zM49 1010q0 72 78 178q88 117 188 117h64q12 0 139 -56q98 -45 141 -51h82q37 0 82 35q88 74 109 78q27 0 33 -17l4 -32q0 -31 -133 -218 q-182 -252 -246 -356q-135 -225 -135 -350q0 -86 43 -125q18 -18 82 -35q47 -12 51 -31q-4 -10 -8.5 -21t-8.5 -22q-53 -104 -159 -104q-41 0 -86 27q-123 68 -123 213q0 190 180 426q23 29 51.5 63.5t65.5 79.5q106 129 116 158h-65l-49 2l-41 4l-117 57q-115 55 -156 55 q-66 0 -106 -65q-8 -14 -16.5 -26.5t-16.5 -22.5q-2 -2 -5 -6t-9 -11q-14 0 -23 15z" />
<glyph unicode="8" horiz-adv-x="1118" d="M31 383q0 -137 155 -268q10 -8 18.5 -15.5t16.5 -15.5l31 -29q10 -10 20.5 -19t20.5 -20q154 -133 289 -133q168 0 333 144q172 147 172 313q0 127 -69 217l-80 78q-4 8 -9 14t-9 15l-43 38l51 39q80 74 80 140v69q0 72 -70 142l-12 10l6 -6l-53 53q-14 23 -37 45.5 t-51 44.5q-117 92 -211 92h-101q-98 0 -203 -80q-137 -100 -137 -262q0 -61 13 -98l34 -51q10 -14 19.5 -27.5t17.5 -26.5q-41 -31 -69.5 -57.5t-47.5 -48.5q-76 -88 -75 -182v-115zM51 383v115q0 86 70 168q47 55 131 116q-10 12 -21.5 29.5t-27.5 40.5l-31 45 q-12 37 -12 92q0 150 129 246q100 76 190 76h101q86 0 198.5 -88t112.5 -170v-70q0 -57 -74 -127l-74 -57l160 -148q68 -90 68 -209q0 -160 -168 -303q-162 -139 -324 -139q-129 0 -278.5 129t-149.5 254zM201 569q0 -133 149.5 -262t286.5 -129q68 0 116 45t48 111 q0 102 -187 233q-139 100 -305 158q-109 -84 -108 -156zM309 1098q0 -90 252 -209q10 -4 28.5 -12.5t47.5 -22.5q2 -2 14 -6q29 0 64 37q35 40 35 69q0 82 -142 172q-121 76 -209 76q-35 0 -62.5 -32.5t-27.5 -71.5zM317 467q0 61 97 139q160 -59 295 -153q8 -6 15 -11.5 t13 -11.5q43 -53 43 -96q0 -57 -42 -96t-101 -39q-129 0 -272 123q-2 0 -3 2q-45 70 -45 143zM426 985v10q0 35 23.5 62.5t52.5 27.5q80 0 200 -73q6 -6 11 -8q16 -27 16 -50q0 -20 -29 -55q-25 -27 -45 -31h-2q0 2 -2 2l-4 4l-4 -4q-16 8 -28.5 15.5t-20.5 11.5q-6 2 -14 6 q-4 2 -8 3l-3 1q-45 20 -79.5 40t-63.5 38z" />
<glyph unicode="9" horiz-adv-x="1204" d="M31 248l45 -72q49 -82 129 -137l43 -41q53 -53 117.5 -84t136.5 -31h84q102 0 235 97q78 53 139.5 121.5t108.5 150.5h2q102 168 103 354q0 207 -119 395q-20 33 -42 62t-44 51l-45 45q-129 172 -306 172h-112q-135 0 -277 -147q-162 -162 -161 -369v-92q0 -168 122 -311 v2q23 -29 45.5 -48.5t43.5 -33.5l8 -6q-23 12 -43 12q-41 0 -115 -21q-98 -25 -98 -69zM51 256q0 18 84 41q74 20 109 20q49 0 118.5 -112.5t120.5 -112.5q102 0 201 101q117 119 117 311v375q0 104 -58 217q-70 137 -159 137h-86q-72 0 -131.5 -71.5t-59.5 -141.5v-121 q0 -129 43 -229q59 -139 170 -140q57 0 92 48q33 33 33 81q0 14 -16 58l-39 90q0 23 22 22h21q39 0 72 -75q27 -61 26 -109q0 -143 -123 -244q-90 -76 -168 -75h-78q-74 0 -167 112q-106 125 -107 285v92q0 199 156 354q137 141 262 142h112q188 0 322 -215 q117 -188 117 -387q0 -178 -101 -347q-92 -162 -245 -268q-131 -94 -228 -94h-84q-92 0 -173 53t-132 135zM350 262q60 -53 115 -53h78q78 0 176 80q4 4 9 8t11 8q-29 -57 -69 -98q-94 -94 -187 -94h-8q-16 27 -31.5 46t-27.5 34l-51 51q-6 6 -15 18zM424 797v121 q0 66 55 133q53 66 121 65h86q8 0 25 -4q8 -16 14 -25q55 -111 55 -208v-158l-71 72q-33 57 -76 57h-21q-43 0 -43 -47l37 -86h-2q10 -25 15.5 -40t5.5 -18q0 -41 -29 -69q-33 -39 -76 -39q-29 0 -51 8q-4 8 -4 14q-41 100 -41 224z" />
<glyph unicode=":" horiz-adv-x="423" d="M31 135q0 -45 12 -84q14 -55 49 -69l78 -76q2 -2 3 -4t5 -4q14 -14 33 -15q43 0 102 60q61 57 62 102q0 45 -33 78l-76 74q-16 33 -47 52t-69 19q-119 0 -119 -133zM51 135q0 113 99 113q43 0 75.5 -29t32.5 -72q0 -37 -57 -92q-55 -55 -92 -55q-31 0 -46 57 q-12 39 -12 78zM51 743q0 -45 12 -84q14 -55 50 -69l77 -76q2 -6 9 -8q14 -14 32 -14q45 0 104.5 59t59.5 104q0 43 -33 76l-73 74q-16 31 -47 51.5t-72 20.5q-53 0 -86 -37t-33 -97zM72 743q0 49 27.5 81t70.5 32q47 0 78 -29.5t31 -68.5t-55.5 -94.5t-94.5 -55.5 q-31 0 -45 58q-12 39 -12 77z" />
<glyph unicode=";" horiz-adv-x="491" d="M31 -164v-47h12l96 -96h54q18 18 50.5 57t78.5 94q102 127 102 166v2q0 16 -9 33.5t-24 32.5l-74 72q-14 29 -42.5 50t-57.5 21q-68 0 -108 -145q-31 -104 -50.5 -163.5t-27.5 -76.5zM51 -168q20 41 78 238q37 131 88 131q31 0 60.5 -27.5t29.5 -58.5q2 -35 -98 -160 q-41 -51 -72 -87t-53 -58h-33v22zM119 743q0 -53 22.5 -100t46.5 -55l86 -84q12 -12 25 -12q43 0 102 59q61 61 62 104q0 43 -33 76l-74 74q-16 33 -48 52.5t-70 19.5q-119 0 -119 -134zM139 743q0 113 99 113q43 0 75.5 -28.5t32.5 -69.5q0 -37 -57 -94q-55 -55 -92 -56 q-20 0 -39 43t-19 92z" />
<glyph unicode="&#x3c;" horiz-adv-x="1042" d="M25 524l16 -8l92 -90l877 -369v127l-97 97v10l-499 203l596 231v131l-97 96v17l-888 -357v-88zM45 537v61l848 338v-98l-674 -260v-25l674 -274v-99z" />
<glyph unicode="=" horiz-adv-x="978" d="M33 367q0 -35 26 -41l91 -88q8 -8 24 -9q23 6 29 13q27 20 49 33.5t45 17.5q147 12 182 12h107q141 0 157 -14h2q37 -31 58 -31q31 0 47 53q14 57 72 115q27 27 26 49q0 16 -10 27l-88 86q0 4 -1 6t-1 4q0 6 2 8q20 66 72 117q27 27 26 51q0 16 -8 25l-90 88 q-6 31 -47 31l-29 -7q-49 -25 -205 -24h-37l-311 2q-33 6 -49 18q-25 12 -31 13q-33 0 -63 -105l-33 -108q0 -2 -4 -15q0 2 -1 -4t-3 -10q-2 -6 -4 -16q0 -35 26 -41l41 -41q-14 -29 -22 -62l-33 -108q0 -2 -4 -15q0 2 -1 -4t-3 -10q-2 -6 -4 -16zM53 365l10 36l35 113 q29 90 43 90q10 -4 28.5 -12t43.5 -19l319 -2q193 -4 246 25l29 6q24 1 24 -22q0 -16 -22 -39q-57 -57 -76 -121q-12 -43 -33 -43q-14 0 -47 26q-23 18 -170 19h-106q-37 0 -184 -12q-43 -8 -101 -54q-4 -4 -20 -10q-18 0 -19 19zM53 662l10 36l35 113q29 90 43 90 q6 0 19 -6q25 -18 53 -25l319 -2q190 -4 246 25l29 6q24 0 24 -20q0 -18 -22 -41q-55 -55 -76 -121q-16 -41 -33 -41q-20 0 -47 26q-20 20 -82 19l-88 -2h-106q-55 0 -92 -1t-56 -3q-76 -8 -133 -58q-12 -10 -24 -14q-18 0 -19 19zM305 592q9 2 29 6q18 2 55 3t90 1h107 l88 2h14q27 0 35 -4q-29 -4 -67 -6t-87 -2h-37h-227zM707 655l47 -49h-2z" />
<glyph unicode="&#x3e;" horiz-adv-x="1044" d="M33 150l10 4l98 -97l879 369v80l-96 96v10l-891 357v-146l16 -6l92 -92l492 -190l-600 -244v-141zM53 180v99l676 274v25l-676 260v98l850 -338v-61z" />
<glyph unicode="?" horiz-adv-x="964" d="M29 905l6 -39q10 -10 22 -16l86 -84q16 -16 50 -16l137 131q55 55 100 55h111q18 0 43 -12q27 -41 26 -99q0 -106 -57 -237q-10 -18 -40 -74.5t-89 -155.5l16 -59l9 8l71 -71q-16 10 -36.5 17t-43.5 7q-119 0 -118 -133q0 -45 12 -84q14 -51 51 -66l84 -83q14 -14 33 -15 q43 0 104 58q61 55 62 102q0 41 -33 74q-2 0 -6 4l6 -4l-74 71q-6 16 -14 25l278 299q111 147 111 291q0 178 -115 301q-4 4 -7 8t-7 8l-53 53l-31 37q-113 125 -293 125q-168 0 -285 -127q-117 -125 -116 -299zM49 907q0 162 110.5 283t270.5 121q172 0 279 -119 q110 -121 110 -291q0 -137 -108 -283l-258 -278l-4 14q47 82 77.5 137.5t44.5 88.5q59 135 60 245q0 102 -82 172q-66 55 -111 56h-110q-47 0 -111 -60l-133 -127q-20 0 -29 8zM342 127q0 113 98 113q43 0 77 -29t34 -70t-57 -92q-57 -53 -95 -53q-29 0 -45 53 q-12 39 -12 78z" />
<glyph unicode="@" horiz-adv-x="1282" d="M31 711q0 -377 250 -609q16 -18 38 -32l46 -45q4 -4 10 -10.5t12 -10.5q147 -131 291 -131q76 0 211 90q100 68 100 105q0 20 -10 30l-88 86q-6 33 -45 33q-16 0 -33 -8q-92 -37 -119 -37q-53 0 -139 43q-70 35 -121 80q-47 66 -69 139q27 -43 65 -61l68 -68 q49 -49 131 -49q63 0 94 33l18 -17q8 -8 35 -8h12q23 0 40.5 1t33.5 3h8l62 -2l14 -2h6q18 0 64 23q236 111 235 471q0 258 -153 430q-6 8 -12.5 14t-12.5 12l-45 43q-6 10 -13 18.5t-16 18.5q-100 113 -186 113q-20 0 -47 -4t-61.5 -12.5t-60.5 -11.5t-40 -3q-29 0 -86 13 q-61 12 -92 12q-72 0 -193 -121q-203 -203 -202 -569zM51 711q0 358 197 555q115 115 178 114q29 0 88 -12q57 -12 90 -12q39 0 105 14q76 16 104 16q78 0 172 -106q150 -168 150 -420q0 -352 -228 -459q-49 -23 -61 -20l-15 2l-75 4h10l-8 -2q-16 -2 -33.5 -3t-38.5 -1h-12 q-27 0 -27 14q0 10 25 60q8 27 10 73q2 16 2 50q0 33 2 84l2 118q2 47 1 76t-3 41q-12 84 -63 84q-55 0 -86 -78q-41 -104 -41 -229q0 -147 79 -148q18 0 39 4l9 2q16 0 16 -34q0 -125 -113 -125q-100 0 -149 84q-41 72 -41 176q0 195 113 325q82 98 176 99h20q16 0 50 -5 t50 -5q4 0 15.5 2t24 3t22.5 3t14 2l21 2q27 0 26 -25q0 -18 -14 -59q-8 -27 -12 -42t-6 -22v-63q0 -25 -2 -39q-4 -57 -6.5 -105.5t-2.5 -89.5q0 -143 54 -143q55 0 86 121q20 74 20 160q0 203 -106 354q-121 172 -312 172q-186 0 -280 -154q-80 -127 -80 -323 q0 -430 340 -604q88 -45 147 -45q35 0 127 38q14 6 25 7q27 0 26 -27q0 -29 -94 -92q-133 -88 -203 -88q-137 0 -280 127q-244 225 -244 594zM324 739q7 162 77 275q92 147 269 147q96 0 180 -51q8 -12 12 -16l19 -31q-10 16 -41 16l-21 -2h-12q-6 0 -12 -2h2q-4 0 -6.5 -1 t-6.5 -1q-27 -4 -41 -6q-8 0 -20 1t-26.5 3t-20.5 2t-31 4h-20q-104 0 -191 -104q-86 -102 -110 -234zM610 551q0 4 1 9t1 11q0 119 41 224l-2 2q4 8 8.5 15t8.5 15v-47l-2 -118q0 -10 -1 -19.5t-1 -19.5v-29v-37t-2 -25q-2 -6 -3 -14l-4 2q-6 33 -39 33zM883 1057v2 q0 -2 1 -3l1 -1q0 2 -2 2zM885 1055l6 -13l-4 5q0 6 -2 8zM942 588q0 27 2 55.5t6 61.5q2 12 2 36v64q0 4 2 9t7 15q2 -18 3 -37.5t1 -39.5q0 -80 -21 -154q-2 -4 -2 -10z" />
<glyph unicode="A" horiz-adv-x="1447" d="M31 963q10 -63 47 -76l84 -82q8 -10 26 -19l-19 -19t-17 -19q-92 -111 -93 -246q0 -98 86 -209l76 -103q-4 -23 -18 -49q-43 -80 -43 -96q2 -12 20 -47q12 -8 19 -10l90 -90q20 -14 49 -15q61 0 92 101l29 90v188v25q0 12 2 24l18 -16q14 -14 27 -16q35 25 45 43h2 q20 31 51 30q39 0 85 -14t104 -43l125 -62l59 68v-96q0 -115 106 -189l66 -65q39 -39 106 -70q29 20 49.5 36.5t32.5 31.5q66 72 80 119v49l-88 86q-6 29 -8 70.5t-2 99.5v63l-14 27l-5 6q0 4 1.5 9t1.5 14v86v10t-3 14q0 4 -1 10t-1 13l-14 28l2 -2q-6 18 -6 62v69 q0 106 -61 211q-45 74 -97 125l-43 43l17 17v45l-97 96v12h-59l-223 -151l-2 2l-53 65v-12q-6 0 -11 2l-30 -14h-5l-14 -13l-88 45q-104 51 -141 52h-78q-43 -4 -141 -103q-123 -117 -123 -241zM51 965q0 111 117 225q92 92 129 96h76q31 0 133 -49l100 -49l19 14q4 2 10 6 t16 9q12 -2 17 -7l18 -22l-227 -156l-99 58q-70 40 -132 40h-3q-100 0 -100 -92q0 -29 8 -47l10 -45q0 -31 -8 -39l-29 -4q-47 0 -55 62zM80 502q0 129 86 233q92 106 283 238l499 338h31v-25l-14 -14l-7 -17q88 -66 146 -165q59 -102 59 -205v-70q0 -47 6 -65l13 -25 q2 -16 3 -27.5t1 -17.5v-86q0 -8 -4 -25l12 -16l8 -16v-62q0 -133 15 -184q20 -86 83 -86v-31q-16 -47 -75 -113q-25 -29 -74 -61q-154 68 -154 205v166l-8 4q-2 0 -4 2q-6 8 -6 26l-6 39v31q2 18 6 23h-21q-37 -16 -71 -56l-76 -88l-115 58q-123 59 -194 59q-37 0 -64 -37 q-6 -14 -37 -35q-23 6 -28 35q0 25 90 115q106 102 158 102l331 -104l6 233q-14 82 -61 187q-57 137 -117 137q-27 0 -102 -86q-119 -131 -189 -262l-88 -166q-59 -115 -59 -223v-185l-29 -90q-29 -90 -77 -90q-23 0 -41 12q-10 18 -15 37q0 8 41 84q10 16 15.5 31.5 t7.5 28.5q0 6 -82 112.5t-82 196.5zM242 936q0 78 86 78q47 0 104 -29q-51 -35 -94 -67.5t-80 -65.5l-6 35q-10 22 -10 49zM616 668q64 116 175 235q29 29 47 48.5t30 27.5q2 -6 11 -23q23 -51 37 -96t22 -88l-6 -201l-305 99q-4 0 -5 -1t-6 -1z" />
<glyph unicode="B" horiz-adv-x="1671" d="M51.5 894.5q22.5 -30.5 50.5 -46.5l74 -72q16 -16 35.5 -26.5t36.5 -10.5h86h12q8 0 19 2l61 -61l-6 -18l-2 -82q8 -14 8 -27l-8 -168q-2 -25 -66 -61q-70 -43 -102 -64l-33 -20q-78 -59 -78 -131q0 -45 13 -60h-2l6 -6l2 -2q2 0 4 -2t10 -6l94 -92q8 -8 45 -9 q29 0 64 80q31 63 86 64h61q72 0 166 -47l186 -97q94 -49 164 -49h54q160 0 354 205q194 206 194 367v2q0 96 -79 176l-54 51q-23 35 -65 76l-74 43q16 8 37.5 19.5t46.5 23.5q49 23 53 57v2l4 23l-6 35l-94 94l-2 14q-12 0 -25 6q-10 14 -22 26.5t-23 24.5l-37 35 q-45 61 -88 97q-91 71 -205 71h-3q-74 0 -144 -24q-109 -37 -172 -82l-280 -189v2q-156 -102 -207 -102h-2l-39 39q-16 41 -60 41q-71 -12 -71 -61q0 -30 22.5 -60.5zM49 954q0 31 55 41q29 0 39 -41q8 -39 58 -39q61 0 219 105l280 188q61 43 166 78q70 25 138 25 q106 0 196 -68q49 -37 109 -125q43 -66 80 -67l4 -21l-4 -22q0 -27 -46 -47q-123 -61 -141 -80l234 -144q88 -80 88 -178q0 -156 -191 -358q-190 -201 -344 -201h-53q-63 0 -158 47l-186 96q-96 49 -172 50h-62q-63 0 -98 -72q-31 -72 -51 -72q-31 0 -35 4q-14 12 -14 56 q0 63 71 116q6 4 40 23.5t94 56.5q70 43 73 78l8 170q0 20 -8 35l2 65l11 27q-12 14 -13 27v12q-4 16 -6 22q-8 20 -53 31q-39 8 -55 29v37q96 0 186 51l190 106h17v-41q-47 -47 -55 -106v-350q0 -20 28 -56q12 -14 15 -28q0 -10 -43 -35q-14 -8 -29 -15.5t-31 -17.5h90 q49 0 154 -55l229 -121h68q41 0 110 76q88 90 88 184q0 90 -137 178q-131 84 -221 84q-82 0 -119 -43q-12 -12 -43 -78q-18 -43 -55 -43q-16 0 -29.5 14.5t-13.5 26.5q0 70 180 207q55 41 114.5 81t125.5 77q-29 74 -78 123q-60 65 -121 65h-2h-86q-47 0 -180 -69l-246 -127 q-133 -70 -199 -70h-86q-16 0 -32.5 9t-30.5 24.5t-23.5 32t-9.5 32.5zM541 569h2h-2zM778 395v86l51 -51q18 -18 39 -18q47 0 68 51q33 66 41 74q32 38 104 38h4q84 0 213 -81v-2q2 0 2 -3q20 -29 21 -59q0 -88 -82 -170q-63 -70 -96 -70h-64l-225 119q-10 4 -19.5 10.5 t-19.5 10.5l-12 18l-2 2q-23 25 -23 45zM778 698v47q8 53 56 101v61l-37 37q119 61 161 62h86q16 0 41 -11q8 -12 15.5 -25.5t15.5 -27.5q-63 -39 -119.5 -77t-105.5 -72q-72 -53 -113 -95zM1546 647l10 -12q-2 4 -10 12z" />
<glyph unicode="C" horiz-adv-x="1292" d="M31 547q0 -98 73 -223v2q41 -72 90.5 -129.5t108.5 -102.5l33 -31q23 -23 44 -42t46 -35q139 -102 305 -103q160 0 291 84q33 20 67.5 51t75.5 72q96 100 97 162v2q-2 12 -4.5 20.5t-8.5 14.5q-4 8 -6 10l-4 2q2 0 2 -2h2l-84 82l-4 8t-6 8q-14 20 -43 21 q-10 -8 -17.5 -15.5t-15.5 -13.5q-12 -10 -27.5 -22.5t-48.5 -38.5q-96 -78 -163 -78h-86q-72 0 -199 63q-78 37 -137 90q-90 126 -90 259q0 135 96 239q98 106 231 107q82 0 217 -70l-6 -20q-10 -31 -10 -89q-10 -10 -10 -28l12 -72h12l97 -96h75v86q0 70 62 186 q0 4 82 131q73 115 73 135q0 12 -12 25l-84 84q-4 16 -17.5 27.5t-33.5 21.5q-25 -12 -47.5 -26.5t-42.5 -30.5l-115 31q-107 28 -170 28h-4q-176 0 -410 -178q-59 -45 -107 -96t-87 -111q-92 -141 -92 -268v-131zM51 547v131q0 117 90 256q76 119 189 203q229 174 397 174 q57 0 168 -29l125 -33q31 25 86 56q12 -6 21.5 -13.5t9.5 -17.5q0 -12 -72 -127q-84 -133 -86 -141q-59 -115 -59 -185v-71h-50l-10 55q0 6 6 12l4 4q0 59 11 90l20 58q0 16 -123 82q-137 73 -229 73h-2q-141 0 -242 -110q-100 -109 -100 -250q0 -145 102 -279 q88 -117 234 -190q127 -66 207 -66h86q74 0 176 84q51 41 76 63l26 21q14 0 23 -14q6 -4 10 -29q0 -57 -92 -151q-80 -82 -142 -121q-131 -82 -282 -82q-160 0 -297 100q-125 90 -209 236q-72 125 -72 211z" />
<glyph unicode="D" horiz-adv-x="1492" d="M31 154l6 -41q16 -20 31 -23l84 -84q14 -14 30 -14q45 0 64 59q25 70 33 84q27 43 86 43q78 0 155 -69l4 -5l154 -141q86 -80 192 -80h54q111 0 250 109q102 80 155 158q51 74 92 196q41 127 41 207v133q0 188 -139 338l-55 53q-10 14 -20.5 26.5t-22.5 26.5 q-141 152 -332 152h-223l-133 -8l-170 -21q-23 0 -31 2l-33 33q-23 43 -41 43q-66 0 -104 -67v2q-37 -55 -37 -123q0 -82 72 -123q2 -2 10 -6l63 -64q14 -14 33 -26q6 -4 13 -9.5t16 -9.5q-10 -2 -19 -2h-16h-55q-25 0 -45 -20l-5 -19q6 -35 35 -45l86 -86q0 -2 4 -6 q6 -31 6 -72v-120q0 -78 -67 -129l-127 -101v2q-94 -70 -94 -153zM51 156q0 70 76 127l137 108q76 57 76 144v120q0 168 -94 181q-35 2 -37 24l4 14q8 8 25 9h55q63 0 141 37l164 77q14 0 18 -24q-4 -8 -6 -10t-24 -27q-23 -23 -23 -53v-330q0 -23 15 -43q4 -8 10 -14.5 t10 -14.5q0 -8 -57 -28q-66 -29 -92 -64l28 -2l74 -2q70 -2 131 -55l121 -105q63 -57 133 -57q113 0 209 139q90 127 90 246v53q0 156 -98 283q-104 139 -256 139h-222l-71 -12l-99 -12h-161q-66 0 -123 34q-63 39 -64 105q0 53 35 110q33 57 86 58q10 0 21 -23 q14 -55 86 -55l170 20l131 9h223q182 0 317.5 -145.5t135.5 -328.5v-133q0 -76 -41 -202q-41 -121 -91 -193q-51 -76 -151 -154q-137 -106 -242 -106h-53q-100 0 -182 76l-154 141q-84 78 -170 78q-66 0 -98 -49q-4 -8 -13.5 -29.5t-21.5 -58.5q-16 -49 -49 -49 q-14 0 -23 12zM680 451v329q0 25 18 43q16 18 21.5 24.5t9.5 14.5h2l2 2q-2 25 -14 37l43 10h221q72 0 139 -39q92 -121 92 -266v-53q0 -55 -22.5 -114.5t-63.5 -119.5q-94 -131 -192 -131q-61 0 -119 52l-121 104q-8 4 -10 8q29 17 29 33q-4 0 -4 4q-6 6 -11 14l-2 3 q-4 4 -4 8l-2 2q-12 14 -12 35zM696 899h2l35 -35z" />
<glyph unicode="E" horiz-adv-x="1267" d="M31 588q0 -180 149 -369q35 -43 71 -78t71 -63l30 -29q84 -86 180 -131q72 -35 136 -35h123q117 0 276 135h-2q158 129 158 242v8l-2 45q-2 4 -7 9l-90 90v8q-16 25 -55 24l-119 -125q-47 -49 -108 -49h-185q-90 0 -190 60q-43 23 -90 63q-2 4 -2 15q0 37 37 62.5 t82 25.5q20 0 69 -17q43 -14 70 -14h61q72 0 133 102q57 90 58 162v57l-97 97v12h-71q-35 -84 -96 -84q-27 0 -54 6l-75 17h-95q-18 0 -33.5 -4.5t-31.5 -10.5q10 16 25.5 32.5t33.5 35.5q88 88 158 88h119q31 0 135 -41q98 -39 158 -39q80 0 178 82t98 164v4l-8 33 q-2 6 -10 14l-86 84v6q-16 31 -48 31q-16 -2 -32 -19v2q-49 -51 -80 -51q-35 2 -125 43q-104 43 -137 43h-78q-51 0 -114.5 -21.5t-135.5 -68.5q-113 -70 -164 -129q-33 -41 -64.5 -91t-60.5 -116q-63 -135 -63 -231v-86zM51 588v86q0 88 62 223q29 63 58.5 112.5t61.5 88.5 q23 27 63 58.5t99 66.5q139 88 238 88h78q29 0 129 -41q49 -20 82.5 -31.5t50.5 -13.5q41 0 84 47q14 16 30 20q18 0 25 -12l8 -37q0 -78 -92 -153q-94 -78 -170 -78q-53 0 -151 39q-104 41 -142 41h-119q-74 0 -167 -93q-106 -100 -107 -223v-108q0 -53 43 -80q0 76 55 149 q55 76 127 76h90l76 -16q27 -6 58 -6q74 0 108 83h39v-43q0 -66 -55 -153q-59 -96 -121 -96h-62q-23 0 -65 14q-49 16 -74 16q-49 0 -91 -29.5t-42 -72.5q0 -37 82 -111q33 -29 61.5 -50t53.5 -38q100 -61 202 -61h185q70 0 123 55l112 119q18 0 27 -14l2 -39v-8 q0 -103 -152 -232q-156 -131 -266 -131h-123q-57 0 -129 33q-127 59 -239 198q-145 186 -146 357z" />
<glyph unicode="F" horiz-adv-x="1261" d="M29 1241q0 -51 61 -84l72 -70q18 -20 53 -34q29 -18 66 -31v-162q6 -31 20 -39v-669l-10 -21l-21 -55v-96h13l96 -97h49q20 8 35 13q4 2 10 2l39 10h70l36 -8h3l41 -11q16 2 28 6.5t23 10.5l16 22l-45 78q-16 33 -16 115v291q0 27 55 57q31 16 54.5 24.5t41.5 8.5h4 q4 -4 7.5 -5t7.5 -3l88 -86q10 -10 28 -11q23 0 101 129l80 131l-11 15l-86 84l2 2l-14 20q-14 10 -25.5 17.5t-21.5 9.5h-176q-72 0 -121 -37v2l-20 -16v250q0 36 108 36h6q16 0 43 -7t62 -17v-19l4 -41h12l96 -96h56q39 49 106 162q33 53 52.5 84t25.5 47l-2 16l-96 95v10 l-21 20l-35 15l-37 -25l-81 31q-49 16 -115 16h-92q-78 0 -231.5 -55t-215.5 -55q-129 0 -229 67q-49 -6 -49 -47zM49 1241q0 23 25 27q100 -68 233 -68q68 0 221.5 55.5t225.5 55.5h92q59 0 108 -17l90 -32l37 24l21 -8l16 -16q-4 -10 -23.5 -43t-54.5 -86 q-33 -53 -58.5 -92.5t-43.5 -63.5h-35l-2 22v21l2 24q2 39 -94 78q-92 35 -135 35q-129 0 -129 -51v-457h16l123 96q47 39 119 39h174q14 -2 31 -16l6 -8l-74 -123q-74 -123 -88 -123q-25 0 -31 33q-12 71 -101 71h-3q-37 0 -103 -34q-63 -33 -63 -70v-291q0 -88 18 -121 l41 -71l-8 -11q-20 -12 -41 -14l-39 10l-41 9h-75l-39 -11q-4 -2 -16.5 -5t-28.5 -9h-31v70l20 55l11 22v689l-11 4q-8 8 -10 24v223q-49 20 -95 40t-87 40q-70 33 -70 74z" />
<glyph unicode="G" horiz-adv-x="1497" d="M31 612q0 -274 266 -489l29 -29q23 -25 50 -47t56 -45q61 -45 118.5 -72.5t113.5 -38.5l49 -8h118q141 0 359 162q229 172 264 322l12 55v137q0 45 -45 111q-16 23 -30.5 42t-30.5 36l-55 55q-14 18 -28.5 33.5t-29.5 29.5q-16 14 -33.5 26.5t-39.5 22.5q10 16 25.5 34.5 t31.5 43.5l100 135q0 20 -14 35l-86 84q-6 20 -21.5 30.5t-31.5 16.5q-12 0 -20.5 -7t-18.5 -19q-4 -4 -7.5 -8.5t-7.5 -8.5l-86 39q-90 41 -155 41h-99q-35 0 -127 -28q-287 -90 -454 -277q-61 -68 -116.5 -197t-55.5 -217zM51 612q0 80 53 209q55 129 113 191 q162 180 447 270q92 29 120 29h99q61 0 147 -39l92 -41q12 0 26.5 21.5t22.5 21.5q14 -4 28.5 -13.5t14.5 -23.5l-98 -133q-98 -133 -98 -150q0 -12 37 -20q113 -27 178 -82q39 -35 74 -88q43 -66 43 -102v-134l-13 -55q-35 -145 -258 -313q-215 -160 -350 -160h-117l-49 8 q-102 18 -225 109q-287 219 -287 495zM217 754q0 -186 223 -383q211 -186 394 -187h73q74 0 156 82q84 84 84 156v80q0 68 -78 174q-68 92 -119 106l-16 -24l-8 -23h-43l-17 15v47l17 18v19l-41 12l-25 6h-61l-39 -31q-29 -23 -29 -63q0 -35 33 -62l14 -12q2 2 15.5 12.5 t42.5 14.5q25 0 24 -37q0 -18 -29 -47q-57 -45 -81 -82l-74 -109q-20 -23 -37 -26l-27 4l-6 10l6 14q-6 6 -6 13l8 26q-16 10 -45 60l-34 57v98q41 86 67 121q53 72 146 107q23 8 59.5 16t89.5 16q80 12 102 35v25l-131 53q-135 55 -204 55h-62q-113 0 -227.5 -127 t-114.5 -239zM334 651q0 106 110.5 229.5t217.5 123.5h61q25 0 58.5 -8.5t76.5 -22.5h-6q-57 -8 -94 -16.5t-60 -16.5q-47 -18 -86 -46t-69 -69q-14 -18 -32.5 -51t-39.5 -78v-110l37 -62q10 -18 19.5 -30.5t19.5 -22.5l-4 -14q0 -6 4 -19l-8 -18l14 -25l14 -2l95 -94l36 -6 q23 4 50 35l73 106q27 39 88 88q25 25 25 49q0 29 -12 41l-86 84l-7 13l27 22l18 -16h5l75 -74l25 -23h59l11 29l2 4l4 8q35 -47 53 -85.5t18 -71.5v-80q0 -63 -77 -141q-76 -76 -142 -76h-73q-174 0 -379 180q-8 6 -14.5 11t-12.5 12q-94 125 -94 243z" />
<glyph unicode="H" horiz-adv-x="1462" d="M31 1260q0 -29 84 -95l53 -53q2 -4 5 -7l7 -7q18 -29 19 -49v-891q-27 -70 -49 -97v-6q-4 -4 -5 -6q-2 -4 -3 -8l-1 -4q6 -37 19 -43l18 -6l92 -92l31 -13l39 19q25 12 41 12h100l49 -14l48 -11l34 5q18 8 19 38l-43 68l-2 2q-16 23 -17 43v518q0 45 115 105 q111 53 170 53q55 0 113 -29q37 -55 37 -119v-282q0 -127 63 -215q41 -53 76 -76l65 -66q59 -59 123 -59q78 10 78 55q0 12 -14 27l-84 80q0 4 -2 8l-4 8l8 6l18 13q4 4 8 6t9 6l2 2q82 63 82 170v92q0 170 -140 326l-6 4q-4 4 -8 10t-8 10l-45 43q-8 10 -15.5 19.5 t-15.5 19.5q-164 182 -397 183q-47 0 -96.5 -11.5t-100.5 -33.5l-18 -13v127q41 14 69.5 23.5t44.5 13.5h2q100 23 115 23h49q51 0 185 -76q135 -80 167 -80q20 2 34 7t20 11q16 27 16 60q0 55 -53 108l-66 64q-20 33 -69 74q-85 67 -162 67h-2h-78l-78 2h-24l-392 -82h-63 q-37 0 -111 31q-8 4 -14 6t-10 4t-17 6q-4 2 -8 2q-2 0 -6 2q-12 4 -21.5 8.5t-17.5 8.5q-16 0 -31.5 -5t-25.5 -16zM51 1257l4 29q8 8 33 8q27 -10 52.5 -20t52.5 -21q59 -26 101 -26h3h70l389 82h20l78 -2h78q70 0 151 -64q84 -61 84 -127q0 -29 -12 -49q-12 -12 -45 -14 q-25 0 -158 77.5t-192 77.5h-49q-16 0 -119 -22q-16 -4 -48 -13.5t-79 -25.5v-340l156 98q82 37 176 37q225 0 383 -176q135 -152 135 -315v-93q0 -100 -78 -159q-6 -4 -15.5 -10.5t-19.5 -14.5l-35 -27q20 -51 78 -75q43 -18 47 -41q0 -29 -65 -39q-72 0 -144 96 q-59 84 -59 203v282q0 102 -86 183q-82 82 -186 82q-66 0 -177 -56q-123 -61 -122 -116v-519q0 -25 20 -53l41 -63q0 -16 -10 -21l-29 -4l-39 8l-53 17h-104q-20 0 -48 -15l-32 -16l-21 8q-14 10 -16 29q2 4 5 9t3 7q23 25 49 94v902q0 61 -84 126.5t-84 81.5z" />
<glyph unicode="I" horiz-adv-x="1200" d="M31 201q0 -2 1 -4t1 -4q4 -10 5 -16.5t13 -18.5l15 -8l90 -89l26 -12q12 0 140 -82q125 -84 194 -84h135q51 0 144 49q248 131 288 340l7 31l2 33v6q0 6 -3.5 14.5t-7.5 18.5l2 -2l-10 28v574q0 51 29 96l67 94q0 33 -14 47l-88 86q-8 33 -49 33l-164 -61 q-84 -31 -129 -31h-176q-39 0 -174 47l-131 45q-29 -6 -111 -100q-10 -10 -19.5 -21.5t-15.5 -19.5q-8 -8 -10 -12q-6 -8 -9 -11.5t-7 -7.5q-6 -6 -12.5 -14t-10.5 -15l-4 -8q0 -39 25 -53q6 -10 18 -12l78 -78q2 -4 10 -8q4 -6 23 -13q16 8 20 13l12 6l2 2q2 0 5 2 q10 8 24 12l250 -80h141l49 -49l11 -8q2 -10 3 -19.5t1 -21.5v-547q0 -70 -51 -114q-41 -41 -82 -41q-49 0 -99 37q-35 49 -34 77q18 37 36 49q-4 29 -12 37l-88 86q-8 35 -47 35q-25 0 -154 -104v2q-47 -35 -85 -67t-70 -64zM53 195q25 23 58.5 50t76.5 62q131 106 152 107 q27 0 31 -31q-14 -12 -37 -53q0 -39 76 -129q90 -109 174 -109q45 0 96 47q57 51 57 129v547q0 88 -39 109l-77 47q27 33 65 47q76 27 86 49l10 10h15q47 0 61 64l-172 -82q-61 -29 -151 -29h-121l-250 80q-16 0 -39 -16q-2 -2 -6 -4.5t-13 -6.5q-2 -2 -10 -6q-10 2 -14 8 q-16 10 -16 31q4 8 9 15.5t9 11.5q4 6 20.5 24.5t42.5 49.5q80 92 95 94l127 -45q135 -47 180 -47h176q51 0 135 30l164 62q29 0 29 -37l-66 -92q-31 -47 -31 -105v-577l11 -29q10 -20 8 -33l-2 -28l-6 -33q-37 -201 -281 -330q-90 -47 -137 -47h-135q-61 0 -187 82 q-127 84 -145 84l-19 8q-6 6 -10 21z" />
<glyph unicode="J" horiz-adv-x="1212" d="M31 1243q0 -88 88 -143l63 -62q20 -20 51 -39q74 -43 164 -43h58q14 0 40.5 4.5t73.5 10.5q4 0 9.5 1t9.5 1l94 14q-63 -45 -64 -57q0 -23 44 -47l61 -62q0 -68 -6 -104l-8 -51v-420q0 -127 59 -228v-51q0 -66 -74 -117q-70 -51 -139 -51h-55q-53 0 -111 43 q-16 27 -22.5 54.5t-6.5 56.5q0 111 56 233l18 37q4 10 8 17.5t9 17.5q18 35 31.5 60.5t23.5 43.5q6 10 9 18.5t7 12.5q59 100 60 162v92q0 39 -37 80l-80 80q-8 10 -18.5 21.5t-22.5 23.5l-45 29q-61 -31 -62 -60q0 -14 39 -61q31 -37 31 -64q0 -70 -57 -178l-109 -199 q-59 -104 -59 -190v-129q0 -70 76 -164l69 -88q6 -4 13.5 -10t15.5 -10l78 -78q104 -82 276 -82q326 0 418 237l25 89q0 53 -31 167l-33 123v703q0 57 51 100q20 16 33.5 29.5t24.5 23.5l4 9q0 43 -37 79l-72 72q-33 59 -125 94v-4q-96 39 -166 39q-96 0 -200 -45 q-10 -4 -27 -12q-35 -16 -55 -25q-12 -4 -21.5 -8t-15.5 -8q-25 -12 -41 -18.5t-23 -8.5q-104 -43 -139 -43h-22t-21 2q-4 10 -9 17.5l-9 13.5l-82 80q-18 37 -37 37q-29 0 -45 -23zM51 1241l4 39q6 10 25 10q14 0 41 -76q27 -73 136 -73h3q37 0 141 43q14 2 70 28 q14 8 43 20.5t76 33.5q104 43 192 43q74 0 166 -39q117 -47 117 -119q-12 -14 -55 -51q-57 -45 -58 -111v-706l33 -123q31 -115 31 -160l-23 -80q-92 -235 -402 -235h-3q-170 0 -266 77l-70 86q-70 84 -70 152v129q0 80 58 182l108 199q59 109 60 186q0 37 -35 78 q-35 45 -35 47q0 16 37 35l45 -27q45 -39 45 -79v-93q0 -53 -57 -153q-6 -12 -24.5 -46t-47.5 -91q-8 -16 -16.5 -34t-18.5 -38q-57 -123 -57 -240q0 -113 98 -200q82 -76 158 -76h55q78 0 152 55q82 57 81 133v62q-59 102 -59 217v418l8 51q6 39 6 116q0 35 -53 60 q-51 25 -51 39q0 6 90 61q16 10 43 26.5t62 37.5q-12 20 -84 37l-66 12h-104l-97 -14q-55 -8 -88 -12.5t-43 -4.5h-57q-86 0 -158 41q-86 45 -86 127z" />
<glyph unicode="K" horiz-adv-x="1474" d="M31 1249q0 -51 51 -80l78 -75q20 -20 61 -33q43 -14 84 -25v-848l-5 -14t-13 -37q-2 -4 -3 -10t-5 -12l-29 -68q0 -39 24 -57h9l96 -96l33 -5l51 13q20 4 41.5 7t46.5 3q33 0 47 -8l70 -21q53 0 53 39q0 16 -35 72q-31 51 -31 80v469q25 20 84 32h2l23 3q27 -43 47 -98.5 t37 -121.5l37 -151q39 -84 127 -172l26 -27q12 -12 27 -18l80 -80q27 -27 63 -27l105 78q110 81 110 102q0 10 -6 17l-4 2q2 0 2 -2h2l-90 90q-6 29 -84 45h-8l-43 133q-33 98 -56.5 156.5t-37.5 81.5l-84 84l-6 12l163 84q154 80 154 205q0 59 -20 86l-35 35q12 16 35 16 h90q31 8 45 39l2 6q0 31 -17 47l-86 84q-14 47 -94 47q-129 0 -207 -108l-168 -226q-82 -109 -215 -194v168q0 72 35 101.5t117 29.5v39q0 25 -16 41l-84 84q-16 41 -86 53l-74 12q-123 0 -346 -86q-27 2 -68 27v-2q-12 4 -35 4l-16 16l-2 15l-39 -15q-10 -16 -10 -41z M51 1249q0 14 6 25l23 8q-4 0 43 -28.5t88 -28.5q223 86 334 86l73 -13q72 -12 72 -55v-24q-82 0 -116.5 -33t-34.5 -113v-336h41q201 104 307 248l168 225q76 100 190 101q80 -1 80 -56q-10 -23 -37 -30h-86q-37 0 -53 -35l41 -39q18 -25 18 -78q0 -115 -145 -192l-182 -95 l102 -106q27 -43 92 -234l62 -184q27 -55 104 -67q66 -12 66 -29q0 -14 -105 -90l-102 -76q-25 0 -47 23l-27 26q-86 86 -119 158l-39 158q-49 201 -143 301q-25 25 -59 28l-29 -2q-63 -12 -98 -41v-475q0 -35 32.5 -88t32.5 -63q0 -25 -35 -25l-67 20q-14 8 -53 9 q-47 0 -93 -11l-49 -12l-24 4q-12 8 -13 33l27 63q29 70 29 82v867q0 57 -72 86q-23 6 -55.5 15t-75.5 22q-72 23 -72 71z" />
<glyph unicode="L" horiz-adv-x="1394" d="M33 1153q0 -23 37 -41l82 -82q8 -12 30 -18q2 -6 2 -21v-882q-18 -10 -43 -13q-51 -12 -51 -61l4 -31q4 -10 11.5 -14t17.5 -8h2l86 -86q8 -8 18 -11l27 11h127l92 12q45 6 133 6h467l221 -31q66 0 66 58q0 12 -5 29.5t-18 39.5q-41 88 -41 133l2 232v6q0 123 -116 240 l-47 45q-25 35 -54 63h-63v-65q41 -59 41 -105v-63q0 -10 -2 -21q0 -2 -2 -2q-10 -41 -14.5 -73.5t-6.5 -61.5l-4 -94v-2l-4 -25l-65 45q-59 41 -132 41q-109 0 -213 -67q-41 -27 -65 -41v694q0 235 221 235h2q51 0 94 -18l99 -43q61 0 61 51q0 20 -20 41l-78 78 q-16 43 -98 74q-23 8 -44.5 14t-37.5 10h-170q-10 0 -56 -12q-6 -2 -13 -3t-15 -5q-6 -2 -13.5 -4t-15.5 -4l-164 -48l-176 -38q-96 -23 -96 -64zM53 1153q0 25 82 43l176 39l164 47q104 29 107 29h163q16 -4 38 -10.5t44 -14.5q86 -31 86 -69q0 -37 -45 -37l-94 41 q-43 20 -100 20q-238 0 -238 -250v-872h25q43 16 170 98q102 66 200 66q63 0 119 -37l94 -64l9 60l4 96q4 49 20 127q2 10 3 17t1 14v63q0 53 -41 113v37h35q111 -113 109 -232l-2 -231q0 -51 43 -140q20 -38 20 -63q0 -43 -49 -43l-221 31h-469q-90 0 -135 -6l-92 -13h-132 l-6 -4l-14 -6q-10 4 -12 8l-4 27q0 33 39 39q39 8 55 18v897q0 59 -39 92q-23 20 -74 43q-39 14 -39 27z" />
<glyph unicode="M" horiz-adv-x="2000" d="M33 965l4 -39q0 -6 4 -11q6 -12 25 -30h8l96 -97h35q-117 -125 -148 -247q-2 -10 -3 -20.5t-3 -18.5q0 -4 -1 -8.5t-1 -8.5t-1 -6t-1 -4v-57q0 -129 129 -223l55 -54q10 -12 21.5 -22t26.5 -21l-11 -47q8 -51 49 -67l82 -82q18 -18 47 -19q23 0 43.5 30t20.5 54v74 l-35 172v182q0 53 41 158h-2q33 80 80 149q16 29 48 66t75 86q41 47 68.5 74.5t43.5 38.5v-799q0 -27 -18 -57l-47 -76q6 -33 33 -43v-2q4 0 6 -2l84 -84q8 -8 14 -10h2q4 -2 10.5 -3.5t16.5 -1.5l47 7l53 16h70q14 0 30 -6q27 -4 45.5 -7t32.5 -3h35v57l-49 67l-2 3 q-16 31 -16 90v675l155 146l23 -25q61 -66 119.5 -137.5t113.5 -148.5q121 -170 121 -242q0 -35 -13.5 -68.5t-35.5 -66.5q-37 -53 -80 -68q-4 25 -12 37l-88 86q-12 33 -45 33q-12 -2 -125 -119l-111 -115q0 -18 11.5 -36.5t35.5 -30.5l80 -78q4 -4 11 -9t16 -9l22 8l25 10 l41 -27q46 -32 68 -32h1h70q129 0 264 210q125 193 125 326v62q0 145 -151 319l-193 221l-162 176l-8 7l-92 102q-90 0 -172 -111q-29 -41 -51.5 -69.5t-38.5 -51.5q-8 8 -10 15l-58 55q-29 41 -67 76q-23 23 -59 48.5t-83 53.5l-47 -41q-35 -49 -65 -75l-25 24 q-8 33 -47 33q-29 0 -51 -23q-4 -4 -4 -6l-92 45q-53 27 -80 27h-86q-123 0 -207 -121q-45 -59 -65.5 -117.5t-20.5 -115.5zM53 967q0 111 82 219q81 112 189 112h2h86q18 0 71 -24l103 -49q10 6 18 16q14 14 35 14q31 0 31 -30l-25 -29l-90 -78l-66 -65q-4 -4 -9 -8.5 t-13 -10.5q-4 -4 -10 -6q-90 90 -199 90q-61 0 -108 -41q-33 -39 -33 -67v-105h-43q-8 8 -11.5 13.5t-5.5 9.5zM68 418v51q2 10 4 26.5t6 39.5q47 184 303 383l84 65l149 123l99 88q20 16 39.5 38.5t40.5 49.5l32 29q78 -45 115 -82q119 -98 119 -195h18q14 10 46 51t83 111 q74 102 148 102l157 -172l193 -221q147 -170 147 -309v-61q0 -127 -122 -318q-131 -205 -252 -205h-70q-16 0 -61 31l-48 31l-30 -13l-19 -6q-31 14 -30 37l104 109q106 109 117 112q20 0 24 -41q2 -68 11 -77q16 -41 71 -41q74 0 129 79q53 72 54 148q0 80 -125 254 q-55 78 -113.5 149.5t-122.5 139.5l-131 141l-178 -168v-682q0 -61 20 -100l47 -66v-37h-20q-14 0 -32.5 3t-45.5 8q-16 6 -31 6h-73l-56 -17l-43 -6q-8 0 -20 4q-16 2 -19 19l43 69q20 33 21 70v811q0 12 -49 59q-45 47 -62 52q-29 0 -135 -123q-45 -51 -76.5 -89 t-48.5 -65q-45 -68 -80 -151q-41 -104 -41 -164v-185l35 -172v-71q0 -20 -16.5 -45t-32.5 -25q-47 0 -55 49l12 45l6 35q0 12 -61 47q-178 98 -178 242zM233 817v90q0 23 29 58q42 36 95 36h3q20 0 39 -4t37 -10l-67 -53q-78 -59 -136 -117z" />
<glyph unicode="N" horiz-adv-x="1392" d="M33 1083l6 -49l14 -2l94 -94l35 -6h4l4 -35l-2 -29l-2 -59h13v-580l-13 -24l-2 -23l2 -30l-2 -9l-4 -14l-22 -23q-6 -10 -17 -24q-4 -10 -10 -20.5t-2 -6.5q10 -43 41 -53l86 -86q14 -14 39 -14l55 18q37 12 39 12h49l133 -30q8 4 14.5 6t10.5 6h2l25 27q-70 70 -70 133 v768q170 145 207 145q35 0 76 -20q8 -10 14 -20.5t14 -20.5q41 -70 61.5 -133.5t20.5 -126.5v-404q0 -113 70 -201q35 -45 65 -61l68 -68q49 -49 104 -49q47 0 66 29l18 25q-4 14 -20 30l-78 76q-10 29 -57 63v9q4 12 22 18l51 19q23 18 41.5 42.5t32.5 57.5q31 74 31 121 v184q0 47 -23 94l-18 45l2 -2l-35 125q-59 150 -156 248l-40 41q-123 164 -330 219l-258 -190q-10 16 -19.5 28.5t-19.5 24.5l-64 61q-39 57 -86 84l-196 -159q-84 -66 -84 -93zM53 1085q0 14 76 76l186 150q41 -18 80 -88l56 -150l311 232q283 -76 409 -394l33 -118l19 -45 q20 -47 20 -89v-184q0 -45 -29 -115q-27 -61 -63 -92l-53 -18q-29 -8 -33 -31q0 -61 76 -113q74 -47 78 -63l-15 -20q-16 -23 -53 -23q-61 0 -119 74q-66 84 -65 188v404q0 129 -84 272q-98 166 -226 166q-45 0 -221 -152v-776q0 -70 64 -133l-15 -16q-2 -4 -16 -9l-129 31 h-53q-6 0 -43 -12l-56 -19q-29 0 -36 37q2 6 8 15.5t14 23.5l27 27l4 14l2 17l-2 28l2 21l12 24v604h-12l2 39l2 31l-4 35h12q0 43 -18 84q-23 49 -62 49q-6 0 -61 -18l-21 4z" />
<glyph unicode="O" d="M33 612q0 -236 178 -434q43 -49 92 -86l39 -39q170 -170 385 -170q154 0 295 146q53 53 100 121.5t88 152.5q72 141 72 238v114q0 139 -96 279q-49 72 -103 125l-20 20q-86 115 -207 191q-92 61 -176 61h-102q-125 0 -267 -129q-53 -51 -100 -106.5t-86 -120.5 q-16 -51 -29.5 -90t-19.5 -60q-27 -80 -31 -96q-12 -55 -12 -117zM53 612q0 55 13 111q4 16 30 96q6 20 18.5 56t28.5 88q41 66 86 122t97 103q135 123 252 123h102q70 0 164 -60q137 -86 227 -223q94 -137 94 -270v-115q0 -92 -69 -231q-80 -164 -187 -271 q-139 -141 -284 -141q-225 0 -400 193q-172 193 -172 419zM221 709q0 -72 78 -199q121 -195 262 -277q84 -47 135 -47h68q106 0 194 131q18 27 70 134v155q-78 219 -180 316l-100 94q-102 96 -207 96h-103q-68 0 -143 -88q-74 -90 -74 -158v-157zM338 606v158q0 63 68 147h2 q72 84 133 84h102q82 0 170 -69l21 -19q96 -90 174 -309v-143l-13 -25q-18 -39 -31.5 -64.5t-21.5 -35.5q-84 -123 -178 -123h-68q-43 0 -127 45h2q-47 27 -94 67q-35 43 -63 97q-76 127 -76 190z" />
<glyph unicode="P" horiz-adv-x="1728" d="M31 1036q0 -84 67 -118l76 -76q8 -8 17.5 -13.5t19.5 -11.5q55 -31 131 -31q10 -20 31 -22l86 -86v-6v-303l-101 -52q-108 -54 -108 -163q0 -47 33 -60l88 -86q12 -12 41 -12q35 0 45 33q0 6 2 8v-234q0 -12 -13 -39l-26 -57q0 -57 39 -69l86 -87q14 -14 41 -14l55 21 q31 10 43 10h6l82 -6l59 -21q45 12 56 49l-51 68l-2 2q-14 35 -15 102v230l121 -74q55 -35 143 -35q117 0 265 129q66 59 125 128t108 153q117 190 117 346v68q0 178 -142 337q-8 10 -15 18.5t-17 18.5l-4 2h2l-41 39q-4 8 -10.5 14.5t-12.5 14.5q-156 180 -366 180h-82 q-150 0 -316 -92q-78 -41 -147.5 -83t-132.5 -83q-100 -66 -152 -80l-84 86v11l-22 14l-47 20q-78 -14 -78 -88zM51 1036q0 55 58 68l22 -10l27 -17v-86l35 -20q14 -2 23 -3t13 -1q63 0 197 88q143 94 276 166q164 90 308 90h82q203 0 352 -174q137 -156 137 -328v-68 q0 -150 -115 -338q-96 -158 -231 -278q-143 -125 -254 -125q-82 0 -135 33l-144 86v-254q0 -74 19 -113l47 -61q-6 -23 -39 -31l-55 18l-84 7q-20 2 -55 -11l-56 -20q-39 0 -39 49l25 53q14 29 14 47v443h-71q-47 -37 -68 -111q-6 -23 -31 -22q-39 0 -39 39q0 98 97 147 l112 57v316q0 98 -82 110q-39 0 -39 33q0 18 17 31q63 20 108 41q2 2 21.5 10t56.5 25q29 12 125 77q63 43 86 43t23 -26l-60 -94q-20 -31 -26 -68v-498l346 -161l49 -2h3q111 0 185 133q63 115 64 237v109q0 178 -154 323q-137 127 -244 127h-137q-33 0 -151 -55l-238 -111 q-117 -53 -192 -53q-72 0 -125 29q-63 33 -64 104zM825 324v428q4 14 9.5 28.5t15.5 30.5l61 98q0 23 -12 35l-43 41q47 20 68 21h137q76 0 172 -72q102 -121 102 -262v-109q0 -117 -61 -229q-63 -121 -164 -121h-6l-45 2z" />
<glyph unicode="Q" horiz-adv-x="1413" d="M31 301q0 -41 28 -47l91 -88q8 -8 26 -8l25 8h57q33 0 102 -64l9 -6l147 -135q84 -78 199 -78q150 0 293 97q4 -4 6 -9l6 4l98 -98l115 88q51 39 82 70l28 28l-4 46l-96 94v14h-4l82 133q59 135 59 238v53q0 102 -49 213q-25 55 -61 104q-23 31 -46.5 58.5t-47.5 52.5 l-31 31q-66 82 -132.5 133t-131.5 78q-14 4 -36 9t-59 11h-57q-156 0 -352 -151l-74 -70l-47 -49q-43 -23 -92 -35q-96 -29 -96 -68q6 -6 8 -10l10 -10q16 -16 26.5 -25.5t22.5 -19.5q31 -31 31 -45v-369q0 -45 -29 -80q-14 -14 -63 -47q-43 -29 -43 -51zM51 301q0 10 35 33 q47 31 66 51q35 41 34 94v369q0 29 -49 70q-6 4 -15 13t-22 21q-2 2 -5 6.5t-7 8.5q0 18 82 39q57 16 98 38l49 52l72 67q193 147 340 148h55q31 -4 53.5 -10.5t36.5 -10.5q145 -53 281 -237q39 -51 62 -103q47 -111 47 -207v-53q0 -104 -54 -223l-118 -195l28 -39 q31 -41 45 -40h37l23 2l2 -23l-25 -25q-29 -29 -80 -67l-104 -80q-20 27 -35 61q-29 59 -45 62q-158 -123 -326 -123q-109 0 -188 74l-148 135q-80 74 -120 74h-62l-24 -9q-18 0 -19 27zM248 365l28 -9l31 4l45 5q86 0 172 -62l121 -113q63 -61 115 -61q23 0 57 14l57 29v21 l-61 32q-14 8 -49 8h-21q-14 0 -41 -6l-6 21l-10 10q23 35 73 60.5t93 25.5h80q8 0 24 -4l41 -21h27l49 136v229q-55 229 -141 301l-137 115q-76 51 -146 51h-69q-72 0 -172 -80v-479q0 -47 14 -88l29 -62q0 -16 -101 -47zM524 489v474q89 71 156 71h2h70q63 0 137 -49v2 l67 -59q29 -39 51.5 -102.5t45.5 -149.5v-213l-45 -123h-7l-43 20q-16 4 -26 5h-80q-25 0 -52.5 -8.5t-53 -24t-49 -34.5t-38.5 -42l19 -18l10 -35q2 0 3 1t5 1l56 -55q-41 2 -93 55l-116 108q25 14 24 29l-30 66l2 -2q-14 41 -15 83z" />
<glyph unicode="R" horiz-adv-x="1613" d="M31 1006q0 -72 69 -111v2l72 -72q16 -16 35 -26q51 -35 121 -35h20l43 -41v-8v-582q0 -12 -20 -43q-16 -20 -22.5 -34.5t-6.5 -18.5q0 -37 33 -49l88 -88q14 -14 49 -15l76 21q27 8 45 8q39 0 94 -27q10 -2 20.5 -3t24.5 -1q20 0 37 11l20 22q-10 16 -19 32.5t-22 33.5 l-32 38l2 66q0 4 1 13.5t3 19.5v86l-2 59l-4 21q12 39 12 96v78q4 -4 9 -5t9 -3l84 -84q14 -14 33 -15q33 0 72 82l12 27q2 -4 2 -6t2 -6q39 -141 61.5 -218t30.5 -96q43 -115 113 -153l72 -72q45 -45 100 -45v2l-2 2v2h2q10 10 18.5 16.5t14.5 12.5l45 45q16 16 24 22 l78 53q14 8 21.5 20.5t9.5 22.5l2 15l-4 35l-96 94v14h-51l-17 -2q-23 59 -48 147t-54 209l-43 50l-4 4q-8 6 -13 20q229 119 310 211q0 35 -19 53l-78 76l-6 17q-29 57 -72 100l-10 8q2 0 2 -2h2l-45 43q-43 68 -112 113v-2q-91 65 -196 65h-3q-156 0 -307 -94l-275 -170 q-150 -90 -209 -90h-22q-8 0 -18 4l-37 39q-29 53 -64 53q-61 -10 -61 -67zM51 1006q0 41 43 47q25 0 47 -49q23 -47 92 -48q70 0 222 93l274 170q150 92 295 92q96 0 186 -62q94 -59 133 -147l35 -76l33 -10q33 -6 33 -47q-80 -92 -314 -211q10 -27 25 -41l39 -45 q115 -438 166 -471l31 -4l41 4h30l2 -21l-2 -12q0 -18 -24 -33l-78 -53q-8 -6 -27 -25l-45 -45q-8 -10 -31 -26q-2 -2 -4 -2l-2 -2q-84 0 -147 161q-8 20 -30.5 97t-61.5 215q-47 163 -88 163q-27 0 -64 -75q-37 -74 -59 -74q-23 0 -31 18q-4 20 -18 37q25 27 49 51.5 t47 51.5q53 55 117 100q27 18 65.5 44t89.5 60q61 37 64 58q0 66 -56 137q-72 92 -190 92q-111 0 -252 -59q-35 -16 -98.5 -45t-155.5 -70q-139 -63 -207 -63q-61 0 -112 32q-61 37 -62 93zM307 825q0 12 80 41q16 6 42 15.5t58 19.5q160 92 203 92l33 -18l-43 -53 q-29 -35 -29 -78v-361q0 -53 -12 -92l4 -26l2 -58v-78q-2 -12 -3 -22t-1 -19l-2 -69l37 -43q10 -14 18 -27.5t17 -28.5l-13 -12q-14 -8 -28 -8q-12 0 -22.5 1t-20.5 3q-55 27 -97 27q-23 0 -49 -8l-75 -21q-43 0 -44 35q0 6 25 41q25 33 25 55v582q0 49 -52 76 q-49 27 -53 34zM768 571v170q0 39 25 70l53 66l-64 61l13 6q137 57 245 57q51 0 93 -18q29 -47 30 -88q-2 -10 -55 -45q-2 -2 -10 -7t-13 -9v2q-8 -4 -14 -10.5t-14 -10.5q-12 -8 -22.5 -16t-20.5 -15q-18 -12 -33.5 -21t-28.5 -20q-33 -23 -61.5 -47t-56.5 -55 q-16 -16 -32 -33.5t-32 -34.5z" />
<glyph unicode="S" horiz-adv-x="1378" d="M33 348q0 -23 18 -53l12 -21q70 -117 168 -188l41 -41q162 -162 414 -162h129q150 0 276 80t197 217q57 106 58 193v73q0 49 -35 113q-45 86 -97 137l-47 45q-20 31 -42.5 54.5t-47.5 42.5q45 22 84 61q100 100 101 195q0 23 -11 32l-90 88q-6 14 -20 27h2l-25 16 q-16 -6 -29.5 -18t-35.5 -35q-31 -31 -64 -33l-266 109q-121 51 -244 51q-156 0 -286 -125q-131 -121 -132 -278q0 -172 140 -293q10 -10 26 -23l2 -2l17 -18q-8 2 -23 2q-39 0 -73.5 -14.5t-60.5 -40t-41 -59.5t-15 -70v-62zM53 348v62q0 33 14.5 62.5t37 52t53 35.5 t65.5 13q41 0 88 -24q53 -29 54 -68v-18q-123 0 -123 -105q0 -127 131 -208q115 -72 248 -72q139 0 251 94q115 96 115 231q0 106 -80 197q-78 90 -182 90q-74 0 -131 -35q-66 -41 -66 -112h-18q-170 0 -295 106q-133 115 -133 279q0 147 125 264q125 119 272 119 q115 0 236 -49l272 -111q43 0 80 39q41 41 47 43l16 -10q14 -8 15 -27q0 -88 -96 -184q-74 -74 -166 -74q-80 0 -178 55q-27 16 -73 43t-116 68q-102 59 -164 59q-61 0 -109 -41t-48 -98q0 -94 110 -170q100 -74 199 -74h170q37 55 149 88q37 10 66 11q195 0 307 -224 q33 -63 33 -106v-74q0 -82 -55 -186q-70 -135 -192 -212t-269 -77h-129q-330 0 -502 287l-12 20q-16 29 -17 41zM311 922q0 51 44 88t100 37q29 0 66.5 -14.5t84.5 -41.5l4 -2q51 -31 89 -52.5t67 -37.5l2 -2q4 -4 10 -8t15 -8q-90 -31 -131 -80h-158q-88 0 -182 65 q-11 23 -11 56zM358 256q0 90 123 90v33q0 27 -22 53l-29 29q86 -35 182 -35h33q0 78 60 115q27 16 56.5 24t65.5 8q45 0 95 -22q45 -66 45 -148q0 -129 -106.5 -217t-239.5 -88q-121 0 -236 70q-8 4 -12 8q-15 35 -15 80zM1204 705l4 -5z" />
<glyph unicode="T" horiz-adv-x="1519" d="M33 971l6 -47q12 -14 29 -21l84 -84q16 -16 43 -16q27 6 51 67l-2 2q12 33 25.5 53.5t25.5 37.5h2q41 47 109 47q-96 -90 -150.5 -173t-73.5 -161l-8 -74v-143q0 -168 174 -324q10 -10 19.5 -18t19.5 -17l37 -34q8 -8 15 -14.5t16 -14.5q172 -154 338 -154h116 q133 0 277 115q129 100 129 172l-6 29q-4 8 -9 12l-88 86v6q-16 29 -49 29q-23 0 -112 -58q-43 -27 -80 -40t-72 -13q-80 0 -149.5 19.5t-131.5 56.5q-25 14 -49 35q-61 92 -61 178v98q0 117 104 234q92 100 138 100q8 0 27.5 -5t47.5 -17l66 -19q20 -4 41.5 -6t48.5 -4 l-29 -64q8 -41 41 -55l86 -84q14 -14 39 -14q37 0 58 47q23 43 47 89t59 95q51 59 94 106.5t80 82.5q10 10 17.5 18t11.5 14l2 11q0 20 -12 32q-2 0 -2 2l-87 84q-12 39 -71 39l-78 -24l-150 -39l-491 100h-170q-129 0 -260 -117q-133 -117 -133 -243zM53 973q0 117 127 227 q125 111 246 111h166l498 -103l153 41l78 25q45 0 49 -37q-4 -6 -10 -13t-17 -18q-37 -35 -79.5 -82t-94.5 -106q-33 -47 -59.5 -94t-48.5 -95q-18 -39 -45 -38q-35 0 -43 36l80 172l-121 7q-72 2 -137 12l-76 20q-49 20 -72 21q-53 0 -147 -105q-109 -121 -109 -243v-99 q0 -94 68 -192q57 -86 147 -141q127 -78 293 -78q74 0 164 55q88 55 100 55q23 0 29 -12l6 -29q0 -61 -123 -159q-139 -111 -268 -111h-117q-160 0 -327.5 149.5t-167.5 309.5v141l8 66q45 203 321 419l-106 25q-76 16 -113 16q-76 0 -121 -51q-29 -37 -55 -96 q-23 -55 -39 -59q-23 0 -31 12z" />
<glyph unicode="U" horiz-adv-x="1427" d="M33 1122q0 -45 33 -55l88 -86q6 -12 24 -12v-135l-6 -21l-12 -6v-365q0 -201 198 -350l37 -37q66 -66 158 -118q86 -53 106 -54q29 0 113 64q55 41 96 71.5t68 49.5q45 -57 78 -76l71 -72q37 -37 62 -37l125 74q123 74 123 111v36l-97 97v12q-49 0 -73 8v756 q0 143 67 197q-2 14 -16 28l-6 4l1 -1t3 -1l-82 80q-8 23 -28.5 35t-37.5 12l-75 -20l-66 -21l-67 17l-68 18h-21q-39 0 -38 -47l47 -88q18 -31 18 -129v-524l10 4h2l2 -203q-6 -16 -92 -78q-8 -6 -30.5 -19.5t-63.5 -39.5q-8 4 -22.5 13t-34.5 24v-2q-41 25 -70 51 q-31 51 -31 108v246l11 88l18 39l-4 4l2 12v86l-2 54q-2 72 -25.5 127t-66.5 98l-58 55q-10 14 -20 26.5t-21 24.5q-33 33 -96 64q-31 0 -131 -84t-100 -113zM53 1122q0 20 92 99q93 77 114 77h1q55 -27 86 -57q86 -86 88 -215l2 -53v-84l-2 -15l-8 -12l-8 -6h12l-10 -22 l-10 -89v-247q0 -141 204 -279q63 -43 76 -43q33 20 57.5 36.5t43.5 31.5q96 70 100 90l-2 241l-12 -6v492q0 104 -21 139l-45 82q0 23 18 23h15l67 -19l76 -18l70 22l76 21q12 0 26.5 -7.5t16.5 -21.5q-68 -53 -68 -203v-739q0 -100 106 -137q35 -10 64 -10v-23 q0 -29 -117 -98l-121 -72q-29 0 -90 84q-59 84 -59 129h-19q-16 -6 -210 -152q-84 -61 -105 -61q-14 0 -98 51q-279 166 -279 391v353l13 6l6 24v170q0 53 -26 71.5t-83 18.5q-37 0 -37 37z" />
<glyph unicode="V" horiz-adv-x="1345" d="M29 1073q6 -35 34 -45l89 -86q12 -12 36 -12l41 -78l74 -156l59 -133l82 -203l35 -81q29 -104 44.5 -162t19.5 -72q12 -51 47 -63l84 -84q14 -14 37 -15q51 0 77 51l23 60l2 -2l86 114h-2l172 211q223 276 240 416l6 58v94q0 96 -84 213q-12 18 -25.5 33.5t-25.5 27.5 l-52 51q-84 121 -180 121q-31 -2 -59 -35l-2 -2l-53 -57l-97 -68v2q-31 -18 -45 -36.5t-14 -34.5q0 -53 33 -62l88 -86q10 -10 26 -10q25 0 66 29q12 12 31 12q4 0 6 -1t6 -1q23 -41 36 -77t13 -62v-92q0 -66 -115 -252q-27 -43 -50 -78t-44 -62l-313 742q4 8 7 18t7 19 q4 10 9 20t5 14q0 23 -12 35l-86 86q-8 33 -51 33l-154 -100q-158 -102 -157 -152zM49 1077q0 31 150 129l149 99q25 0 25 -31q0 -6 -13.5 -33t-15.5 -39l389 -919q49 33 154 202q117 186 117 265v92q0 63 -54 153q-61 104 -131 105q-25 0 -39 -15q-39 -27 -57 -26 q-25 0 -25 41q0 20 52 53l98 68l55 61q20 25 47 29q84 0 166 -119q82 -115 82 -205v-92l-6 -57q-16 -141 -236 -410l-172 -211l-86 -115l-24 -59q-25 -43 -66 -43q-33 0 -45 51q-4 14 -19.5 70.5t-43.5 161.5l-37 86l-82 202l-59 134l-74 155l-78 148q-18 35 -27 36l-24 5 l-27 -2q-37 -4 -43 30zM1169 1167l5 -4z" />
<glyph unicode="W" horiz-adv-x="1816" d="M35 786q8 -51 47 -143l47 -108q20 -29 49 -64t66 -72q23 -23 39 -41t26 -32q96 -127 142 -346h12l96 -97h82q29 72 48.5 132.5t29.5 107.5q12 49 61 123l133 188q16 -35 34 -68.5t36 -68.5q41 -76 64 -166l36 -151h13l96 -97h80l16 17l10 14q0 131 121 272l234 275 q129 154 129 305v94q0 51 -86 199q-51 86 -86 121l-51 51q-63 88 -107 88l-121 -86q-129 -90 -129 -127l8 -27q14 -29 39 -35l84 -81q14 -14 31 -15l12 4l33 15l1 -1t3 -1q47 -78 47 -127v-101q0 -80 -108 -223q-43 -57 -82 -96l-96 166l-50 78q12 12 56 40q27 27 30.5 32 t3.5 11q0 18 -24 43h-2q-4 10 -6 17l-88 88l-4 8q0 4 -2.5 5t-4.5 5l-30 23l-27 -19l-78 -59q-33 25 -47 45q-23 23 -37 34t-18 15v6l-109 -71v2q-25 -16 -40 -26.5t-25 -20.5q-6 -4 -39 -37q4 -4 9 -10.5t9 -10.5l13 -12q16 -16 28.5 -30.5t22.5 -24.5t16 -17.5t10 -11.5 l21 -20q-8 -14 -27.5 -37t-50.5 -60q-33 -37 -58.5 -69.5t-43.5 -61.5q-4 6 -11.5 13.5t-13.5 17.5l-57 55l-1 1q-1 1 -1 3l59 -59l-158 182q-76 88 -75 180v95q0 53 39.5 95t93.5 42q10 0 16 -2q-2 -4 -10 -12.5t-10 -13.5t-4 -9v-4q0 -31 20 -51l18 -13l86 -84l23 -12 l141 74q49 27 84 48.5t58 37.5q-2 25 -43 65l-64 62q-10 20 -33.5 42.5t-56.5 51.5q-106 88 -184 88q-82 0 -159 -32.5t-149 -104.5q-70 -70 -108.5 -143.5t-46.5 -157.5v-107zM55 791v100q14 154 150 289q133 131 293 131q72 0 172 -82q88 -72 92 -99q-20 -16 -53 -35.5 t-80 -43.5l-135 -70l-13 6q-12 12 -12 31q4 12 8 16q20 20 21 37q0 41 -49 76q-47 33 -95 33q-59 0 -103 -46.5t-44 -105.5v-94q0 -98 80 -191l157 -182q92 -104 115 -184h16q20 63 123 178q86 98 88 115l-18 18q-4 4 -26.5 28.5t-63.5 67.5q-2 2 -5 6.5t-11 12.5 q16 16 22 20q10 10 66 45l90 60q4 -4 16 -13.5t29 -25.5q20 -27 63 -58l74 60l33 18l10 -8l3 -5l9 -15q20 -20 21 -33q-2 -2 -2 -4l-27 -27q-61 -41 -61 -57l51 -82l100 -170q23 -39 40.5 -77t29.5 -73q37 8 139 144q113 145 113 235v101q0 66 -58 153q-59 92 -116 92 l-29 -12l-21 -6q-14 0 -26 20l-8 27q0 20 120 105l117 81q39 0 121 -143q84 -145 84 -192v-95q0 -150 -125 -295l-233 -274q-125 -145 -125 -276l-8 -13l-11 -10h-61l-35 137q-10 41 -26.5 84t-39.5 84q-66 123 -110 242q-23 53 -39 53q-14 0 -29 -20l-157 -224 q-51 -76 -64 -127q-20 -92 -74 -229h-59q-43 207 -143 338q-10 14 -27.5 33.5t-40.5 42.5q-39 39 -66.5 71.5t-46.5 59.5l-45 106q-16 41 -28.5 76t-16.5 64z" />
<glyph unicode="X" horiz-adv-x="1705" d="M35 145q0 -43 67 -88l70 -69q25 -27 78 -54q88 -51 121 -51h47q100 0 215 131q10 14 48 68.5t101 148.5q27 39 46.5 69t35.5 52l29 -51q86 -160 139 -219q39 -45 76 -70l53 -51q78 -78 156 -78h65l109 64l-2 2q29 16 59.5 34.5t65.5 43.5q31 20 43 30q4 2 7 4l3 2l4 11 v30l-96 97v12h-135q-43 0 -82 9t-74 32l-55 70q-2 0 -2 2q-16 20 -68 114l-82 148l-37 69q2 4 15.5 24.5t36.5 55.5l49 74l45 72h-2q51 61 92 61q29 0 78 -24q55 -29 86 -29q90 0 159 119q43 66 62 120q-8 20 -19 33l-81 80q-12 33 -48 45q-29 0 -49 -24q-10 -8 -19 -13.5 t-15 -5.5q-12 2 -32 10.5t-48 22.5q-4 2 -7 2l-4 2q-72 37 -100 37q-66 0 -154 -117l-12 -18q-4 -4 -5 -7t-5 -8l-2 -2h2h-2q-41 -61 -70.5 -105t-46.5 -69q-14 -25 -27.5 -45t-23.5 -37l-16 33q-18 33 -35 59.5t-31 49.5q-39 55 -74 90l-45 45q-113 143 -215 143l-225 -155 q-82 -57 -82 -84q0 -51 33 -60l88 -88q8 -10 31 -10l55 20q53 20 86 21q29 0 47 -8l70 -103l4 -6l71 -127l62 -121q-4 -10 -19.5 -36.5t-42.5 -67.5q-16 -27 -30.5 -46.5t-24.5 -35.5h2q-12 -16 -16 -23l-2 -2v4l-80 -129h2q-57 -66 -109 -75v28l-96 97v12h-59l-103 -84 q-104 -84 -104 -107zM55 145q0 14 97 93l96 77h33v-36q0 -102 98 -103q72 0 149 96l62 99q14 20 34.5 51t49.5 72q66 102 65 118l-65 127l-84 148l-86 129q-51 76 -144 76q-37 0 -90 -21l-55 -20q-25 0 -25 41q0 14 74 67l221 152q96 0 211 -164q14 -23 30.5 -48.5 t35.5 -58.5l108 -192q14 14 37 47t56 86q18 29 53 81t86 128q79 108 136 108h1q23 0 92 -34q35 -16 58.5 -26.5t37.5 -12.5q20 0 50 22q18 20 30 21q29 -10 35 -35q-18 -51 -57 -113q-67 -112 -147 -112h-1q-27 0 -80 26q-51 27 -83 27q-47 0 -103 -68l-45 -71l-49 -74 q-53 -82 -53 -90l39 -74l81 -147q53 -98 72 -119l123 -154q89 -71 198 -71h3h114v-17q-4 -4 -16 -12t-35 -23q-80 -55 -123 -80l-104 -61h-62q-84 0 -167 96q-27 29 -61 82t-75 131l-114 211q-16 -6 -129 -178q-127 -188 -148 -215q-111 -127 -205 -127h-47q-29 0 -114 49 q-98 55 -99 96z" />
<glyph unicode="Y" horiz-adv-x="1470" d="M35 1106q10 -33 47 -49l80 -80q10 -10 24 -16q8 0 25 8h-2q6 4 14 7t19 5l4 -8q16 -47 34.5 -108.5t38.5 -133.5l54 -196l92 -302q59 -117 156 -188l55 -53l24 -25q-18 -31 -18 -35q-65 -75 -137 -75h-2q-35 0 -62 6l-12 24l-86 86l-16 31l-91 -139l-69 -111 q0 -35 43 -59l80 -80q18 -18 69 -35q61 -18 90 -18h111q74 0 178 96q33 33 56.5 57.5t35.5 38.5l50 70q35 59 66.5 114.5t53.5 98.5q20 37 37 66.5t31 52.5l186 327q143 250 144 355v51q0 45 -66 110l-49 50q-10 14 -31 38q4 4 6 11l54 -54q41 8 51 18.5t10 47.5 q0 33 -29 61l-6 5l1 -1t3 -1l-73 71q-12 27 -43 49q-25 20 -48.5 28.5t-43.5 8.5h-50q-49 0 -106 -51q-55 -49 -55 -98v-88q0 -35 129 -172q47 -53 47 -99q0 -82 -58 -196q-27 -47 -41 -77t-18 -42q-4 -8 -29.5 -51t-74.5 -123q-4 -6 -9.5 -14.5t-8.5 -14.5l-4 -8t5 4 l-12 -16q-6 -10 -11.5 -18.5t-11.5 -16.5q-2 -4 -3 -5t-3 -5l2 2l-16 -23q-6 0 -8 2q-10 29 -19.5 51.5t-13.5 38.5q-31 82 -61.5 179.5t-63.5 214.5q-35 139 -62.5 227t-44.5 129q-35 80 -73 119l-66 63q-57 88 -133 88q-27 -2 -147 -98q-119 -94 -119 -127zM55 1112 q0 16 111 107q115 90 137 92q90 0 156 -154q31 -70 104 -354q33 -119 63.5 -218.5t61.5 -176.5q14 -41 43 -105q57 -104 127 -104l21 30q8 12 21 36t36 59q47 76 72.5 119.5t31.5 56.5q2 10 60 118q59 115 59 205q0 53 -53 113q-123 131 -123 158v88q0 37 49 84q51 45 92 45 h50q39 0 79 -33q43 -31 43 -66q0 -29 -6 -37t-28 -12l-9 37q-6 27 -28 31q-20 0 -35 -14q-16 -23 -16 -35q0 -8 73 -78q74 -68 74 -113v-51q0 -100 -141 -348l-187 -326q-29 -51 -74 -132t-108 -191l-55 -80q-12 -14 -35 -37l-55 -55q-102 -92 -168 -93h-111q-25 0 -86 19 q-74 20 -74 49l68 107l72 108l32 -61q33 -63 144 -64q84 0 155 84q8 12 50 80q-164 59 -261 236l-94 305l-53 196q-41 143 -74 240l-55 98q-23 20 -55 25q-23 0 -43.5 -11.5t-26.5 -11.5q-23 10 -31 35z" />
<glyph unicode="Z" horiz-adv-x="1458" d="M35 1053q0 -45 35 -56l86 -86q12 -12 34 -12q20 0 50 33l10 10t16 21h2q25 27 43 49l68 -68q57 -57 164 -57h164q29 0 57.5 2t62.5 10q-10 -10 -18 -19.5t-14 -17.5q-6 -6 -14.5 -14t-16.5 -14q0 2 -10 -9l-4 -4h-2l-3 -2h-49q-115 0 -229 -121q-98 -104 -98 -145v-45h12 l47 -49l-385 -402l31 -49q12 -8 20 -10l88 -88q25 -14 45 -14q8 0 97 51q88 47 161 47h72l211 -74q104 -37 162 -37h65q131 0 232 66q68 43 121 102q75 81 75 140q0 35 -16 51l-84 82q-10 41 -59 41q-20 0 -41 -24t-49 -71q-18 -27 -38 -45t-42 -28l-17 14q-16 27 -33 43 q-43 41 -97 60.5t-120 19.5h-106q-10 0 -21.5 -1t-23.5 -3l106 112h4l99 -96h39q80 100 118 135l86 76l-98 100l4 2l-35 35l422 453l-30 43l-76 76l-25 32l-28 15q-20 0 -125 -45q-100 -41 -156 -41h-63q-63 0 -175 35q-206 69 -248 69h-1h-123q-115 0 -236 -114 q-100 -100 -100 -164zM55 1053q0 55 95 149q113 109 221 109h123q35 0 243 -70q111 -35 181 -35h63q61 0 164 43q100 43 112 43l19 -10l24 -33l-423 -454l129 -136l-76 -65q-49 -41 -117 -131h-18l-25 100q-2 27 -55 39l-373 -393l10 -6l140 55q137 55 229 55h106 q125 0 203 -73q20 -20 49 -72q59 6 113 90q51 86 72 86q43 0 43 -49q0 -53 -72 -131q-55 -61 -119 -101q-100 -63 -223 -63h-66q-53 0 -157 37l-211 74h-76q-80 0 -168 -50q-86 -49 -90 -49q-18 0 -35 11l-20 32l546 572l-6 12q-7 1 -14 1q-37 0 -90 -34q-51 -33 -80 -78 h-37v25q0 35 92 131q111 115 215 115h58q4 4 8 7t6 5q14 12 24.5 21.5t16.5 15.5q23 27 58.5 65.5t82.5 92.5q8 8 22.5 21t37.5 36q33 27 32 51l-254 -78q-101 -32 -179 -32h-5h-164q-156 0 -202 139h-21q-16 -16 -38.5 -41t-51.5 -58q-25 -29 -39 -28q-33 0 -33 37z" />
<glyph unicode="[" horiz-adv-x="636" d="M37 -444h12l96 -97h459v90l-96 97v12h-178v1536h274v90l-96 96v13h-471v-1837zM57 -424v1796h430v-61h-274v-1673h274v-62h-430z" />
<glyph unicode="\" horiz-adv-x="808" d="M35 625q0 -35 39 -52l49 -49v-405l-2 -4t-6 -11q2 4 -3.5 -5t-9.5 -17l2 2q-27 -39 -26 -59q0 -35 28 -43l89 -88q10 -10 32 -11q23 0 90 25h2q31 0 144 -27l29 17q6 6 9 16t3 20q-57 84 -58 144q6 696 7 966h61q39 0 133 -88q49 61 81 108.5t48 76.5l2 8q0 14 -14 29 l-86 84q-12 35 -72 53q-27 8 -46 12t-36 4h-51q-111 0 -231 -127q-119 -125 -119 -237v-154q-12 -12 -24.5 -33.5t-28.5 -50.5q-35 -68 -35 -104zM55 625q0 31 33 96q35 70 55 84v162q0 104 113 223q115 121 217 121h51q20 0 76 -17q60 -18 62 -45q-16 -29 -45 -70.5 t-74 -99.5q-88 82 -131 82h-76q0 -268 -6 -981q0 -66 57 -149q0 -12 -8 -21l-19 -10q-119 27 -149 25q-68 -25 -86 -25q-27 0 -27 25q0 12 23 47q23 39 22 47v512q-27 0 -42 -18.5t-21 -18.5q-25 8 -25 31z" />
<glyph unicode="]" horiz-adv-x="636" d="M33 -342v-102h12l96 -97h459v1825l-96 96v13h-471v-103h12l96 -96h156v-1536h-264zM53 -362h264v1673h-264v61h430v-1796h-430v62z" />
<glyph unicode="^" horiz-adv-x="722" d="M33 1028h18l96 -96h95l176 180l84 -84h8l96 -96h86l-243 321l-76 74l-25 35h-59zM74 1049l225 292h39l223 -292h-51l-180 182h-19l-178 -182h-59z" />
<glyph unicode="_" horiz-adv-x="1224" d="M37 -301v-133h12l96 -96h1043v120l-96 97v12h-1055zM57 -322h1014v-92h-1014v92z" />
<glyph unicode="`" horiz-adv-x="565" d="M29 1219l241 -293h9l96 -97h157l-133 281l-90 88l-8 21h-272zM70 1198h219l119 -252h-129z" />
<glyph unicode="a" horiz-adv-x="1091" d="M35 377q0 -176 125 -295q27 -27 51 -45l55 -53q104 -100 207 -101q16 2 127 74l82 53q12 -8 16 -10l80 -78q33 -33 76 -33q2 4 6 6.5t8 4.5q12 8 24.5 15t22.5 13q16 10 26.5 16.5t16.5 10.5l99 68q-4 8 -13 18l-81 82q-10 29 -58 49v289q0 41 9.5 70.5t25.5 54.5l84 114 v45l-96 97v12h-51q-74 -61 -113 -61q-23 2 -96 49q-82 51 -117 51q-180 0 -354 -186q-162 -174 -162 -330zM55 377q0 147 156 315q168 180 340 180q25 0 104 -49q78 -47 109 -51q45 0 119 62h24v-25l-82 -113q-37 -53 -37 -133v-280q0 -82 74 -115q72 -25 76 -37l-90 -61 q-10 -8 -31.5 -20.5t-54.5 -33.5q-2 -2 -6 -4t-11 -6q-39 0 -71 43l-74 94l-111 -71q-104 -68 -120 -72q-94 0 -195 96q-119 117 -119 281zM231 477q0 -86 91 -205q72 -90 159 -90q41 0 72 15l41 16v250l27 39l67 125v-19q-8 8 -31 8q-10 0 -22 -4l-17 -4q-47 0 -122 62 q-72 63 -103 63q-74 0 -112 -69q-37 -59 -37 -136l-6 -22zM348 373l6 26l6 23q0 74 35 131q37 63 101 63q25 0 92 -59q10 -10 26 -22l-10 -21l-31 -43v-246l-28 -10q-29 -12 -64 -12q-45 0 -80 20q-53 80 -53 150z" />
<glyph unicode="b" horiz-adv-x="1032" d="M35 1178q2 -23 11 -38.5t20 -29.5q41 -47 40 -70v-751q14 -45 29 -82t31 -68q55 -96 117 -135l63 -61q59 -59 127 -60q35 0 182 105l144 102q203 174 202 316v57q0 84 -102 203l-6 6q-10 10 -18.5 19t-18.5 20l-27 24q-10 12 -19 24.5t-19 24.5v-2q-96 111 -173 111h-4 q-51 0 -163 -66h2q-8 -4 -21 -12v242q0 72 62 119q0 23 -11 32l-6 6v-2q2 0 2 -2l-84 86q-4 16 -26 31l-37 4q-27 -4 -152 -74zM57 1167l131 72q63 35 99.5 52.5t44.5 19.5l33 -4q12 -6 12 -21q-61 -47 -62 -127v-414q43 6 146 64q113 63 153 63h3q75 0 169 -114 q98 -115 99 -193v-57q0 -131 -195 -301l-145 -105q-145 -102 -174 -102q-104 0 -187 147q-29 51 -57 148v745q0 31 -47 84q-20 23 -23 43zM326 344q0 -47 63.5 -116.5t106.5 -69.5q53 0 127 78q74 80 73 135v100q0 74 -82 162t-155 88q-63 0 -133 -70v-307zM442 242v301 q63 61 119 61q31 0 68 -18q47 -66 47 -115v-100q0 -47 -68 -121q-72 -72 -112 -72q-18 0 -41 15q-8 14 -10.5 26t-2.5 23z" />
<glyph unicode="c" horiz-adv-x="899" d="M35 356q0 -109 92 -225q41 -57 98 -96l49 -47q104 -104 254 -105q98 0 211 76q125 82 125 180v94l-96 97v12h-66l-88 -74q-30 -24 -68 -24h-3h-80q-72 0 -154 69q-39 60 -39 117v66q4 31 33 65h-2q43 53 96 53q27 0 86 -24q115 -51 181 -51q70 0 135 71.5t65 102.5 q0 18 -10 28l-88 86q-6 35 -53 35q-25 -4 -49 -22h-2t-13 -4h-43l-63 26q-74 31 -123 31q-133 0 -258 -131q-61 -66 -94 -130.5t-33 -129.5v-146zM55 356v146q0 121 121 246q118 124 242 124h2q41 0 115 -28l69 -29h51q14 2 21 8q20 14 39 19q33 0 33 -27q0 -25 -61.5 -92.5 t-125.5 -67.5q-61 0 -174 50q-57 26 -90 26h-2q-59 0 -107 -59q-33 -41 -34 -72v-68q0 -88 108 -200q113 -109 201 -109h80q47 0 84 31l82 68h39v-80q0 -88 -119 -168q-111 -74 -203 -74q-172 0 -283 143q-88 113 -88 213z" />
<glyph unicode="d" horiz-adv-x="1056" d="M31 332q0 -113 114 -234q35 -39 70 -61l45 -45q55 -53 108.5 -81t108.5 -28q70 0 197 80l59 -59q14 -14 37 -15l57 17q14 8 41 8q33 0 58 -12q12 -6 23.5 -11.5t15.5 -7.5q43 0 43 49q-6 16 -10.5 24.5t-16.5 41.5q-10 23 -14 39t-9 26v1008q0 41 27 68l35 41 q-4 20 -12 28l-88 88q-16 35 -58 35q-39 -6 -160 -74l-149 -79q6 -35 47 -68q25 -16 25 -63v-191q-27 16 -43 21l-13 6l-37 10h-92q-49 0 -141 -74v2q-268 -207 -268 -370v-119zM51 332v119q0 152 250 346q93 75 138 75h1h86l37 -10q16 -8 25.5 -11t40.5 -22l16 19v199 q0 55 -33 79q-31 23 -34 41l133 72q121 66 155 72q33 0 37 -25l-31 -35q-31 -35 -30 -77v-1012q4 -10 9 -26.5t15 -39.5q12 -33 18 -49l7 -16q0 -31 -25 -31q-10 4 -18 8t-19 8q-27 14 -63 15q-33 0 -47 -8l-55 -17q-16 0 -25 14l-4 35l4 37l-4 35q-176 -127 -260 -127 q-104 0 -215 113q-109 115 -109 219zM195 463q104 -270 276 -270h55q29 0 62 20l51 51v338q-139 139 -231 139t-146.5 -67.5t-54.5 -165.5v-31zM313 358l11 11v37q0 92 50 155.5t136 63.5q23 0 49.5 -11.5t58.5 -29.5v-312l-40 -41q-32 -18 -52 -18h-55q-55 0 -106 35 q-14 23 -26.5 50.5t-25.5 59.5z" />
<glyph unicode="e" horiz-adv-x="923" d="M35 350q0 -100 108 -237q51 -63 97 -93l51 -51q86 -86 168 -86h88q100 0 211 111q113 113 112 213l-6 37l-2 2q0 2 -2 4l-92 90v8q-16 23 -49 23l-107 -107q-29 -20 -62.5 -31.5t-68.5 -11.5q-59 0 -110 25q14 8 36.5 21.5t53.5 31.5l127 74l194 119q106 63 107 96v2 q0 6 -12 18l-84 84q-4 29 -138 105h4q-162 96 -206 96h-66q-119 0 -235 -129q-59 -66 -88 -127.5t-29 -116.5v-170zM55 350v170q0 109 111 230q112 122 219 122h2h66q35 0 174 -81q143 -81 145 -101q0 -23 -100 -84l-195 -119l-127 -73q-119 -70 -119 -76q20 -27 37 -43 t27 -25q81 -69 183 -69h3q78 0 144 47l102 102q14 0 21 -10l6 -33q0 -92 -109 -201q-106 -106 -201 -106h-88q-98 0 -198 125q-102 127 -103 225zM168 496q4 -2 13 -31t32 -51q4 6 109 69l210 125q-59 29 -145 135q-27 33 -68 33q-51 0 -90 -45l-61 -113v-122zM285 485v29 l57 104q35 41 80 41q8 0 12 -2q16 -14 29.5 -25t28.5 -22l-183 -108q-6 -4 -12 -8.5t-12 -8.5z" />
<glyph unicode="f" horiz-adv-x="811" d="M35 623q2 -35 41 -50l47 -47v-401q-2 -18 -12 -31q-33 -47 -33 -71q2 -31 31 -41l88 -88q10 -10 30 -11q33 0 56 13h2l32 12h50l26 -8l70 -19l29 17q12 12 12 34l-31 48q-12 20 -19.5 43.5t-7.5 54.5v442h111q59 0 139 119q20 31 62 121l-10 22l-91 90l-6 15l-41 41 l-67 -62q-16 -12 -72 -16l-18 -2v196h61q18 0 64 -28l-3 2l70 -62q45 45 84 107l49 80q0 18 -16 35l-86 84q-16 39 -80 55l-68 14h-55q-111 0 -231 -127q-119 -125 -119 -237v-156q-37 -47 -55 -86q-33 -59 -33 -102zM55 625q0 33 31 92q10 20 24.5 42.5t32.5 45.5v162 q0 104 113 223q115 121 217 121h51l68 -15q68 -14 70 -47l-48 -75q-39 -61 -71 -95l-60 51q-47 31 -71 31h-76v-332q8 -10 37 -6l47 2l53 4q57 2 82 21l55 49l25 -25l6 -12q-16 -37 -30.5 -64.5t-28.5 -47.5q-76 -113 -127 -113h-125v-457q0 -61 28 -106l29 -43 q0 -12 -8 -21l-19 -10l-65 16l-27 9h-57l-33 -13q-23 -12 -53 -12q-25 0 -27 25q0 18 31 59q12 20 14 35v512q-39 0 -41 -19q-4 -18 -22 -18q-23 8 -25 31zM346 838v2v-2z" />
<glyph unicode="g" horiz-adv-x="1042" d="M35 -147q0 -57 86 -111l55 -55q23 -23 68 -52q111 -69 199 -69h3h56q150 0 321 135q184 143 185 285v141l-50 156q-47 154 -47 168v86q0 33 27 86l61 108q0 18 -22 41l-78 78q-4 6 -9 13t-11 16l-25 16l-59 -21v-2q-14 -4 -24.5 -8t-20.5 -6l-66 16l-90 19h-70 q-72 0 -184 -72q-305 -188 -305 -438v-61q0 -66 22.5 -126.5t71.5 -113.5q31 -35 61 -55l37 -35l-98 -68zM55 -158l86 66l115 78q18 -98 106 -150q63 -39 123 -39q70 0 148 66q76 63 76 133v61l-15 58l-28 92q-164 -207 -310 -207q-123 0 -213 96q-88 96 -88 226v61 q0 236 297 420q111 69 170 69h2h66l90 -18l70 -18q12 2 55 18l47 18l14 -10q16 -16 17 -26l-60 -105q-29 -53 -28 -92v-86q0 -18 47 -172l49 -156v-137q0 -135 -178 -272q-170 -133 -314 -133h-55q-84 0 -194 67q-94 57 -95 92zM242 514q0 -117 57 -207q71 -114 140 -114h1 h64q43 25 59 40q57 45 58 80q0 10 -13 52q-12 39 -12 49v55q0 41 39 121q38 86 67 98q-72 -41 -127 -41q-41 0 -106 27q-59 26 -90 26h-2q-59 0 -98 -67q-37 -59 -37 -119zM358 412q0 53 35 110q37 61 86 62q25 0 86 -25q16 -10 29 -12q-10 -27 -14.5 -45.5t-4.5 -32.5v-55 q0 -16 13 -56q12 -37 12 -45q0 -27 -59 -73q-10 -10 -41 -27h-60q-16 0 -32 8q-50 87 -50 191zM371 -104q39 -12 88 -13q106 0 229 113q0 -61 -70 -119q-72 -59 -133 -59q-47 0 -102 30q-10 25 -12 48z" />
<glyph unicode="h" horiz-adv-x="1028" d="M35 1165q0 -27 24 -57q27 -20 27 -31v-925q0 -14 -10 -50l-33 -45v-77h12l97 -97h57q16 16 41 19l37 6h2q43 0 84 -12l43 -13l30 4q18 12 19 35q0 10 -16 41q-2 2 -3 4l-2 2q-25 49 -24 80v416q76 61 145 94l21 10q4 -8 6 -14t6 -14q53 -135 53 -193v-69q0 -76 -45 -189 q-23 -53 -48.5 -93t-53.5 -69q-119 -113 -295 -155q-78 -23 -78 -58l21 -45q4 -6 20 -10l84 -82v-2h2q12 -12 35 -12h76q121 0 284 127q139 109 224 225q121 166 120 336v82q0 211 -176 391l-43 41q-12 16 -25.5 32.5t-29.5 32.5q-63 63 -82 64q-10 0 -48 -23.5t-110 -74.5 v2q-20 -14 -36.5 -24.5t-32.5 -20.5l-4 153q4 18 8 62l2 75q0 31 20 58l58 72q0 25 -13 36l-88 86q-10 35 -53 35q-29 -14 -47 -23.5t-33 -15.5q-27 -12 -43 -19t-41 -22zM55 1153l138 80l39 19q38 20 116 59q33 0 33 -29l-53 -70q-25 -31 -25 -65l-2 -74q-4 -43 -8 -59 l10 -289q2 -35 -10 -47h22q39 8 181 102q137 94 145 94q10 0 68 -57q172 -176 172 -381v-82q0 -164 -119 -327q-82 -115 -219 -222q-161 -124 -275 -124h-2h-76q-18 0 -26 12l-12 26q0 18 63 33q178 43 303 162q31 29 57.5 72t49.5 96q47 113 47 197v69q0 66 -54 201 q-59 147 -116 147l-45 -22q-72 -35 -154 -99v-423q0 -27 22.5 -76t22.5 -51q0 -14 -10 -21l-23 -4l-41 12q-41 12 -90 13l-39 -7q-29 -2 -45 -18h-37v49l33 47q10 35 10 56v925q0 18 -38 49q-12 14 -13 27z" />
<glyph unicode="i" horiz-adv-x="606" d="M31 739q39 -45 59 -53l72 -72q0 -2 4 -6v-438q0 -33 -16 -70l-35 -69v-51h12l96 -97h348v37l-43 55h2q-18 31 -18 66v569l-37 84q-18 43 -41 66l-69 69q-6 10 -11.5 17.5t-11.5 15.5l25 -24q8 -8 20 -9q45 0 105 86q59 84 59 127q0 45 -33 78l-76 74q-16 33 -46.5 52.5 t-69.5 19.5q-53 0 -86 -37t-33 -96q0 -20 4 -47t12 -64q18 -90 53 -96l52 -52q-23 18 -47 19l-113 -59q-45 -25 -79 -47.5t-58 -47.5zM57 737q31 31 119 78l109 57q43 0 75 -81l35 -80v-568q0 -41 21 -73l39 -50v-20h-320v27l33 65q18 37 18 78v467q0 68 -84 68 q-18 0 -45 32zM227 1133q0 49 28 80.5t71 31.5t75.5 -28.5t32.5 -71.5q0 -37 -57 -119q-55 -80 -92 -80q-23 0 -41 82q-16 78 -17 105z" />
<glyph unicode="j" horiz-adv-x="604" d="M33 -356l2 -13v-12q10 -6 16 -11t12 -9l80 -80q31 -25 45 -25h80q152 0 244 133q37 51 37 88v64l-21 71q-16 59 -16 142v409q0 123 -6 195q-10 119 -53 162l-78 78q-4 8 -8 12l92 65q110 75 110 126q0 38 -32 71l-76 76q-16 29 -44 48t-57 19q-72 0 -114 -94l-86 -194 v-52h12l51 -53l-63 -37q-115 -72 -125 -100v-43l16 -4l92 -92l27 -9v-575q0 -31 25 -82q2 -4 5 -9t3 -7q4 -10 9 -21.5t13 -27.5q4 -6 5 -11.5t3 -9.5l3 -2v-51q0 -51 -109 -111l-12 6q-25 12 -45 13q-37 0 -37 -43zM53 -354q0 20 17 20q12 0 36 -10l21 -10q129 68 129 133 v57q-6 8 -12 25q-12 29 -21.5 47t-13.5 26q-18 39 -19 66v600q0 68 -65 84l-70 14v19q6 23 117 88l117 67q84 0 100 -176q6 -72 6 -192v-410q0 -86 17 -145l20 -72v-59q0 -29 -35 -80q-90 -127 -231 -127h-80q-12 0 -27 12q-4 4 -4 10zM180 934v27l84 190q37 82 96 82 q33 0 63 -28.5t30 -61.5q0 -41 -105 -115l-133 -94h-35z" />
<glyph unicode="k" horiz-adv-x="1026" d="M35 1128q8 -10 16 -18t12 -14l21 -25q39 -39 39 -45v-836l-14 -51l-37 -94v-65h12l96 -97h41l64 29q20 4 26 6l-2 2h4l43 -8l52 -23h71v39q0 14 -24 52q-18 31 -19 45v182q53 45 84 57l70 -178q29 -78 76 -98l75 -76q31 -31 74 -31l90 43q90 43 90 82v39l-96 96v13h-31 q-4 10 -6 19.5t-4 19.5q-35 137 -92 194l-21 19q6 4 18.5 12t29.5 20q65 42 65 101q0 53 -16 75l-35 56q2 2 6 10q14 6 14 31q0 23 -10 32l-88 88q-8 33 -55 33q-57 0 -197 -88q-10 -8 -20.5 -13t-20.5 -11v268q0 102 68 143q0 23 -10 33l-88 88q-6 18 -25 29v-2h-2v2h2 l-10 5t-15 7q-27 0 -90 -37q-6 -6 -8 -6q-2 -2 -4 -2q-16 -10 -23.5 -13t-29.5 -20h6q-27 -20 -57.5 -36.5t-71.5 -28.5q-43 -12 -43 -54zM55 1135q0 16 29 26q41 14 78 35t69 47q2 2 41 25q63 37 78 37q18 -6 23 -11q14 -6 14 -20q-68 -41 -68 -152v-460h31 q23 20 57.5 43.5t81.5 52.5q137 86 185 86q37 0 37 -31q0 -14 -11 -18q-10 -16 -10 -27l37 -59q14 -20 14 -66q0 -49 -59 -90t-59 -49q76 -45 118 -213q14 -53 43 -117q35 -41 95 -41v-24q0 -31 -82 -70l-86 -41q-63 0 -101 96l-73 193q-41 102 -84 102q-51 0 -134 -74v-188 q0 -20 21 -53q23 -35 22 -43v-25h-55l-51 23l-43 8q-6 -2 -14.5 -3t-18.5 -5l-63 -29h-25v43l37 92l14 47v844q0 14 -45 59q-16 14 -43 50zM326 422q53 16 137 72q98 66 102 100l-14 27q-16 23 -16 71h-21l-188 -125v-145z" />
<glyph unicode="l" horiz-adv-x="548" d="M35 1153q4 -18 11 -30.5t17 -20.5q29 -23 29 -49v-877q0 -14 -16 -63q-14 -41 -33 -60v-73h12l97 -97h43l73 25q37 12 62 12q29 0 92 -33q4 0 7 -1t5 -1t6 -4l33 6q16 10 16 35q0 23 -16 45l-2 2q-31 37 -31 131v963q0 33 31 70l43 51l-20 26l-76 74l2 2l-27 33l-26 12 q-53 0 -191 -84q-41 -23 -78 -48t-63 -46zM57 1145q16 12 49 33.5t82 50.5q137 82 174 82l19 -8l12 -17l-35 -41q-35 -41 -34 -80v-962q0 -100 32 -140q16 -23 17 -38q0 -14 -8 -21l-23 -4q-4 2 -8 2t-12 2q-63 33 -95 33q-29 0 -65 -12l-74 -25h-25v45q18 18 33 61 q16 49 17 70v877q0 37 -37 65q-16 12 -19 27z" />
<glyph unicode="m" horiz-adv-x="1579" d="M35 696l22 -26h6l99 -97l16 5v-394q0 -55 -10 -92l-27 -57q0 -39 33 -47l86 -86q12 -12 37 -13q8 0 23.5 3.5t35.5 11.5q43 16 41 16q23 0 54 -10l69 -27l23 8q12 12 12 33q0 20 -23 43q-20 35 -20 82v434q6 23 68 66q31 23 55 35v-391l-10 -72l-21 -84v-51h12l97 -97h53 q29 16 70 25l28 6l25 -8q23 -8 72 -8l16 -8q20 0 39 18l-37 76h2l-18 47v455q0 8 75 53q23 12 39.5 22.5t26.5 16.5q2 0 3 1t3 1l-6 -267l-8 -153v-4q0 -53 57 -125q16 -18 30.5 -30.5t28.5 -22.5l68 -68q49 -49 96 -49l84 51q23 14 42.5 29.5t37.5 34.5l4 10q0 6 -3 15 t-11 18l-86 86q-2 12 -2 26v33v367q0 70 -74 149q-4 6 -10 12.5t-10 10.5l-48 47l-30 37q-29 35 -65 60.5t-77 47.5l-266 -180q-4 4 -6 8l-47 45l-14 21q-78 98 -148 98l-223 -162q-12 12 -16 19l-62 59q-59 84 -106 84l-103 -74q-102 -72 -102 -123zM55 702q0 33 95 101 l98 69q31 0 96 -96l51 -92l260 188q53 0 125 -90l72 -92l278 189q33 -16 65 -41t60 -60q70 -76 70 -139v-367q0 -96 23 -131q10 -18 45 -22q6 0 26 -4q8 -9 8 -21q-16 -16 -35.5 -31.5t-41.5 -29.5l-80 -49q-43 0 -101 67q-55 72 -53 115l8 153l6 275q0 35 -38 76 q-37 43 -70 43q-12 -10 -27 -13q-10 -6 -26.5 -16t-40.5 -25q-82 -49 -82 -65v-461l18 -47l33 -66q-8 -8 -20 -8l-9 4l-4 4q-49 0 -73 9l-27 8l-35 -6q-41 -10 -67 -25h-37v25l20 82l10 77v396q0 20 -10 42.5t-25.5 40t-36 29t-40.5 11.5q-31 -14 -74 -45q-70 -49 -74 -78 v-434q0 -55 23 -91q20 -20 20 -34t-6 -21l-16 -6l-62 25q-31 12 -59 12q-4 0 -47 -17q-37 -14 -53 -14q-33 0 -33 25l26 57q10 37 11 96v422q0 33 -24.5 62.5t-55.5 33.5l-33 -4l-23 -6zM698 569q2 0 2 -2z" />
<glyph unicode="n" horiz-adv-x="1159" d="M35 731q6 -4 11 -6t9 -4l88 -88q8 -6 25 -15v-438l-23 -71l-7 -24.5t-7 -21.5l-3 -9t-1 -7q-2 -2 -2 -4q-2 -4 -2 -10l-2 -13l4 -40h12l96 -97h41q61 31 93 31q45 0 79 -16l3 -2l20 -13h66v35q0 25 -19 43l-4 4q-10 12 -10 60v462l164 97q2 -10 3 -18.5t1 -18.5v-406 q0 -45 82 -114q8 -8 20 -17l57 -57q6 -6 13.5 -12.5t15.5 -12.5q66 -53 90 -53l86 49q90 51 90 76q0 14 -8 23l-88 88q-4 14 -12 22v371q0 74 -72 162q-2 0 -2 2q-10 10 -17 18t-16 19l-47 47q-4 4 -8 9t-8 11q-68 82 -150 117l-272 -166l-21 27l-67 65q-49 78 -119 78 l-49 -31q-2 -2 -6 -5t-6 -5l-15 -14q-2 0 -2 -2h-2q-4 -4 -8 -7v2q-94 -70 -94 -100zM55 743q0 6 86 72q4 4 13.5 10t19.5 15l51 32q55 0 103 -79l63 -113l307 184q72 -29 133 -104q68 -84 68 -154v-358q0 -80 29 -109q12 -12 51 -16q29 -5 29 -21q0 -14 -82 -63l-82 -47 q-18 0 -80 49q-74 61 -74 100v406q0 63 -33 96q-12 20 -82 68l-190 -111v-473q0 -61 21 -76q12 -12 12 -31v-20h-47l-17 10q-41 20 -90 21q-37 0 -94 -31h-27l-2 20l2 11q2 4 7.5 22.5t15.5 48.5l22 70v453q0 51 -61 82q-35 18 -53 27z" />
<glyph unicode="o" horiz-adv-x="993" d="M35 354q0 -96 115 -233v2q39 -49 86 -80l14 -12q10 -12 22 -23l9 -8q117 -117 266 -117q117 0 254 125q158 145 157 328q0 186 -135 323q-2 4 -8 11l-45 45q-10 12 -21.5 25.5t-23.5 25.5q-121 127 -238 127h-71q-129 0 -260 -168q-121 -154 -121 -287v-84zM55 354v84 q0 123 117 275q124 159 243 159h1h71q106 0 224 -120q131 -134 131 -314q0 -176 -154 -317q-133 -121 -244 -121q-168 0 -290 147q-98 117 -99 207zM176 543q0 -121 137 -250q139 -127 260 -127q49 0 84 35l64 86v86l-53 90q-147 250 -338 250q-96 0 -142 -105 q-12 -29 -12 -65zM293 440q0 35 10 60q43 96 129 96q78 0 148 -45q37 -47 69 -100l51 -91v-67l-57 -78l-2 -2q-27 -27 -68 -27q-111 0 -235 111q-25 37 -35 73t-10 70z" />
<glyph unicode="p" horiz-adv-x="1069" d="M35 680h12l96 -96v-355q0 -10 -30 -30q-43 -31 -50 -86l-10 -11l21 -51l8 4l61 -61v-144q0 -74 -28 -102q-4 -4 -9.5 -8t-21.5 -14v-74h12l97 -96h49l13 2t30 6q2 2 8 2q4 0 8 1t8 1q14 4 23 6l10 2l31 -4q8 -2 15 -4t18 -6l53 -19h51v62l-35 45l4 -4l-8 24v262 q16 -8 27 -11l10 -3l72 -35h55q133 0 270 162q131 156 131 291v51q0 135 -110 258l-11 10q-6 4 -14 17l-10 8h2l-35 33q-6 10 -14 19t-17 20q-47 51 -95 88t-101 57l-232 -145v2l-69 69l-6 11q-33 51 -76 51q-27 0 -117 -66l-96 -69v-70zM55 700v39l88 64q86 61 105 61 q29 0 57 -43l68 -112l262 163q88 -37 178 -135q106 -119 107 -248v-51q0 -129 -127 -280q-133 -158 -261 -158h-53l-59 29q-12 8 -66 28v-288l8 -25l31 -39v-45h-33l-59 21q-8 4 -29 8l-32 4q-4 0 -50 -10q-20 -4 -32.5 -7.5t-18.5 -3.5h-35v41q18 10 27 23q33 33 33 114 v259q-14 0 -29 -9l-49 -22l-8 20l6 6q4 51 41 78q39 31 39 47v381q0 57 -29 76q-20 14 -80 14zM379 291q121 -37 217 -139h78l76 84q36 57 36 137q0 205 -194 313q-55 31 -68 31l-14 -12q-41 -35 -117 -68l-4 -150h-10l2 -32l2 -66l-4 -65v-33zM496 371h10l4 153 q72 33 113 68l8 6q8 -2 21.5 -9t35.5 -18q6 -4 23 -12q55 -80 55 -186q0 -70 -35 -127l-67 -74h-60q-49 49 -106 84l2 31l-2 65z" />
<glyph unicode="q" horiz-adv-x="1062" d="M31 348q0 -109 100 -227q45 -53 88 -86l53 -51q100 -100 220 -101q70 0 143 54v-142q0 -8 -8.5 -23.5t-18.5 -31.5h2q-2 -2 -4 -6t-4 -6q-4 -6 -7 -12.5t-3 -16.5q0 -45 33 -51l88 -88q10 -10 28 -11l50 21q27 12 73 12q33 0 49 -6l13 -6q8 -6 16 -6q29 0 37 -2l18 -2 l29 6v37l-12 12q-33 39 -33 78l2 1102l-96 96v12h-62q-23 -20 -42 -38.5t-35 -41.5l-80 43q-47 27 -82 27h-78q-76 0 -191 -70h2q-109 -61 -190 -166q-98 -117 -98 -231v-78zM51 348v78q0 109 92 219q78 96 187 160q111 67 176 67h2h78q27 0 73 -24l93 -47q2 2 4 3t6 5 q16 20 34.5 38.5t37.5 35.5h32l-2 -1088q0 -51 45 -96v-18l-16 -5l-12 2q-8 2 -41 3q-4 2 -9.5 4t-13.5 6q-18 8 -55 8q-49 0 -80 -14l-45 -19q-25 0 -25 33q0 6 7.5 16.5t14.5 23.5t14 28.5t7 27.5v332q-27 -2 -114 -66q-84 -61 -152 -61q-131 0 -244 135q-94 113 -94 213z M262 492q0 -70 66 -160q84 -115 213 -115q41 0 77 16l72 35v164h12l-12 6v27l12 14l-12 13v114q0 57 -92 111q-84 47 -145 47q-63 0 -129 -53q-61 -53 -62 -117v-102zM379 389v103q0 57 57 106h-2q61 49 121 49q25 0 53.5 -9t61.5 -26v-6v-123l4 -6l-4 -4v-192l-60 -29 q-14 -6 -30 -10t-39 -4q-70 0 -125 36q-37 61 -37 115z" />
<glyph unicode="r" horiz-adv-x="882" d="M35 707l18 -9l90 -90l29 -12v-465q0 -14 -35 -68h2l-33 -38l27 -45h10l97 -97h24l68 27q31 10 69 10q33 0 58 -10l55 -27l29 4q18 18 18 35q0 12 -33 55l-2 3q-23 29 -22 43v481q0 4 3 13t11 20h8l99 -97h43l184 273l-10 8q2 0 2 -2h2l-92 92l2 4q-35 41 -103 53l-86 17 q-72 0 -131 -66v2q-37 -43 -55 -59l-21 22q-39 55 -84 88l-40 21q-12 -4 -39 -24.5t-74 -55.5q-45 -35 -66.5 -62.5t-21.5 -43.5zM55 721q0 12 80 78q82 66 101 71l28 -14q74 -53 109 -131q10 4 67 70q56 69 121 69h2l86 -16q63 -12 82 -33l-174 -258h-20l-2 31l2 30v27 q0 55 -62 55q-23 0 -55 -36q-33 -33 -33 -58v-481q0 -18 28.5 -53t28.5 -47q0 -10 -10 -21l-22 -4l-50 25q-25 12 -63 12q-45 0 -76 -12l-61 -25h-17l-14 25l31 36q31 45 31 70v471q0 57 -43 82z" />
<glyph unicode="s" horiz-adv-x="960" d="M35 217q0 -104 92 -166l70 -69q14 -14 31.5 -25.5t37.5 -22.5q96 -51 219 -51q154 0 287 88q154 98 154 248v68q0 78 -64 151l-76 74q-12 20 -32 45v-2l-17 16q6 8 12.5 17.5t14.5 19.5l57 103v34l-96 97v12h-53q-33 -2 -47 -27l-9 -8l-129 49q-66 25 -135 25 q-59 0 -110.5 -20.5t-88 -57.5t-58 -87t-23.5 -110q-10 -12 -13 -34l23 -84q37 -98 115 -156q-25 10 -37 10q-53 0 -89 -42t-36 -95zM55 217q0 45 31 81t74 36q6 0 19.5 -3t26.5 -9.5t23.5 -12.5t10.5 -12q-4 -12 -17 -21q-33 -20 -33 -77q0 -59 55.5 -94t141.5 -35 q98 0 170 67.5t72 165.5q0 57 -38 102.5t-91 45.5q-31 0 -61.5 -32t-30.5 -63l6 -22l12 -12v-25q-244 0 -324 209l-22 80q2 16 12 26q0 55 19.5 103.5t54.5 83.5t83 54t103 19q63 0 129 -24l131 -51q10 0 29 18q10 16 33 19h31v-19l-56 -98q-35 -61 -98 -62h-57 q-23 0 -123 56q-102 55 -142 55q-16 -6 -30 -16q-33 -31 -33 -82q0 -68 84 -115q70 -39 145 -39q25 0 103 59q33 27 69 27h49q76 0 134 -70q59 -70 59 -141v-67q0 -141 -147 -236q-133 -86 -279 -86q-119 0 -213 49q-115 59 -115 168zM283 559v6q0 43 26 70l2 2q4 4 10.5 7 t14.5 5q33 -2 131 -53q4 -6 14 -8q-72 -53 -86 -53q-57 0 -112 24zM307 98q0 46 27 64q20 10 22 28q0 8 -8 17l-4 2q2 0 2 -2h2l-31 29q88 -55 226 -56v45l-15 13l-4 20q2 25 26.5 50.5t51.5 25.5h2q4 -20 4 -31q0 -86 -65 -151q-61 -61 -156 -62q-49 0 -80 8z" />
<glyph unicode="t" horiz-adv-x="763" d="M33 635h12l64 -64v-368q0 -57 88 -140q29 -29 53 -47l53 -51q88 -82 141 -82q29 4 140 74q27 16 58.5 38.5t62.5 45.5q0 27 -17 43l-84 84q-4 8 -16 25l-41 8q-12 -4 -19 -4h-22q-14 0 -26.5 1t-22.5 3v32v320q84 14 125 31q150 61 149 194v2q-4 25 -22 43l-78 76 q-8 27 -41 49l-62 -45q-8 -4 -23.5 -8t-37.5 -4h-10v268l-97 96v13h-43q-143 -72 -151 -80q-45 -57 -45 -182v-148q0 -4 -2 -6q-47 -59 -86 -135v-82zM53 655v58q16 37 36 66.5t40 51.5q12 14 12 27v148q0 125 29 159q4 4 42 25.5t110 56.5h18v-377h127q51 0 74 17l47 35 q22 -14 26 -41q0 -121 -139 -181q-23 -8 -55.5 -16t-79.5 -16v-332q0 -160 166 -160h22q8 0 21 4l31 -6q8 -8 8 -22q-31 -23 -59.5 -43.5t-55.5 -36.5q-104 -68 -133 -72q-45 0 -129 78q-82 80 -82 125v479q-16 2 -37 -12l-18 -15h-21z" />
<glyph unicode="u" horiz-adv-x="1144" d="M35 729q0 -37 31 -43l69 -68v-393q0 -68 117 -155l47 -47q27 -27 59 -52q98 -74 158 -90l227 137q23 -23 43 -32l72 -72q31 -31 51 -31l66 37l135 94v47l-96 97v12l-45 8v397q8 33 10 41.5t6 24.5q14 51 43 88l-8 29q-4 8 -6 10l-4 2q2 0 2 -2h2l-90 88v6q-6 23 -39 23 q-18 0 -43 -13h-2l-37 -12h-66l-26 12q-18 8 -54 9h-51v-56q8 -10 17.5 -21t19.5 -28l8 -31v-464q0 -29 -59 -70q-49 -33 -72 -33q-25 0 -45 6q-14 41 -14 95v137q6 10 8 12l10 16v158q0 66 -43 133q-8 10 -14 16.5t-12 12.5l-56 55q-2 2 -6 10q-25 31 -42 47.5t-36 16.5 l-118 -68q-117 -68 -117 -96zM55 729q0 18 105 78l114 65q12 0 48 -43q41 -66 40 -124v-152l-8 -12q-6 -4 -10 -21v-139q0 -88 43 -152q48 -71 131 -71h2q31 0 84 37q68 45 68 86v473l-8 26q-10 20 -19.5 32.5t-17.5 21.5v26h30q29 0 45 -6l33 -14h76l35 12q25 12 39 12 q16 0 18 -8l6 -22q-27 -37 -41 -86l-4 -18q-4 -17 -12 -52v-420l35 -82l106 -24v-27l-137 -96l-51 -29q-37 0 -133 158l-260 -158q-55 14 -148 86q-109 84 -108 139v426q0 25 -13 47q-16 10 -32 11h-19l-14 -2q-23 0 -23 22z" />
<glyph unicode="v" horiz-adv-x="1003" d="M33 739q0 -35 30 -41l89 -88v-336q0 -94 129 -192l47 -45q55 -57 157 -115q31 -18 54.5 -27.5t33.5 -13.5l35 31q43 37 101 113l39 51l2 2q31 37 43 53l30 37q70 84 117 199q16 35 22.5 65.5t6.5 54.5v48q0 91 -74 165l-61 60q-20 31 -43 53q-70 68 -101 68 q-16 -2 -38.5 -13.5t-57.5 -36.5q-66 -45 -98.5 -75.5t-32.5 -42.5l10 -23q2 -6 8 -10l2 -2q4 -8 11 -14h8l96 -97h57q16 -43 17 -71q0 -86 -76 -207l-70 -82q-16 8 -30.5 14t-24.5 12h2q-2 0 -3 1.5t-3 1.5q-4 10 -4 22v23v333q0 35 -11.5 65t-33.5 58q-4 6 -10.5 12.5 l-10.5 10.5l-63 61q-4 6 -7 11.5t-8 11.5q-37 49 -71 49l-105 -62q-111 -66 -110 -92zM53 739q0 12 103 74l100 59q14 0 49 -41q41 -53 41 -114v-334q0 -98 94 -156q25 -14 95 -43l79 95q78 121 78 217q0 51 -35 116q-41 72 -88 72h-67l-6 9t-4 5l-9 19q0 12 123 98 q59 41 86 45q18 0 84 -61q76 -74 76 -162v-47q0 -49 -27 -115q-43 -106 -114 -194l-33 -39q-4 -6 -15.5 -19.5t-27.5 -34.5l-41 -53q-59 -78 -98 -110l-29 -25q-18 4 -76 37q-219 127 -219 237v338q0 104 -70 105h-20q-29 0 -29 22z" />
<glyph unicode="w" horiz-adv-x="1468" d="M35 735q8 -35 45 -51l80 -80q0 -2 2 -4l2 -190l6 -185v-16q0 -16 -8 -35.5t-19 -34.5h17l8 -8q-4 -10 -10 -20.5t-13 -20.5l-39 -55q4 -14 8.5 -25.5t18.5 -17.5l4 -2h2l90 -90q2 -2 11 -6l-2 2l28 -13q8 0 22.5 3t35.5 14q39 14 47 14q14 0 38.5 -7l45.5 -13h4l2 -3 q25 -8 43 -8l24 4q16 16 17 39q-4 4 -6 10.5t-7 10.5q-16 25 -26 50.5t-10 53.5v451l118 76q6 -31 7 -64v-299q0 -59 110 -139l45 -45q16 -16 39 -35t51 -39q119 -82 156 -82q35 0 53 27l213 286q145 195 146 353q0 55 -58 145q-27 43 -49 66l-55 55q-55 86 -111 86 q-25 -2 -125 -78l-123 -96l25 -14l88 -87l104 -55q6 -18 7 -35v-73q0 -80 -76 -191q-66 -90 -68 -90q-12 0 -35 21q-4 6 -4 12v14v295q0 43 -20.5 88t-65.5 92q-2 2 -4 2l-2 2v2l-39 37q2 -4 11 -8l-23 21q-8 12 -18.5 24t-22.5 27q-76 82 -115 82q-27 0 -155 -90 q-27 -18 -47.5 -31.5t-36.5 -24.5l-74 72q-4 8 -10 15.5t-10 15.5l-60 51q-45 -6 -131 -62q-96 -59 -96 -96zM55 741q0 16 88 72q92 57 113 59l57 -49q53 -66 54 -131q18 0 145 86q125 86 143 86q31 0 101 -76q82 -84 82 -170v-294q0 -51 73 -115q63 -55 82 -55q12 0 84 98 q80 113 80 203v73q0 76 -63 121l-144 74l99 76q92 70 114 73q43 0 99 -92q55 -90 55 -137q0 -152 -143 -344l-213 -287q-14 -20 -41 -20q-31 0 -148 80q-131 92 -131 143v299q0 68 -18 123q-29 80 -78 80l-166 -105v-458q0 -37 16.5 -68t32.5 -61q0 -12 -8 -21l-21 -4 q-6 0 -43 10q-20 6 -45.5 13.5t-42.5 7.5q-14 0 -53 -17q-35 -14 -49 -14l-25 10q-8 2 -12 21l33 47q33 45 35 82h-15q8 12 8 49v16l-6 185l-2 196q0 98 -98 99q-23 10 -29 36z" />
<glyph unicode="x" horiz-adv-x="1120" d="M35 94q0 -49 59 -84l72 -71q16 -16 41 -29q51 -27 94 -27q92 0 244 256q27 -53 49 -76q29 -35 61 -53l45 -45q2 -4 4.5 -5t6.5 -5l6 -6q68 -68 166 -68q29 2 108 68q82 68 82 92q0 14 -18 43l-88 86q-2 6 -5.5 12t-7.5 13l-26 -11l-21 -4h-55q-6 0 -18 4 q-8 12 -15.5 24.5t-15.5 29.5q-96 156 -96 194q0 29 47 94q43 55 65 62l58 -19l55 -8q59 0 106 55q47 57 47 115v4h-2l-6 19l-14 30l-90 88l-8 21h-39l-27 -21q-4 -4 -14 -4q-20 0 -33 6l-61 19q-94 0 -166 -109q-12 -14 -29.5 -42.5t-42.5 -71.5l-18 18l-50 47 q-23 31 -47 54.5t-47 44.5q-66 51 -112 51q-20 0 -121 -84q-100 -82 -101 -107q6 -16 27 -20l86 -86q12 -12 33 -13h37l30 7h2q25 0 54 -13q31 -43 61 -104q33 -70 33 -74q0 -29 -76 -127q-25 -29 -43 -50t-31 -32l-59 62v12h-61q-4 -8 -11 -14q-4 -4 -5 -7.5t-3 -5.5 q-8 -10 -14 -19t-13 -17l-12 -19zM55 86l54 76q10 14 23 32.5t30 41.5h28q0 -80 58 -86q35 0 112 102q80 100 80 139q0 8 -34 82q-109 225 -238 225l-33 -6h-35q-20 0 -22 6q0 10 92 88q94 78 109 78q37 0 100 -47q86 -68 168 -207q33 61 56.5 101.5t37.5 60.5 q70 100 143 100l56 -16q14 -8 45 -8q18 0 26 8l23 16h18l11 -22q2 -4 6 -16q0 -55 -43 -107q-41 -49 -95 -49l-51 8l-59 19q-33 0 -82 -68t-49 -102q0 -47 98 -203q106 -172 164 -172h63l19 4l12 4q10 -16 10 -25q0 -20 -75.5 -81.5t-102.5 -63.5q-102 0 -170 80 q-33 41 -78 155q-33 82 -59 84q-176 -317 -272 -317q-39 0 -88 25q-55 27 -56 61z" />
<glyph unicode="y" horiz-adv-x="1011" d="M33 750q0 -37 39 -54l84 -84q4 -4 8 -6t10 -6v-379q0 -82 111 -168l4 -4l55 -53q6 -6 12 -12.5t17 -12.5l-27 -43q-37 -59 -37 -102v-49q0 -33 33 -74q6 -14 13 -22.5t18 -18.5l16 -16l4 4l99 -99l92 54q90 47 90 73q0 10 -6 17l-90 90q-4 12 -9 16q10 29 35 74t66 111 l200 321q109 168 109 264v62q0 43 -37 92q-6 8 -18 20l-4 3h2l-64 63q-4 4 -7 9t-7 11q-35 53 -94 54l-101 -60q-104 -66 -104 -94q0 -16 30 -31l84 -84q8 -12 31 -20v-94l-88 -162q-82 -147 -100 -150q-4 14 -5 26.5t-1 25.5v342q0 37 -62 116q-16 25 -37 45l-61 62 q-66 86 -113 86l-94 -68q-20 -14 -37.5 -26.5t-30.5 -22.5q-2 -2 -4 -2l-2 -2l-6 -6zM53 741q4 4 11.5 10.5t9.5 8.5q12 8 67 49l90 63q29 0 88.5 -77.5t59.5 -108.5v-342q0 -51 35 -111q37 -63 88 -63q31 0 119 162l90 166v120q0 53 -74 78q-72 25 -72 35q0 16 97 76l96 57 q37 0 69 -45q35 -47 35 -84v-61q0 -88 -106 -256l-201 -322q-109 -174 -109 -223q0 -43 56 -63q55 -23 55 -29q0 -16 -82 -62l-84 -47l-4 4q-20 20 -29 37q-29 35 -28 64v49q0 33 35 90l53 84l-131 78q-92 70 -92 143v397q0 98 -117 99q-25 8 -25 24z" />
<glyph unicode="z" horiz-adv-x="978" d="M35 629q6 -25 18 -37l21 -19h6l80 -79l18 -17q41 0 58 60q10 37 28 55l35 -35q41 -41 84 -41h45l-33 -41l-76 -102h3l-175 -213q-86 -104 -86 -123q0 -37 31 -43l88 -88q10 -10 29 -10q18 0 65 20q43 18 52 18h98l133 -34q33 -8 53.5 -12.5t34.5 -4.5q74 0 186 97 q113 100 113 170l-4 10l-92 92v2l-4 10l-19 19l-22 6q-12 0 -28.5 -14.5t-45.5 -38.5q-39 -39 -59 -39h-74l-59 8h2l-37 6q16 18 32.5 39.5t38.5 48.5l353 424v53l-97 96v13h-75q-16 -8 -40 -15.5t-57 -13.5h2l-65 -6q-41 0 -92 12l-140 31h-94q-96 0 -172 -117h2 q-63 -94 -63 -147zM55 633q0 41 60 131q71 108 152 108h1h88l140 -30q55 -12 100 -13l66 7q33 6 56 13t40 15h51v-35l-348 -419q-127 -152 -135 -185l209 -41l61 -8h74q29 0 73 45q51 47 54 47l20 -6l10 -10q0 -63 -108 -160q-109 -92 -176 -92q-10 0 -30.5 4t-53.5 12 l-133 35h-103q-14 0 -57 -20q-47 -18 -60 -19q-25 0 -24 25q0 12 80 110l182 224l68 92l73 92l123 147h-24l-107 -34q-45 -14 -75.5 -22.5t-51.5 -12.5h-69q-37 0 -72 35l-39 53q-35 -27 -51 -78q-12 -49 -37 -49l-14 12q-10 10 -13 27z" />
<glyph unicode="{" horiz-adv-x="772" d="M33 381h12l96 -96q10 -2 17 -2q8 0 16 -2q0 -16 1 -37t1 -45v-379q0 -131 96 -221q10 -10 20.5 -17.5t20.5 -15.5l66 -66q92 -86 227 -86h131v168l-96 96v13q-53 2 -89 3t-54 5q-2 14 -1 35.5t1 50.5v365q0 43 -3 73.5t-8 52.5q-10 51 -43 84l-18 19q72 78 72 254v442 q10 35 36.5 56.5t61.5 21.5h141v172l-96 96v13h-147q-129 0 -224 -88q-94 -84 -94 -216v-352q0 -53 -5 -92t-15 -63h2q-29 -51 -125 -82v-160zM53 401v125q100 33 127 97q16 43 17 155v352q0 121 88 201q88 82 209 82h127v-143h-127q-41 0 -74 -28t-41 -68l2 -3v-436 q0 -188 -82 -258q55 -35 72 -100q10 -47 10 -125v-365q0 -90 6 -110q20 -76 94 -96q14 -4 48 -6.5t92 -4.5v-139h-117q-129 0 -217 82q-90 84 -90 207v379q0 117 -11 143q-23 53 -133 59z" />
<glyph unicode="|" horiz-adv-x="399" d="M37 70q0 -88 45 -101l86 -86q12 -12 33 -12q6 0 21.5 2t27.5 6q8 2 14 4q4 0 11.5 -4t17.5 -8l2 -2l31 -19q25 0 24 48q0 100 -6 307q-6 205 -6 309q0 113 12 344q12 229 12 346q0 66 -24 90l-82 82q-16 39 -55 39q-12 -6 -36 -10t-59 -8h-4q-2 0 -14 18q-41 0 -41 -51 l8 -604q0 -16 -1 -44t-3 -69q-2 -31 -2 -67q0 -37 -2 -82v-41q0 -10 -1 -21.5t-1 -21.5q-4 -104 -6 -189.5t-2 -154.5zM57 70q0 70 2 154.5t7 189.5q4 141 7 226t3 120l-8 604q0 31 10 31q14 -20 28 -19q76 8 99 19q41 0 41 -88q0 -117 -13 -346q-12 -231 -12 -345 q0 -104 6 -309q6 -207 6 -307q0 -33 -6 -33l-26 17q-33 16 -43 16l-8 -2q-9 -2 -19 -4t-20.5 -4t-12.5 -2q-41 0 -41 82zM188 1303l11 -11q-9 5 -11 11z" />
<glyph unicode="}" horiz-adv-x="772" d="M35 -309v-180h12l96 -97h131q133 0 226 86q94 88 94 217v379q0 109 2 113q12 70 129 76l14 14v135l-96 96v11q-12 4 -22.5 7t-20.5 7q-4 23 -5 51.5t-1 69.5v352q0 121 -80 201l-4 2q2 0 2 -2h2l-63 63q-10 14 -21.5 27.5t-26.5 26.5q-94 88 -223 88h-145v-185h12l96 -96 h131v-418q0 -170 70 -254q-55 -47 -68 -116q-2 -6 -2 -113v-365q0 -84 -6 -104q-10 -33 -38.5 -59.5t-59.5 -28.5zM55 -330l115 4q37 2 73 33t46 70q6 20 6 110v365q0 98 2 104q12 82 78 123q-80 70 -80 256v434q-6 43 -38 72t-77 29h-125v143h125q121 0 209 -82 q88 -80 88 -201v-352q0 -113 17 -155q29 -63 129 -97v-125q-129 -6 -144 -88q-2 -4 -2 -114v-379q0 -123 -90 -207q-88 -82 -215 -82h-117v139zM457 377l10 -10q-4 2 -5 4t-5 6z" />
<glyph unicode="~" horiz-adv-x="796" d="M33 975l14 -4l94 -94l29 -7q2 16 27 17q-2 0 8 -2t26 -6q6 -2 12.5 -3.5t22.5 -5.5l68 -16l-2 2l51 -20q8 -4 13 -7.5t7 -5.5v2q33 -16 42.5 -20t11.5 -6h2l63 -11h15q68 0 139 82q66 72 78 144l8 22v37l-96 96v13l-66 12q-47 -72 -96 -72h-8v2l-62 17l-69 30l-91 17h-16 q-78 0 -145 -68q-68 -61 -80 -145zM53 977q12 70 74 129q61 61 131 61h12l90 -16l70 -31l57 -16l17 -2q59 0 106 67l35 -6v-20l-8 -23q-10 -68 -74 -137q-68 -78 -129 -78h-12l-60 10q-6 2 -21 9.5t-54 25.5l-51 21l-68 16q-72 16 -74 17q-35 0 -41 -27z" />
<glyph unicode="&#xa1;" horiz-adv-x="450" d="M35 1151q0 -37 18.5 -64.5t48.5 -42.5l74 -73q37 -37 90 -37q113 0 113 127q0 41 -12 82q-10 39 -27 53l-82 82q-23 41 -53 41q-47 0 -109 -62q-61 -55 -61 -106zM49 147q0 -115 72 -149l78 -78q37 -37 108 -37q4 16 10.5 36t10.5 30q6 20 9 32.5t5 18.5q10 41 15 66.5 t8 37.5q2 4 2 9q0 6 2 12q4 27 10 62.5t12 78.5q25 160 25 238q0 117 -29 182q-14 31 -36.5 63.5t-57.5 67.5l-47 45q-29 41 -84 92q-25 -59 -38 -97t-18 -52q-8 -47 -12 -115.5t-4 -159.5q0 -31 -5 -77.5t-15 -112.5v2q-20 -121 -21 -195zM55 1151q0 39 56 92q55 55 94 55 q31 0 45 -57q12 -41 12 -78q0 -113 -98 -112q-43 0 -76 28.5t-33 71.5zM70 147q0 70 20 191q10 66 15.5 113t5.5 79q0 88 4 157t12 116q6 29 41 117q76 -70 104 -138q27 -61 27 -176q0 -76 -25 -235q-8 -53 -15 -93t-11 -67q0 -10 -23 -105q-2 -10 -10 -35.5t-22 -70.5 q-123 0 -123 147z" />
<glyph unicode="&#xa2;" horiz-adv-x="829" d="M33 745q0 -190 39 -331q45 -176 135 -228l69 -69v-78q0 -57 39 -70l86 -86q14 -14 43 -14q4 0 15.5 2t21.5 6l11 4q4 -2 9 -3t11 -5l14 -4q31 0 31 29v165q0 14 23 15q117 0 172 -12l18 -5q27 0 27 39q0 25 -27 64q-12 18 -29 35l-63 61l-2 2l-4 8h2q-45 74 -195 136 q-35 12 -63 30q-51 95 -51 234q0 66 20 121q10 31 23 43q0 -25 -1 -42.5t-4 -27.5q0 -2 -1 -3t-1 -3v-4q0 -18 13.5 -35t31.5 -23l80 -78q10 -10 22.5 -16t24.5 -6t21.5 4t17.5 8q119 92 119 346q0 100 -43 144l-80 78q-14 31 -45 47v47q0 18 -8 26l-90 88q-6 31 -45 31 q-2 0 -14.5 -1t-22.5 -5l-31 -8l-28 6q-35 0 -35 -43v-123q0 -4 -2 -4q-6 2 -15 2h-16q-131 0 -186 -190q-37 -123 -37 -304zM53 745q0 174 37 297q59 195 191 175q29 -4 28 24v123q0 23 10 22l31 -6q2 0 13.5 2t22.5 5.5t21.5 5.5t12.5 2q27 0 26 -23v-123q0 -35 25 -35 q57 0 53 3q90 -16 90 -160q0 -246 -112 -334q-14 -10 -31 -10q-20 0 -36.5 15t-10.5 34q2 10 3 27.5t1 44.5q0 143 -78 143q-55 0 -82 -80q-20 -55 -20 -125q0 -213 123 -326q16 -16 41.5 -30.5t58.5 -28.5q137 -59 184 -129q25 -37 25 -55q0 -25 -8 -25l-19 4 q-55 12 -176 13q-37 0 -37 -29v-166q0 -14 -12 -14q-2 0 -19.5 6t-21.5 6q-2 0 -21.5 -6t-23.5 -6q-45 0 -45 53v111q0 35 -21 34q-127 16 -184 236q-39 141 -39 325zM471 1223v2l2 -2h-2z" />
<glyph unicode="&#xa3;" horiz-adv-x="1056" d="M35 682q0 -45 24.5 -86t65.5 -64l70 -69q18 -20 49 -35q-8 -166 -127 -315q-20 -25 -27.5 -43.5t-7.5 -30.5q0 -37 37 -51l84 -84q27 -23 90 -23q25 0 57.5 3t77.5 7.5t78 7.5t55 3q29 0 75 -3t105 -12q119 -12 185 -12q96 0 96 57v2l-16 93q-4 53 -7.5 92t-5.5 65 q-6 100 -35 129l-84 82q-16 37 -43 37q-59 0 -59 -74q0 -59 -6 -79q-14 -49 -64 -50h-6l-129 7q-8 0 -13 1t-9 1h-33q-20 0 -29 -2q13 57 13 116v27l-4 63q10 2 16 3t14 4q41 4 63.5 7t26.5 3q6 0 41 -13q37 -12 43 -12q33 0 33 37q0 51 -59 115l-66 65q-8 10 -15 20.5 t-18 20.5q-47 47 -108 47h-8q10 84 63 132.5t144 48.5q37 0 71 -11l19 -30q12 -12 22 -15l86 -86q12 -12 33 -12q66 0 65 135q0 117 -75 193l-66 65q-14 20 -32.5 40t-41.5 36v-2q-92 68 -225 67q-92 0 -166 -32q-213 -90 -213 -324q0 -76 25 -164l22 -82q-10 -4 -16 -4h-10 t-56 13q-6 2 -16 2q-4 0 -5 -1t-3 -1l-2 2v12q-43 0 -43 -39zM55 682q0 18 17 18q-18 0 26 -14q51 -12 62 -12q29 0 53 8l-29 104q-25 88 -24 158q0 221 200 305q74 31 158 31q135 0 223 -70q100 -76 101 -206q0 -121 -51 -121q-14 0 -23 8l-31 57q-45 88 -178 88 q-104 0 -162.5 -61.5t-58.5 -167.5q0 -12 3 -38t7 -64q33 8 61.5 11t53.5 3q53 0 94 -41q55 -59 55 -105q0 -23 -18 -22q-2 0 -39 12q-35 12 -45 12q-8 0 -42 -4t-93 -12l4 -78q8 -158 -94 -342q109 78 227 78h27q-8 0 -2 0q8 0 30 -2l129 -6q72 -4 90 63q6 20 7 86 q0 53 38 54q37 0 46 -125q2 -53 12 -160l16 -92q0 -43 -82 -43q-63 0 -182 12q-59 8 -105.5 11t-76.5 3q-23 0 -56.5 -3t-78.5 -7t-78 -7t-56 -3q-88 0 -88 41q0 25 39 72q123 156 123 344q0 10 -3 32.5t-7 55.5l-68 -6q-27 0 -50 12t-41.5 32.5t-29 47t-10.5 53.5z" />
<glyph unicode="&#xa4;" horiz-adv-x="1042" d="M35 227q0 -35 31 -41l88 -88q10 -10 32 -10h29l12 2l25 -2l67 -8q29 0 43 14l76 105q45 -29 77 -40.5t54 -11.5q35 0 113 54q8 -6 14 -11.5t13 -9.5l71 -69q31 -31 51 -31l84 10l48 -2h6q37 0 37 37q0 14 -17 31l-82 80q-6 16 -30 38q-14 10 -27.5 21.5t-26.5 21.5 q-4 4 -5 7.5t-3 7.5q88 98 88 219q0 111 -72 201q35 49 70 83.5t64 55.5q41 31 41 51q0 16 -11 27l-88 86q-6 33 -41 32h-6l-57 -4h-10q-12 0 -48 11l-22 6q-35 -10 -47 -29l-70 -98q-31 10 -45 10l-53 -8q-25 -4 -40 -6t-19 -2h-3l-34 4l-43 6q-8 0 -13 -2l-73 76l-23 30 q-18 18 -41 19l-16 -6q-31 -10 -49 -11h-13l-30 2h-2l-21 2q-51 0 -51 -43q0 -25 43 -55q8 -8 24 -20l58 -60q8 -8 14 -15t14 -15q-41 -51 -59 -106.5t-18 -110.5q0 -133 92 -252q-39 -43 -71 -75t-54 -52v2q-45 -33 -45 -58zM55 227q0 12 27 33q33 27 70.5 63.5t80.5 86.5 q-100 113 -100 252q0 121 84 217q-70 90 -125 127q-35 25 -35 38q0 23 29 23l23 -2l32 -2q31 -2 68 10l16 6q8 0 19 -10l88 -119q20 6 35 6l43 -6l36 -4q18 0 66 8l51 9q20 0 49 -17l80 113q14 18 29 20l18 -6q39 -12 64 -10l57 4q29 4 29 -23q0 -14 -35 -38 q-61 -41 -143 -152q76 -88 75 -201q0 -119 -90 -215q41 -76 168 -178q25 -23 25 -33q0 -27 -29 -22l-47 2l-86 -10q-18 0 -65 59q-10 14 -25.5 34.5t-36.5 47.5q-98 -74 -133 -74q-41 0 -135 58l-84 -117q-8 -8 -29 -8l-67 8l-25 2l-16 -2h-27q-29 0 -29 22zM260 743 q0 -61 18.5 -114.5t53.5 -93t84 -62t110 -22.5q144 -1 144 122q0 145 -127 248q-66 53 -140 53q-143 0 -143 -131zM377 641q0 117 129 117q53 0 94 -27q49 -72 49 -158q0 -102 -123 -102q-70 0 -120 31q-29 57 -29 139z" />
<glyph unicode="&#xa5;" horiz-adv-x="1470" d="M35 1106q10 -33 47 -49l80 -80q10 -10 24 -16q8 0 25 8h-2q14 8 31 10l4 -6q16 -25 35 -99l6 -18l75 -266h-141v-205h12l62 -61h-74v-205h12l97 -96h317l25 -25q8 -8 15 -14.5t17 -14.5l-15 -24t-5 -13q-66 -76 -139 -75q-35 0 -62 6l-12 24l-86 86l-16 31l-91 -139 l-69 -111q0 -35 43 -59l80 -80q18 -18 69 -35q61 -18 90 -18h111q74 0 178 96q33 33 56.5 57.5t35.5 38.5l56 78q10 14 35.5 62.5t70.5 128.5h318v192l-74 74h74v192l-37 37q125 231 125 320v51q0 45 -66 110l-49 50q-10 14 -31 38q4 4 6 11l54 -54q41 8 51 18.5t10 47.5 q0 33 -29 61l-6 5l1 -1t3 -1l-73 71q-12 27 -43 49q-25 20 -48.5 28.5t-43.5 8.5h-50q-49 0 -106 -51q-55 -49 -55 -98v-88q0 -35 129 -172q47 -53 47 -99q0 -86 -58 -196l-20 -37h-350l-31 112q-45 160 -71 250.5t-36 108.5q-16 39 -33.5 68.5t-37.5 50.5l-68 67 q-59 84 -133 84q-27 -2 -147 -98q-119 -94 -119 -127zM55 1112q0 16 111 107q115 90 137 92q90 0 156 -154q12 -29 104 -356l66 -232h444l27 49q59 113 59 205q0 53 -53 113q-123 131 -123 158v88q0 37 49 84q51 45 92 45h50q39 0 79 -33q43 -31 43 -66q0 -29 -6 -37 t-28 -12l-9 37q-6 27 -28 31q-20 0 -35 -14q-16 -23 -16 -35q0 -8 73 -78q74 -68 74 -113v-51q0 -88 -141 -348l-13 -23h66v-163h-158l-59 -103h217v-164h-309q-47 -86 -75 -134t-38 -62l-55 -80q-12 -14 -35 -37l-55 -55q-102 -92 -168 -93h-111q-25 0 -86 19 q-74 20 -74 49l68 107l72 108l32 -61q33 -63 144 -64q84 0 155 84q8 12 50 80q-113 43 -197 139h-311v164h227l-33 103h-194v163h147l-82 293q-27 94 -39 115l-55 98q-23 20 -55 25q-23 0 -43.5 -11.5t-26.5 -11.5q-23 10 -31 35zM688 406q23 -70 43 -103h193l12 21l51 82 h-299z" />
<glyph unicode="&#xa6;" horiz-adv-x="329" d="M37 293v-608h12l96 -97h148v596l-96 97v12h-160zM37 692h12l96 -96h148v641l-96 96v13h-160v-654zM57 272h119v-567h-119v567zM57 713v612h119v-612h-119z" />
<glyph unicode="&#xa7;" horiz-adv-x="788" d="M35 172q0 -49 24.5 -88t67.5 -66l66 -63q51 -51 133 -64q49 -6 88 -6q184 0 260 119q47 68 47 150q0 49 -19.5 94t-54.5 80l-67 67q119 72 118 234q0 119 -67 186l-66 64q-29 51 -94 88q-68 14 -117 43q-12 33 -12 80q0 72 34 125t89 69q-6 -12 -6 -29v-18q0 -66 45 -80 l84 -82q20 -20 65 -20q88 0 99 96v2q0 6 1 11t1 12q0 61 -43 104l-74 72q-23 39 -74 71q-72 39 -186 39q-66 0 -118 -18.5t-99 -52.5q-96 -72 -97 -205q0 -139 115 -213l15 -15q-127 -68 -127 -233q0 -147 118 -227l62 -62q25 -25 63 -47q66 -23 111 -47q27 -41 26 -100 q0 -4 -1 -7.5t-1 -7.5v-14q-8 -57 -40.5 -98t-81.5 -56q2 8 6 25v12q0 39 -25 64l-6 4l1 -1t3 -1l-78 78q-10 23 -33.5 38t-52.5 15q-92 0 -102 -103v-18zM55 188q10 84 82 84q35 0 56.5 -24.5t17.5 -59.5q-8 -63 -57 -63h-29q23 -59 53 -72q49 -20 94 -20q78 0 131.5 50 t61.5 130q20 211 -258 293q-121 68 -121 219q0 184 166 238q-168 63 -168 223q0 121 88 190q84 66 205 66q106 0 178 -37q92 -50 80 -150q-10 -84 -84 -84q-80 0 -72 82q6 63 58 64h26q-23 88 -147 92q-86 2 -138.5 -60.5t-52.5 -156.5q0 -186 244 -246q113 -57 113 -215 q0 -190 -172 -248q41 -6 76.5 -26.5t61 -51t41 -68.5t15.5 -81q0 -76 -45 -141q-74 -113 -248 -113q-41 0 -86 6q-80 10 -129 60.5t-41 119.5zM190 707q0 -158 129 -166q72 -6 113 55q35 53 35 127q0 70 -27 121q-35 66 -96 65q-72 0 -115 -67q-39 -57 -39 -135zM307 582v22 q0 72 37 127t94 62q8 -31 8 -70q0 -35 -8 -62.5t-24 -52.5h2q-35 -47 -84 -47h-13h-10q-2 10 -2 21zM700 1288l5 -4z" />
<glyph unicode="&#xa8;" horiz-adv-x="772" d="M35 1292q0 -57 20 -125q23 -88 64 -100l84 -84q14 -14 33 -14q61 0 122 98q8 14 15.5 26.5t15.5 24.5q18 -41 47 -51l84 -84q14 -14 33 -14q61 0 122.5 98t61.5 135q0 53 -39 92l-73 74q-20 35 -56.5 56.5t-76.5 21.5q-57 0 -93.5 -36t-44.5 -91l-45 47q-18 35 -55 57.5 t-80 22.5q-63 0 -101 -44t-38 -110zM55 1292q0 55 33 94t86 39q51 0 90 -34.5t39 -85.5q0 -31 -59 -127q-60 -93 -111 -93q-33 0 -57 89q-20 68 -21 118zM373 1292q0 55 32.5 94t86.5 39q51 0 90 -34.5t39 -85.5q0 -31 -60 -127q-59 -93 -110 -93q-33 0 -58 89 q-20 68 -20 118z" />
<glyph unicode="&#xa9;" horiz-adv-x="1751" d="M35 731q0 -334 233 -555q29 -31 64 -57l43 -41q229 -221 563 -221q332 0 555 229q223 233 223 563q0 322 -223 541l-29 29q-18 23 -38.5 45t-43.5 45q-238 227 -567 227q-334 0 -557 -235.5t-223 -569.5zM55 731q0 326 217 555.5t543 229.5q322 0 553 -222 q231 -218 231 -542t-219 -553q-219 -225 -544 -226q-328 0 -553 217q-227 217 -228 541zM184 723q0 -264 195 -447q186 -174 457 -174q262 0 444 195q174 187 174 455q0 264 -192 442q-190 178 -457 178q-264 0 -443 -192q-178 -190 -178 -457zM301 621q0 260 174 446 q174 188 432 188q219 0 389 -127q138 -157 138 -376q0 -260 -168 -441q-176 -188 -430 -188q-256 0 -433 158q-102 141 -102 340zM410 645q0 -66 49 -147q63 -111 151 -168l45 -45q106 -106 246 -107q102 0 191 53q59 41 110 109q45 55 45 80v4l-8 20l-92 91l-4 14 q-10 10 -17.5 14t-11.5 6q-2 0 -6 1t-6 1q-4 -4 -12.5 -10t-24.5 -22q-8 -8 -15.5 -12.5t-11.5 -8.5q-6 -4 -10 -10q-51 -45 -98 -45h-53q-94 0 -185 72q-47 69 -47 147q0 82 61.5 149.5t143.5 67.5q37 0 88 -22q-4 -10 -4 -25q0 -12 -2 -31l-4 -8l8 -59h12l96 -97h58v60 q0 49 37 110l65 111q10 14 15.5 23.5t9.5 15.5t7 13t7 18q-4 8 -6 13t-8 11l-82 82q-4 6 -6 11t-17 20l-10 6q-23 0 -43 -16l-22 -19q-16 4 -25.5 7t-17.5 3l-19 4l-49 13q-47 10 -76 10q-49 0 -123 -31q-193 -82 -278 -231q-51 -84 -51 -162v-84zM430 645v84q0 66 49 150 q90 152 269 225q74 29 114 29q25 0 72 -11q31 -8 48 -11t22 -5q6 0 47 -12l32 24q12 12 23 12l12 -8l6 -12l-8 -16q-8 -17 -26 -45l-66 -111q-39 -63 -39 -119v-45h-31l-6 37l4 8q4 45 9 58l14 38q-10 8 -30.5 21.5t-49.5 30.5q-86 49 -147 49q-88 0 -154 -72t-66 -160 q0 -115 115 -229q113 -113 234 -113h53q55 0 114 54q10 10 46 39q6 6 18 14q12 -4 16 -8l6 -19q0 -20 -40 -71q-23 -29 -49.5 -55.5t-59.5 -49.5q-88 -51 -182 -51q-193 0 -322 215q-47 82 -47 135zM1251 1184q6 -4 11.5 -10.5t11.5 -12.5z" />
<glyph unicode="&#xaa;" horiz-adv-x="585" d="M35 301h12l96 -96h410v117l-72 71q8 12 8 31q0 31 -6 96q0 10 -1 18.5t-1 16.5q-2 18 -2 33v24q0 76 -1 118t-9 48l-14 15h26q-4 45 -30 73l-80 78q-23 45 -88 66q-8 2 -54 2h-32q-25 0 -41 -17q-49 -53 -74 -80l-8 -8v-2q-8 -8 -11.5 -17t-3.5 -14q0 -29 25 -32l25 -25 q-63 -70 -64 -182q0 -61 23 -100q16 -41 51 -58l49 -47h-133v-129zM55 322v88h381v-88h-381zM66 635q0 137 118 213q4 2 10.5 6t16.5 8q-8 -14 -18 -51q-31 -96 -31 -117q0 -90 57 -90q59 0 55 139.5t-75 151.5q-37 6 -90 -27q-29 -16 -29 6q0 8 8 17q12 14 32.5 36.5 t49.5 53.5q10 10 27 10q31 2 50 1t29 -3q86 -23 89 -94q-2 10 -3 -180q0 -16 1.5 -39t3.5 -55q6 -66 6 -95t-17 -28q-18 0 -54 7t-54 7q-4 0 -14.5 -3t-30.5 -7q-41 -10 -45 -10q-47 0 -72 51q-20 39 -20 92z" />
<glyph unicode="&#xab;" horiz-adv-x="798" d="M35 403q4 -16 4 -18l18 -182q8 -53 52 -70l81 -80q20 -20 56 -20h69q66 0 66 61l-4 25l67 -66q20 -20 56 -20h69q66 0 66 61l-33 248l141 242l19 39l2 14q0 23 -12 35l-86 86q-10 37 -64 37h-57l-47 -9q-14 -6 -27.5 -21t-28.5 -36l-2 -2l-28 29q-10 39 -64 39h-57 l-47 -9q-16 -8 -29.5 -23t-28.5 -34l-118 -203l-27 -57l-6 -41v-25zM55 410v16l6 37l17 37l137 233q18 25 33 33l47 8h53q45 0 45 -31l-4 -20l-10 -21l-148 -253l33 -254q0 -45 -51 -45h-70q-53 0 -65 59l-19 178q0 6 -4 23zM309 438l4 17l6 22l13 23l137 233q18 25 33 33 l47 8h53q45 0 45 -31l-4 -18l-10 -23l-148 -253l33 -254q0 -45 -51 -45h-70q-53 0 -65 59z" />
<glyph unicode="&#xac;" horiz-adv-x="1091" d="M31 379h12l96 -96h584v-303h12l96 -97h224v604l-97 97v12h-927v-217zM51 399v176h887v-575h-195v399h-692z" />
<glyph unicode="&#xad;" horiz-adv-x="794" d="M29 618l16 -4l94 -94l29 -6q2 14 27 14q18 0 67 -16t74 -16q20 0 100 -43q2 -2 4 -2t4 -2q4 -2 8.5 -4.5t8.5 -2.5l61 -12h15q70 0 141 82q66 72 76 145l6 19l4 39l-98 96l2 12l-68 11q-39 -49 -51 -54q-16 -16 -43 -16h-10v2l-62 18l-74 29l-86 16h-18q-72 0 -141 -69 q-68 -68 -86 -142zM51 618q14 63 78 127t127 64h14l88 -16l72 -29l57 -19l17 -2q37 0 57 21q10 4 47 47l37 -6l-2 -23l-6 -18q-10 -72 -72 -139q-68 -78 -131 -78h-12l-62 12q-4 2 -9 4t-11 4q-82 45 -107 45q-20 0 -69 16.5t-72 16.5q-39 0 -41 -27z" />
<glyph unicode="&#xae;" horiz-adv-x="1751" d="M35 731q0 -334 233 -555q29 -31 64 -57l43 -41q229 -221 563 -221q332 0 555 229q223 233 223 563q0 322 -223 541l-29 29q-18 23 -38.5 45t-43.5 45q-238 227 -567 227q-334 0 -557 -235.5t-223 -569.5zM55 731q0 326 217 555.5t543 229.5q322 0 553 -222 q231 -218 231 -542t-219 -553q-219 -225 -544 -226q-328 0 -553 217q-227 217 -228 541zM184 723q0 -264 195 -447q186 -174 457 -174q262 0 444 195q174 187 174 455q0 264 -192 442q-190 178 -457 178q-264 0 -443 -192q-178 -190 -178 -457zM289 997q0 25 28 29 q12 0 31 -30.5t58 -30.5q47 0 143 59l174 109q96 59 188 59q78 0 131 -47q47 -35 74 -88l25 -47l18 -6q23 -10 23 -31q-14 -16 -44 -39t-77 -51q-23 -16 -43.5 -26.5t-36.5 -18.5l14 -27l27 -29q10 -47 20.5 -87t20.5 -72q37 -123 63 -142l21 -2l27 2h18l2 -14l-2 -8 q-2 -6 -14 -19l-52 -34q-18 -12 -45 -46l-22 -22q-53 0 -96 106q-8 18 -22.5 67.5t-37.5 131.5q-29 104 -55 105q-16 0 -39 -47.5t-39 -47.5q-10 0 -19.5 16.5t-11.5 18.5l13 27q6 27 122 104l101 66q16 10 41 37q0 41 -37 88q-47 59 -121 59q-76 0 -162 -39l-161 -72 q-94 -41 -134 -40q-39 0 -75.5 21.5t-36.5 57.5zM301 621q0 143 53 266l47 -45q16 -18 43 -29.5t56 -11.5v-361q-12 -25 -19.5 -39t-11.5 -22q6 -33 33 -43l88 -86q12 -12 35 -12l45 14h2l26 4h2q12 0 26.5 -5t31.5 -13l33 -5q18 4 26 13l17 16l-29 45l-23 23q4 49 6.5 92 t2.5 78v106l59 -59q10 -10 22 -10q16 0 33 18q12 -43 21.5 -71.5t17.5 -47.5q33 -84 82 -110l78 -76q25 -29 57 -29q-141 -98 -325 -98q-256 0 -433 158q-102 141 -102 340zM408 985q14 23 31.5 42.5t35.5 39.5q174 188 432 188q219 0 389 -127q137 -158 138 -376 q0 -225 -123 -387l-4 28l-97 94v15h-26q-2 4 -2 10t-2 12q-10 33 -20.5 74t-20.5 88l-31 33l-6 8q16 10 33.5 19.5t35.5 21.5q45 29 77 52.5t50 45.5q0 20 -14 35l-4 2q2 0 2 -2h2l-47 45l-6 15q-23 47 -51 71l-60 60q-25 39 -63 67q-59 53 -146 53q-102 0 -200 -61 l-174 -109q-96 -57 -129 -57zM453 881q2 4 41 20q10 2 48 19.5t107 50.5q39 18 49 18l23 -12l-29 -35q-18 -29 -18 -49v-291q0 -35 -2 -79t-6 -95l24 -27l23 -34l-8 -9q-4 -4 -19 -8l-29 4q-35 18 -61 19l-31 -4l-47 -15q-25 0 -29 23q12 14 31 61v373q0 33 -35 49 q-29 8 -32 21zM791 784v7q0 14 16 40h-2l39 48l-39 36q86 37 156 37q10 0 30 -4q2 -4 2 -10q0 -4 2 -8q-10 -10 -17 -17.5t-15 -11.5v2l-101 -67q-23 -16 -40 -28.5t-31 -23.5zM1182 236l2 2q33 39 53 53l27 16q-20 -20 -40 -37.5t-42 -33.5zM1251 1184q6 -4 11.5 -10.5 t11.5 -12.5z" />
<glyph unicode="&#xaf;" horiz-adv-x="905" d="M35 1311q0 -63 43 -78l84 -84q18 -18 57 -19h574q76 0 75 78q0 41 -20 62l-82 82q-18 47 -84 47h-561q-86 0 -86 -88zM55 1311q0 68 66 67h561q70 1 70 -67q0 -63 -62 -64h-573q-61 0 -62 64z" />
<glyph unicode="&#xb0;" horiz-adv-x="520" d="M35 1161q0 -51 21.5 -90t58.5 -61l75 -74q47 -47 123 -47t124 48t48 124q0 74 -49 123l-69 67q-23 41 -62 64.5t-90 23.5q-78 0 -129 -50t-51 -128zM55 1161q0 70 45 114t115 44q68 0 111 -44t43 -112q0 -70 -44 -113.5t-114 -43.5q-68 0 -112 44t-44 111zM123 1161 q0 -86 88 -86t88 88q0 86 -86 86q-90 0 -90 -88zM250 1104q10 14 18 18q-6 -12 -18 -18z" />
<glyph unicode="&#xb1;" horiz-adv-x="980" d="M33 51q0 -35 26 -41l91 -88q8 -8 28 -8q4 2 11.5 5t17.5 13q41 35 127 52q33 6 145 6h195q8 0 86 -23q10 -4 17 -6t11 -2l15 -14q31 0 47 53q16 51 74 115q25 25 24 49q0 16 -10 26l-88 86q-6 33 -45 33l-31 -6q-49 -25 -207 -25h-8q29 20 64 33q51 18 51 43 q-10 23 -20.5 38.5t-20.5 27.5l4 -2q-6 25 -6 86v67h37q57 0 75 -12l2 -2q18 -16 33 -23.5t25 -7.5q31 0 47 51q18 61 72 117q27 31 26 51q0 16 -8 25l-90 88q-6 31 -49 31l-23 -4q-47 -23 -145 -27q0 16 1 29.5t3 25.5q8 82 49 129q18 18 19 39q0 16 -9 25l-90 88 q-6 29 -35 29q-14 0 -47 -19l-110 -57q-102 -53 -103 -86q31 -80 31 -117v-86h-68q-47 0 -67 6q-6 0 -8 2q-10 4 -19.5 8.5t-17.5 8.5l-17 8q-37 0 -67 -105q-23 -72 -34 -110.5t-11 -44.5q0 -31 26 -37l91 -90q8 -8 28 -8q14 4 29 18q43 43 119 53q10 0 16 2q-4 -57 -6 -96 q0 -10 -12 -55q-12 -43 -13 -70q0 -39 31 -45l23 -25l-148 3q-14 6 -27.5 12t-23.5 10q-12 4 -16 6q-2 0 -5 2q-37 0 -67 -104l-33 -109q0 -2 -4 -14q0 2 -1 -4t-3 -10q-2 -6 -4 -17zM53 49l10 37l35 113q29 90 43 90q10 -4 28.5 -12.5t43.5 -18.5l317 -2q193 -2 248 25 l31 6q22 0 22 -23q0 -18 -20 -39q-63 -70 -78 -121q-12 -43 -33 -43q8 0 11 2q0 4 -49 21q-78 23 -91 22h-194q-115 0 -148 -6q-88 -16 -133 -55q-12 -10 -24 -14q-18 0 -19 18zM53 629q0 12 45 149q29 90 43 90q10 -4 25.5 -10t36.5 -16q20 -6 71 -6h88v106q0 45 -30 125 q0 12 90 59l110 58q33 16 39 16q16 0 17 -18q0 -14 -15 -29q-45 -51 -53 -137q-6 -59 -6 -180h88q125 0 178 24l27 6q24 0 24 -20q0 -14 -22 -41q-57 -59 -76 -123q-12 -41 -33 -41q-18 0 -47 27q-23 18 -88 18h-51v-82q0 -66 6 -90q14 -18 37 -61q0 -10 -41 -27 q-61 -20 -123 -82q-23 -23 -39 -22q-23 0 -22 24q0 20 12 64q12 45 12 59q6 57 6 133v84q-53 0 -87.5 -1t-53.5 -3q-80 -10 -127 -57q-10 -10 -22 -15q-18 0 -19 19z" />
<glyph unicode="&#xb2;" horiz-adv-x="686" d="M35 563q0 -39 33 -45l86 -86q12 -12 36 -12l33 4q35 4 54.5 6t23.5 2l76 -4q86 -4 92 -6h14q147 0 148 139q0 16 -8.5 34.5t-20.5 31.5l-80 80q129 131 129 254q0 61 -18.5 110t-52.5 84l-64 64q-35 55 -95.5 85.5t-141.5 30.5q-51 0 -95.5 -18.5t-77 -51t-52 -75.5 t-19.5 -94t23.5 -92t64.5 -64l70 -70q23 -27 57 -39q-10 -12 -19.5 -24t-19.5 -23l-150 -168q-27 -27 -26 -53zM55 563q0 18 21 39l149 168q145 164 146 320q0 158 -117 157q-39 0 -64.5 -27.5t-25.5 -66.5q0 -33 18.5 -57.5t46.5 -24.5q18 0 31 29q6 10 14 12 q25 0 41.5 -23.5t16.5 -50.5q0 -102 -115 -102q-68 0 -115 46t-47 114q0 45 17.5 86t48.5 69.5t70.5 46t87.5 17.5q119 0 187.5 -66.5t68.5 -185.5q0 -154 -232 -342q-23 -18 -24 -31q0 -16 61 -16q86 0 104 18l13 21q8 14 20 14t24.5 -22.5t12.5 -40.5q0 -131 -145 -125 q-6 4 -95 6l-75 4q-4 0 -24.5 -2t-55.5 -6l-33 -4q-31 0 -31 26zM193 1137l40 -41v-2zM313 1116q15 12 33 14q2 -10 3 -20t1 -20v-17l-10 8q-8 16 -27 35z" />
<glyph unicode="&#xb3;" horiz-adv-x="690" d="M35 653q0 -66 63 -102l74 -74q20 -20 55 -35q57 -23 135 -22q123 0 201 59q92 70 92 187q0 74 -41 125l-2 2q-2 2 -4 2t-2 4l-69 67q-2 2 -2 4q92 57 92 170q0 74 -47 121l-72 70q-18 35 -53 59q-63 45 -160 45q-92 0 -156 -45q-72 -47 -71 -145q0 -90 57 -115l61 -63 q-12 -4 -20 -4v-84q4 -2 14 -2l94 -95q20 -4 38 -6t32 -6q2 -6 2 -16q0 -47 -30.5 -77t-75.5 -32l-41 39q-6 20 -32 37.5t-48 17.5q-84 0 -84 -86zM55 653q0 66 64 66q18 0 39.5 -12.5t21.5 -24.5l-8 -25v-6q0 -27 61 -26q57 0 95.5 35.5t38.5 93.5q0 82 -72 116 q-18 8 -46 15.5t-63 11.5v47q72 12 136 53q76 51 75 117q0 70 -80 70q-39 0 -70.5 -23.5t-31.5 -54.5q0 -12 6 -31l4 -12q0 -23 -43 -23q-94 0 -94 105q0 84 64 129q59 41 143 41q88 0 147 -41q68 -47 68 -131q0 -104 -96 -164q-12 -6 -13 -10l11 -11q33 -23 55 -41t33 -32 q39 -45 39 -117q0 -111 -86 -174q-76 -57 -193 -57q-72 0 -129 22q-76 31 -76 94z" />
<glyph unicode="&#xb4;" horiz-adv-x="563" d="M33 926h16l96 -97h166l219 281l-98 98l8 11h-266zM66 946l120 252h211l-196 -252h-135z" />
<glyph unicode="&#xb5;" horiz-adv-x="2949" d="M37 -78h2875v1716h-2875v-1716zM139 291v676q0 63 54 104q47 35 114 35q68 0 107 -39l366 -362q63 -63 64 -154v-309q0 -43 39 -43q12 0 24.5 15t12.5 28l-5 1396h115l-2 -1400q0 -61 -44 -106.5t-105 -45.5q-66 0 -107 45t-41 113q0 139 -1 225t-3 121q-4 18 -178 190 l-195 191q-29 29 -55 28q-20 0 -35 -12q-16 -53 -16 -65v-635q0 -88 71 -88h166q27 12 52 43h108q-29 -147 -158 -148h-168q-180 0 -180 197zM1171 242q0 63 37 106t97 43h571v-108h-553q-41 0 -41 -37q0 -43 45 -43h512q125 0 125 92v156q0 92 -92 92h-512q-86 0 -137.5 51 t-51.5 137v182q0 92 54.5 150.5t146.5 58.5h504q156 0 182 -155h-102q-41 43 -88 43h-500q-84 0 -84 -88v-195q0 -76 84 -76h504q92 0 144 -47t52 -133v-192q0 -80 -48 -130.5t-128 -50.5h-577q-61 0 -102.5 41t-41.5 103zM2232 270v660q0 197 236 196q33 0 98 -6 q35 -2 59.5 -3t40.5 -1q82 0 82 43q0 39 -84 39q-16 0 -40.5 -1t-57.5 -3t-56.5 -3t-39.5 -1q-238 0 -238 180v268h117v-268q0 -72 76 -72h303q55 0 94 -43t39 -104q0 -59 -45 -102t-104 -43h-299q-72 0 -72 -93v-618q0 -61 39 -86v-115q-147 33 -148 176z" />
<glyph unicode="&#xb6;" horiz-adv-x="1214" d="M31 1030q0 -143 100 -231q12 -14 29 -23l65 -65q2 -4 4 -5t4 -4l5 -2q98 -86 270 -86h133v-755h12l97 -97h108v1414h8v-1317h13l96 -97h110v1414h95v57l-97 96v12h-710q-319 0 -340 -278q0 -4 -1 -9t-1 -10v-14zM53 1063q18 258 320 258h690v-29h-94v-1413h-82v1413h-146 v-1413h-79v852h-256q-166 0 -261 82q-104 88 -92 250zM346 1030q2 -135 53 -194q55 -72 185 -72h78v528h-78q-55 0 -99.5 -20.5t-76 -55t-48 -83t-14.5 -103.5zM463 928v12q0 88 48 151.5t130 77.5v-385h-57q-66 0 -105 17q-16 53 -16 127z" />
<glyph unicode="&#xb7;" horiz-adv-x="446" d="M35 526q0 -74 28 -125q10 -27 26.5 -42t35.5 -25l76 -74q31 -31 75 -31q70 0 107 72q29 49 29 123t-29 125q-12 25 -29 41l-73 72q-41 68 -107 67q-76 0 -111 -76q-29 -51 -28 -127zM55 526q0 68 27 119q33 63 92 64q61 0 94 -64q27 -51 27 -119q0 -70 -27 -116 q-33 -63 -94 -64q-59 0 -92 64q-27 51 -27 116z" />
<glyph unicode="&#xb8;" horiz-adv-x="583" d="M35 -342v-107h12l96 -96l123 2q143 2 209 49q76 55 76 191v10q-4 61 -43 100l-70 70q-18 39 -55 60v-3q-25 18 -53.5 27.5t-59.5 13.5l-61 62v14l-109 -28v-185h13l96 -96h90q-18 -59 -129 -72zM55 -360l117 10q152 12 152 119q0 45 -43 69q-33 20 -82 21h-78v147l67 19 v-70h60q70 0 123 -37q59 -38 63 -108q4 -133 -69 -189q-59 -43 -201 -47l-109 -2v68z" />
<glyph unicode="&#xb9;" horiz-adv-x="516" d="M33 1118q0 -39 33 -45l86 -88q0 -25 -1 -47.5t-4 -40.5q-18 -221 -65 -287q-23 -29 -23 -47q0 -37 31 -43l88 -88q10 -10 35 -10h10l23 2h2q23 2 46 3t46 1l84 -8q57 0 57 41q0 16 -16 39q-57 90 -57 331v29q0 20 2 47l4 105l14 151q0 35 -16 51l-4 3q2 0 2 -3h2l-84 84 q-12 37 -56 37q-33 0 -61 -41q-68 -92 -137 -127q-41 -25 -41 -49zM53 1118q0 14 29 31q74 37 145 133q25 33 45 33q39 0 39 -47l-14 -152l-4 -106q-2 -27 -2 -47v-29q0 -250 59 -340q15 -21 15 -31q0 -27 -41 -26l-84 8q-23 0 -47.5 -1t-49.5 -3l-24 -2q-39 -2 -39 24 q0 10 18 35q51 70 70 297q6 76 6 205v6q0 8 -8 8q-4 0 -37 -12q-37 -10 -41 -10q-35 0 -35 26z" />
<glyph unicode="&#xba;" horiz-adv-x="585" d="M35 301h12l96 -96h410v117l-96 96v12h-23q45 74 45 227q0 31 -4 63t-12 66q-14 68 -41 95l-80 80q-25 43 -55 43q-10 -2 -17 -5q-10 -4 -24 -6q-31 -8 -35 -8h2q-18 4 -23.5 5t-19.5 5q-12 4 -23.5 6.5t-21.5 2.5q-45 0 -45 -105q-14 -49 -20.5 -103.5t-6.5 -111.5 q0 -168 88 -211l45 -43h-151v-129zM55 322v88h381v-88h-381zM74 684q0 113 26 207q0 92 25 92q6 0 17.5 -3t24.5 -6t25.5 -6t18.5 -3q10 0 41 8l37 10q35 0 57 -96q8 -35 12 -66.5t4 -60.5q0 -279 -151 -279q-137 0 -137 203zM160 731q4 -133 63 -129q57 2 47 135 q-8 125 -63 123q-49 -4 -47 -129z" />
<glyph unicode="&#xbb;" horiz-adv-x="798" d="M35 182q0 -39 35 -51l86 -84q14 -14 47 -14h53l49 8q29 16 43 39l10 18l52 -51q14 -14 47 -14h53l49 8q29 16 43 39l133 227l23 49l6 39l-2 17v20l-21 182q-2 31 -22 52l-82 79q-20 49 -80 50h-68q-72 0 -71 -74v-10l-35 34q-20 49 -80 50h-67q-72 0 -72 -74l31 -238 l-144 -250h2l-10 -16l-6 -14zM55 180l2 15l6 16l7 10l147 254l-33 248q0 51 52 51h67q61 0 68 -59l22 -215l-2 -19q0 -2 -4 -18l-6 -21l-10 -18l-138 -234q-14 -25 -32 -32l-49 -8h-52q-45 0 -45 30zM309 180l2 15l6 16l7 10l147 254l-33 248q0 51 51 51h68q61 0 68 -59 l20 -183v-20l2 -14l-6 -37l-16 -37l-138 -234q-14 -25 -32 -32l-49 -8h-52q-45 0 -45 30z" />
<glyph unicode="&#xbc;" horiz-adv-x="1345" d="M35 1118q0 -39 33 -45l86 -88q0 -25 -1 -47.5t-3 -40.5q-18 -221 -66 -287q-23 -29 -23 -47q0 -37 31 -43l88 -88q10 -10 35 -10h10l23 2h2q23 2 46 3t46 1l31 -4l-250 -408l27 -14l86 -86l110 -61l467 761q-8 -41 -35.5 -124.5t-79.5 -210.5q-16 -43 -16 -70 q0 -43 41 -57l82 -80q14 -16 49 -23q-18 -12 -18 -35q0 -31 28 -36l88 -89q10 -10 31 -10h8l27 2h2q10 0 19.5 1t19.5 1t20.5 -1t20.5 -1l125 -2h6q45 0 45 35q0 16 -10 31l-49 49q-16 25 -19 61q113 27 113 117q0 35 -27 62l-76 73q-6 18 -18 31q2 16 4 31.5t6 36.5l12 86 q0 23 -12 34l-63 62q4 16 4 22q0 31 -17 47l-84 82q-12 43 -65 43h-27l-35 -2l222 359l-99 96l6 8l-120 76l-478 -778q-18 47 -26 118.5t-8 169.5v29q0 20 2 47l4 105l14 151q0 35 -16 51l-84 84q-12 37 -56 37q-33 0 -61 -41q-68 -92 -137 -127q-41 -25 -41 -49zM55 1118 q0 14 29 31q74 37 145 133q25 33 45 33q39 0 39 -47l-14 -152l-4 -106q-2 -27 -2 -47v-29q0 -250 59 -340q15 -21 15 -31q0 -27 -41 -26l-84 8q-23 0 -47.5 -1t-49.5 -3l-24 -2q-39 -2 -39 24q0 10 18 35q51 70 70 297q6 76 6 205v6q0 8 -8 8q-4 0 -37 -12q-37 -10 -41 -10 q-35 0 -35 26zM154 23l774 1267l84 -51l-774 -1264zM702 211q0 18 17 61q117 291 117 367q0 35 -39 86q-6 6 -6 20q0 25 38 23l84 -6l35 2h27q49 0 49 -49q0 -76 -190 -391q-16 -27 -21 -50q0 -12 43 -24q41 -10 55 -10q16 0 19 20l2 35l8 39l21 106q82 186 112 187 q23 0 23 -29l-13 -86q-10 -74 -15 -117t-5 -53l2 -76q39 8 39 35q0 10 -6 21l-6 14q0 14 28 14q31 0 52.5 -21.5t21.5 -52.5q0 -80 -113 -104q0 -86 68 -131q10 -6 10 -23q0 -25 -37 -20l-125 2q-39 2 -82 0l-26 -2q-33 -2 -33 18q0 12 27 31q39 27 39 119h-127 q-92 0 -93 45z" />
<glyph unicode="&#xbd;" horiz-adv-x="1341" d="M35 1118q0 -39 33 -45l86 -88q0 -25 -1 -47.5t-3 -40.5q-18 -221 -66 -287q-23 -29 -23 -47q0 -37 31 -43l88 -88q10 -10 35 -10h10l23 2h2q23 2 47.5 3t46.5 1l29 -4l-250 -408l27 -14l86 -86l110 -61l369 598q23 -37 59 -60l72 -69q23 -27 57 -39q-10 -12 -19.5 -24.5 t-19.5 -22.5l-149 -170q-27 -33 -27 -52q0 -29 29 -36l88 -89q10 -10 37 -10l32 2q16 2 30 3t24 1q8 0 15 -1t13 -1l74 -2h29h20q10 0 20.5 -1t28.5 -1q156 2 156 133q0 39 -29 68l-6 6q0 -2 2 -2l-73 74q129 135 129 254q0 121 -72 192l-66 64q-70 119 -237 118h-14 l217 353l-99 96l6 8l-120 76l-478 -778q-18 47 -26 118.5t-8 169.5v29q0 20 2 47l4 105l14 151q0 35 -16 51l-4 3q2 0 2 -3h2l-84 84q-12 37 -56 37q-33 0 -61 -41q-68 -92 -137 -127q-41 -25 -41 -49zM55 1118q0 14 29 31q74 37 145 133q25 33 45 33q39 0 39 -47l-14 -152 l-4 -106q-2 -27 -2 -47v-29q0 -250 59 -340q15 -21 15 -31q0 -27 -41 -26l-84 8q-23 0 -47.5 -1t-49.5 -3l-24 -2q-39 -2 -39 24q0 10 18 35q51 70 70 297q6 76 6 205v6q0 8 -8 8q-4 0 -37 -12q-37 -10 -41 -10q-35 0 -35 26zM154 23l774 1267l84 -51l-774 -1264zM709 16 q0 10 22 39l148 168q147 168 147 322q0 156 -117 155q-39 0 -65.5 -27.5t-26.5 -66.5q0 -33 18.5 -57.5t47.5 -24.5q16 0 32 29q2 10 15 14q23 0 39 -22.5t16 -52.5q0 -45 -32.5 -74t-80.5 -29q-70 0 -116.5 46t-46.5 116q0 45 17 85t48 69.5t71 46t87 16.5 q119 0 188.5 -67.5t69.5 -184.5q0 -156 -234 -342q-18 -14 -22 -31q0 -16 59 -16q90 0 105 20l14 19q6 12 21 16q12 0 23 -22.5t11 -42.5q0 -119 -143 -119q12 0 -19.5 1t-76.5 1l-74 2q-35 4 -82 -2l-33 -2q-31 0 -30 18zM969 571q15 9 35 13q2 -10 2 -21v-18q0 -12 -2 -19 l-11 13q-10 23 -24 32z" />
<glyph unicode="&#xbe;" horiz-adv-x="1435" d="M35 653q0 -66 63 -102l74 -74q20 -20 55 -35q57 -23 135 -22q29 0 54.5 2t48.5 8l-254 -414l27 -14l86 -86l110 -61l467 759q-14 -82 -115 -333q-16 -43 -16 -70q0 -43 41 -57l82 -80q14 -16 49 -23q-18 -12 -18 -35q0 -31 28 -36l88 -89q10 -10 31 -10h8l27 2 q10 0 20.5 1t20.5 1t20.5 -1t20.5 -1l125 -2h6q45 0 45 35q0 18 -16 35l-41 41q-16 27 -21 65q115 31 115 117q0 35 -27 62l-4 2q2 0 2 -2h2l-78 75q-6 20 -20 31q4 33 12 66q12 61 12 88q0 23 -10 32l-63 62q4 16 4 22q0 33 -14 47l-87 86q-12 39 -67 39h-27l-32 -2 l219 359l-99 96l6 8l-118 76l-365 -594q-8 31 -29 59q-4 6 -18 21l-10 10v-2q2 0 2 -2l-57 59q45 29 68.5 69t23.5 99q0 74 -47 121l-7 4q2 0 2 -2l-67 68q-18 35 -53 59q-63 45 -160 45q-92 0 -156 -45q-72 -47 -71 -145q0 -90 57 -115l61 -63q-12 -4 -20 -4v-84 q4 -2 14 -2l94 -95q20 -4 38 -6t32 -6q2 -6 2 -16q0 -47 -30.5 -77t-75.5 -32l-41 39q-6 20 -32 37.5t-48 17.5q-84 0 -84 -86zM55 653q0 66 64 66q18 0 39.5 -12.5t21.5 -24.5l-8 -25v-4q0 -29 61 -28q57 0 95.5 35.5t38.5 93.5q0 82 -72 116q-18 8 -46 15.5t-63 11.5v47 q72 12 136 53q76 51 75 117q0 70 -80 70q-39 0 -70.5 -23.5t-31.5 -54.5q0 -12 6 -31l4 -12q0 -23 -43 -23q-94 0 -94 105q0 84 64 129q59 41 143 41q88 0 147 -41q68 -47 68 -131q0 -104 -96 -164q-12 -6 -13 -10l11 -11q70 -47 92 -77q35 -52 35 -113q0 -111 -86 -174 q-76 -57 -193 -57q-72 0 -129 22q-76 31 -76 94zM242 23l776 1267l82 -51l-774 -1264zM791 211q0 18 16 61q117 291 117 367q0 35 -39 86q-4 6 -6 20q0 25 39 23l30 -2l56 -4l32 2h27q51 0 51 -49q0 -76 -192 -391q-16 -27 -21 -50q0 -12 43 -24q41 -10 55 -10q16 0 19 20 l2 35l31 145q4 25 61 125q33 61 49 62q23 0 23 -29q0 -23 -13 -86q-10 -59 -16 -101t-4 -69l2 -76q39 8 39 35q0 4 -6 21l-6 14q8 12 28 14q31 0 53.5 -21.5t22.5 -52.5q0 -80 -115 -104q0 -86 68 -131q10 -10 10 -23q0 -25 -37 -20l-125 2q-39 2 -81 0l-27 -2 q-33 -2 -33 18q0 12 27 31q39 27 39 119h-127q-92 0 -92 45z" />
<glyph unicode="&#xbf;" horiz-adv-x="972" d="M33 414q0 -180 114 -308q16 -18 33 -32.5t35 -26.5l39 -39q2 -6 10 -10l4 -4q106 -106 277 -107q168 0 280 125q115 123 115 293v2l-6 37l-4 2q2 0 2 -2h2l-96 94v11q-20 20 -58 20l-139 -133q-53 -53 -96 -53h-111q-29 0 -61 20q-14 37 -15 84q0 109 58 240 q35 66 66.5 124t60.5 105l-13 45l-92 92l-4 11l8 -7q35 -39 93 -39q113 0 112 127q0 41 -12 82q-10 39 -27 54l-82 82q-23 41 -53 40q-47 0 -111 -61q-61 -61 -61 -108q0 -35 19.5 -63t50.5 -42l57 -57l-283 -303q-113 -150 -112 -295zM53 414q0 137 109 282l258 279l4 -14 q-29 -47 -58.5 -103.5t-64.5 -122.5q-59 -135 -59 -246q0 -102 82 -172q63 -55 110 -55h111q47 0 110 60l133 127q20 0 29 -9l6 -32q0 -164 -110 -283q-109 -121 -271 -121q-174 0 -280 117q-109 121 -109 293zM322 1174q0 39 55 94q57 55 96 55q31 0 45 -57q12 -41 12 -78 q0 -113 -98 -113q-43 0 -76.5 29t-33.5 70zM344 1094l4 -4z" />
<glyph unicode="&#xc0;" horiz-adv-x="1454" d="M35 963q10 -63 47 -76l84 -82q6 -10 24 -17q-6 -8 -12 -15t-12 -13q-102 -121 -103 -258q0 -98 87 -209l75 -103q-4 -23 -18 -49q-43 -80 -43 -96q2 -12 20 -47q12 -8 19 -10l90 -90q20 -14 49 -15q61 0 92 101l29 90v188v25q0 12 2 24l18 -16q14 -14 27 -16q35 25 45 43 h2q20 31 51 30q39 0 85 -14t104 -43l125 -62l59 68v-96q0 -115 106 -189l66 -65q39 -39 107 -70q29 20 49 36.5t32 31.5q66 72 80 119v49l-88 86q-6 29 -8 70.5t-2 99.5v63l-14 27l-4 6q0 4 1 9t1 14v86v10t-2 14q0 4 -1 10t-1 13l-15 28l2 -2q-6 18 -6 62v69q0 106 -61 211 q-45 74 -97 125l-43 43l17 17v45l-96 96v12h-60l-14 -8l-127 274l-90 89l-8 20h-273l242 -293h8l96 -96h144l-201 -137l-2 2l-53 65v-12q-6 0 -11 2l-30 -14h-4l-15 -13l-88 45q-104 51 -141 52h-78q-43 -4 -141 -103q-123 -117 -123 -241zM55 965q0 111 117 225 q92 92 129 96h76q31 0 133 -49l100 -49l19 14q4 2 10 6t16 9q12 -2 17 -7l18 -22l-227 -156l-98 58q-72 41 -136 40q-100 0 -100 -92q0 -29 8 -47l10 -45q0 -31 -8 -39l-28 -4q-47 0 -56 62zM84 502q0 131 96 246q84 98 273 225l499 338h31v-25l-14 -14l-6 -17 q88 -66 145 -165q59 -102 59 -205v-70q0 -47 7 -65l12 -25q2 -16 3 -27.5t1 -17.5v-86q0 -8 -4 -25l12 -16l8 -16v-62q0 -133 15 -184q20 -86 84 -86v-31q-16 -47 -76 -113q-25 -29 -74 -61q-154 68 -154 205v166l-8 4q-2 0 -4 2q-6 8 -6 26l-6 39v31q2 18 6 23h-20 q-37 -16 -72 -56l-76 -88l-115 58q-123 59 -194 59q-37 0 -64 -37q-6 -14 -36 -35q-23 6 -29 35q0 25 90 115q106 102 158 102l331 -104l7 233q-14 82 -62 187q-57 137 -117 137q-27 0 -102 -86q-119 -131 -188 -262l-88 -166q-59 -115 -60 -223v-185l-29 -90 q-29 -90 -77 -90q-23 0 -41 12q-10 18 -15 37q0 8 41 84q10 16 15.5 31.5t7.5 28.5q0 6 -82 112.5t-82 196.5zM246 936q0 78 86 78q47 0 104 -29q-51 -35 -95 -66.5t-81 -62.5l-4 31q-10 22 -10 49zM473 1686h219l119 -252h-129zM621 668q63 116 174 235q29 29 47 48.5 t30 27.5q2 -6 11 -23q23 -51 37 -96t22 -88l-6 -201l-305 99q-4 0 -5 -1t-5 -1z" />
<glyph unicode="&#xc1;" horiz-adv-x="1454" d="M33 963q10 -63 47 -76l84 -82q8 -10 26 -19l-19 -19t-17 -19q-92 -111 -93 -246q0 -98 86 -209l76 -103q-4 -23 -18 -49q-43 -80 -43 -96q2 -12 20 -47q12 -8 19 -10l90 -90q20 -14 49 -15q61 0 92 101l29 90v188v25q0 12 2 24l18 -16q14 -14 27 -16q35 25 45 43h2 q20 31 51 30q39 0 85 -14t104 -43l125 -62l59 68v-96q0 -115 106 -189l66 -65q39 -39 106 -70q29 20 49.5 36.5t32.5 31.5q66 72 80 119v49l-88 86q-6 29 -8 70.5t-2 99.5v63l-14 27l-4 6q0 4 1 9t1 14v86v10t-2 14q0 4 -1.5 10t-1.5 13l-14 28l2 -2q-6 18 -6 62v69 q0 106 -61 211q-45 74 -97 125l-43 43l17 17v45l-97 96v12h-59l-223 -151l-2 2l-53 65v-12q-6 0 -11 2l-30 -14h-5l-14 -13l-88 45q-104 51 -141 52h-78q-43 -4 -141 -103q-123 -117 -123 -241zM53 965q0 111 117 225q92 92 129 96h76q31 0 133 -49l100 -49l19 14q4 2 10 6 t16 9q12 -2 17 -7l18 -22l-227 -156l-99 58q-72 41 -135 40q-100 0 -100 -92q0 -29 8 -47l10 -45q0 -31 -8 -39l-28 -4q-47 0 -56 62zM82 502q0 129 86 233q92 106 283 238l499 338h31v-25l-14 -14l-6 -17q88 -66 145 -165q59 -102 59 -205v-70q0 -47 6 -65l13 -25 q2 -16 3 -27.5t1 -17.5v-86q0 -8 -4 -25l12 -16l8 -16v-62q0 -133 15 -184q20 -86 84 -86v-31q-16 -47 -76 -113q-25 -29 -74 -61q-154 68 -154 205v166l-8 4q-2 0 -4 2q-6 8 -6 26l-6 39v31q2 18 6 23h-20q-37 -16 -72 -56l-76 -88l-115 58q-123 59 -194 59q-37 0 -64 -37 q-6 -14 -37 -35q-23 6 -28 35q0 25 90 115q106 102 158 102l331 -104l7 233q-14 82 -62 187q-57 137 -117 137q-27 0 -102 -86q-119 -131 -188 -262l-89 -166q-59 -115 -59 -223v-185l-29 -90q-29 -90 -77 -90q-23 0 -41 12q-10 18 -15 37q0 8 41 84q10 16 15.5 31.5 t7.5 28.5q0 6 -82 112.5t-82 196.5zM244 936q0 78 86 78q47 0 104 -29q-51 -35 -94 -67.5t-80 -65.5l-6 35q-10 22 -10 49zM602 1405h16l97 -96h176l244 307l-99 98l8 10h-288zM618 668q64 116 175 235q29 29 47 48.5t30 27.5q2 -6 11 -23q23 -51 37 -96t22 -88l-6 -201 l-305 99q-4 0 -5 -1t-6 -1zM635 1425l133 279h236l-222 -279h-147z" />
<glyph unicode="&#xc2;" horiz-adv-x="1454" d="M35 963q10 -63 47 -76l84 -82q6 -10 24 -17q-6 -8 -12 -15t-12 -13q-102 -121 -103 -258q0 -98 87 -209l75 -103q-4 -23 -18 -49q-43 -80 -43 -96q2 -12 20 -47q12 -8 19 -10l90 -90q20 -14 49 -15q61 0 92 101l29 90v188v25q0 12 2 24l18 -16q14 -14 27 -16q35 25 45 43 h2q20 31 51 30q39 0 85 -14t104 -43l125 -62l59 68v-96q0 -115 106 -189l66 -65q39 -39 107 -70q29 20 49 36.5t32 31.5q66 72 80 119v49l-88 86q-6 29 -8 70.5t-2 99.5v63l-14 27l-4 6q0 4 1 9t1 14v86v10t-2 14q0 4 -1 10t-1 13l-15 28l2 -2q-6 18 -6 62v69q0 106 -61 211 q-45 74 -97 125l-18 19q2 -2 2 -4l2 -3l-29 31l17 17v45l-94 94h63l-225 280l-68 66l-33 43h-192l-223 -293h18l96 -96h222l69 106l8 -10h11l96 -96h74l-201 -137l-2 2l-53 65v-12q-6 0 -11 2l-30 -14h-4l-15 -13l-88 45q-104 51 -141 52h-78q-43 -4 -141 -103 q-123 -117 -123 -241zM55 965q0 111 117 225q92 92 129 96h76q31 0 133 -49l100 -49l19 14q4 2 10 6t16 9q12 -2 17 -7l18 -22l-227 -156l-98 58q-72 41 -136 40q-100 0 -100 -92q0 -29 8 -47l10 -45q0 -31 -8 -39l-28 -4q-47 0 -56 62zM84 502q0 131 96 246q84 98 273 225 l499 338h31v-25l-14 -14l-6 -17q88 -66 145 -165q59 -102 59 -205v-70q0 -47 7 -65l12 -25q2 -16 3 -27.5t1 -17.5v-86q0 -8 -4 -25l12 -16l8 -16v-62q0 -133 15 -184q20 -86 84 -86v-31q-16 -47 -76 -113q-25 -29 -74 -61q-154 68 -154 205v166l-8 4q-2 0 -4 2q-6 8 -6 26 l-6 39v31q2 18 6 23h-20q-37 -16 -72 -56l-76 -88l-115 58q-123 59 -194 59q-37 0 -64 -37q-6 -14 -36 -35q-23 6 -29 35q0 25 90 115q106 102 158 102l331 -104l7 233q-14 82 -62 187q-57 137 -117 137q-27 0 -102 -86q-119 -131 -188 -262l-88 -166q-59 -115 -60 -223 v-185l-29 -90q-29 -90 -77 -90q-23 0 -41 12q-10 18 -15 37q0 8 41 84q10 16 15.5 31.5t7.5 28.5q0 6 -82 112.5t-82 196.5zM246 936q0 78 86 78q47 0 104 -29q-51 -35 -95 -66.5t-81 -62.5l-4 31q-10 22 -10 49zM369 1434l192 252h174l203 -252h-184l-101 153l-100 -153 h-184zM621 668q63 116 174 235q29 29 47 48.5t30 27.5q2 -6 11 -23q23 -51 37 -96t22 -88l-6 -201l-305 99q-4 0 -5 -1t-5 -1z" />
<glyph unicode="&#xc3;" horiz-adv-x="1456" d="M35 963q10 -63 47 -76l84 -82q6 -10 24 -17q-6 -8 -12 -15t-12 -13q-102 -121 -103 -258q0 -98 87 -209l75 -103q-4 -23 -18 -49q-43 -80 -43 -96q2 -12 20 -47q12 -8 19 -10l90 -90q20 -14 49 -15q61 0 92 101l29 90v188v25q0 12 2 24l18 -16q14 -14 27 -16q35 25 45 43 h2q20 31 51 30q39 0 85 -14t104 -43l125 -62l59 68v-96q0 -115 106 -189l66 -65q39 -39 107 -70q29 20 49 36.5t32 31.5q66 72 80 119v49l-88 86q-6 29 -8 70.5t-2 99.5v63l-14 27l-4 6q0 4 1 9t1 14v86v10t-2 14q0 4 -1 10t-1 13l-15 28l2 -2q-6 18 -6 62v69q0 106 -61 211 q-45 74 -97 125l-18 19q2 -2 2 -4l2 -3l-29 31l17 17v45l-96 96v12h-27q53 20 84 73.5t31 131.5l-97 96v8l-18 19h-135q-10 -78 -49 -78q-27 0 -76 25q-104 51 -160 51q-94 0 -148.5 -68.5t-54.5 -179.5h13l96 -96h149q0 86 54 86q25 0 79 -31q90 -51 158 -51h19l-201 -137 l-2 2l-53 65v-12q-6 0 -11 2l-30 -14h-4l-15 -13l-88 45q-104 51 -141 52h-78q-43 -4 -141 -103q-123 -117 -123 -241zM55 965q0 111 117 225q92 92 129 96h76q31 0 133 -49l100 -49l19 14q4 2 10 6t16 9q12 -2 17 -7l18 -22l-227 -156l-98 58q-72 41 -136 40 q-100 0 -100 -92q0 -29 8 -47l10 -45q0 -31 -8 -39l-28 -4q-47 0 -56 62zM84 502q0 131 96 246q84 98 273 225l499 338h31v-25l-14 -14l-6 -17q88 -66 145 -165q59 -102 59 -205v-70q0 -47 7 -65l12 -25q2 -16 3 -27.5t1 -17.5v-86q0 -8 -4 -25l12 -16l8 -16v-62 q0 -133 15 -184q20 -86 84 -86v-31q-16 -47 -76 -113q-25 -29 -74 -61q-154 68 -154 205v166l-8 4q-2 0 -4 2q-6 8 -6 26l-6 39v31q2 18 6 23h-20q-37 -16 -72 -56l-76 -88l-115 58q-123 59 -194 59q-37 0 -64 -37q-6 -14 -36 -35q-23 6 -29 35q0 25 90 115q106 102 158 102 l331 -104l7 233q-14 82 -62 187q-57 137 -117 137q-27 0 -102 -86q-119 -131 -188 -262l-88 -166q-59 -115 -60 -223v-185l-29 -90q-29 -90 -77 -90q-23 0 -41 12q-10 18 -15 37q0 8 41 84q10 16 15.5 31.5t7.5 28.5q0 6 -82 112.5t-82 196.5zM246 936q0 78 86 78 q47 0 104 -29q-51 -35 -95 -66.5t-81 -62.5l-4 31q-10 22 -10 49zM375 1430q0 92 48 149t134 57q49 0 152 -49q51 -27 84 -26q57 0 67 77h115q0 -98 -48 -151t-126 -53q-61 0 -150 49q-57 33 -88 33q-68 0 -67 -86h-121zM621 668q63 116 174 235q29 29 47 48.5t30 27.5 q2 -6 11 -23q23 -51 37 -96t22 -88l-6 -201l-305 99q-4 0 -5 -1t-5 -1z" />
<glyph unicode="&#xc4;" horiz-adv-x="1456" d="M35 963q10 -63 47 -76l84 -82q6 -10 24 -17q-6 -8 -12 -15t-12 -13q-102 -121 -103 -258q0 -98 87 -209l75 -103q-4 -23 -18 -49q-43 -80 -43 -96q2 -12 20 -47q12 -8 19 -10l90 -90q20 -14 49 -15q61 0 92 101l29 90v188v25q0 12 2 24l18 -16q14 -14 27 -16q35 25 45 43 h2q20 31 51 30q39 0 85 -14t104 -43l125 -62l59 68v-96q0 -115 106 -189l66 -65q39 -39 107 -70q29 20 49 36.5t32 31.5q66 72 80 119v49l-88 86q-6 29 -8 70.5t-2 99.5v63l-14 27l-4 6q0 4 1 9t1 14v86v10t-2 14q0 4 -1 10t-1 13l-15 28l2 -2q-6 18 -6 62v69q0 106 -61 211 q-45 74 -97 125l-18 19q2 -2 2 -4l2 -3l-29 31l17 17v45l-78 77h145v259l-96 96v12h-252v-270h12l82 -86l-192 -131l-2 2l-53 65v-12q-6 0 -11 2l-30 -14h-4l-15 -13l-88 45q-104 51 -141 52h-78q-43 -4 -141 -103q-123 -117 -123 -241zM55 965q0 111 117 225q92 92 129 96 h76q31 0 133 -49l100 -49l19 14q4 2 10 6t16 9q12 -2 17 -7l18 -22l-227 -156l-98 58q-72 41 -136 40q-100 0 -100 -92q0 -29 8 -47l10 -45q0 -31 -8 -39l-28 -4q-47 0 -56 62zM84 502q0 131 96 246q84 98 273 225l499 338h31v-25l-14 -14l-6 -17q88 -66 145 -165 q59 -102 59 -205v-70q0 -47 7 -65l12 -25q2 -16 3 -27.5t1 -17.5v-86q0 -8 -4 -25l12 -16l8 -16v-62q0 -133 15 -184q20 -86 84 -86v-31q-16 -47 -76 -113q-25 -29 -74 -61q-154 68 -154 205v166l-8 4q-2 0 -4 2q-6 8 -6 26l-6 39v31q2 18 6 23h-20q-37 -16 -72 -56l-76 -88 l-115 58q-123 59 -194 59q-37 0 -64 -37q-6 -14 -36 -35q-23 6 -29 35q0 25 90 115q106 102 158 102l331 -104l7 233q-14 82 -62 187q-57 137 -117 137q-27 0 -102 -86q-119 -131 -188 -262l-88 -166q-59 -115 -60 -223v-185l-29 -90q-29 -90 -77 -90q-23 0 -41 12 q-10 18 -15 37q0 8 41 84q10 16 15.5 31.5t7.5 28.5q0 6 -82 112.5t-82 196.5zM246 936q0 78 86 78q47 0 104 -29q-51 -35 -95 -66.5t-81 -62.5l-4 31q-10 22 -10 49zM401 1397h13l96 -97h240v259l-97 96v12h-252v-270zM422 1417v230h211v-230h-211zM621 668q63 116 174 235 q29 29 47 48.5t30 27.5q2 -6 11 -23q23 -51 37 -96t22 -88l-6 -201l-305 99q-4 0 -5 -1t-5 -1zM840 1417v230h211v-230h-211z" />
<glyph unicode="&#xc5;" horiz-adv-x="1452" d="M33 963q10 -63 47 -76l84 -82q6 -10 24 -17q-6 -8 -12 -15t-12 -13q-102 -121 -103 -258q0 -98 86 -209l76 -103q-4 -23 -18 -49q-43 -80 -43 -96q2 -12 20 -47q12 -8 19 -10l90 -90q20 -14 49 -15q61 0 92 101l29 90v188v25q0 12 2 24l18 -16q14 -14 27 -16q35 25 45 43 h2q20 31 51 30q39 0 85 -14t104 -43l125 -62l59 68v-96q0 -115 106 -189l66 -65q39 -39 106 -70q29 20 49.5 36.5t32.5 31.5q66 72 80 119v49l-88 86q-6 29 -8 70.5t-2 99.5v63l-14 27l-4 6q0 4 1 9t1 14v86v10t-2 14q0 4 -1.5 10t-1.5 13l-14 28l2 -2q-6 18 -6 62v69 q0 106 -61 211q-45 74 -97 125l-18 19q2 -2 2 -4l2 -3l-29 31l17 17v45l-97 96v12h-59l-223 -151l-2 2l-53 65v-12q-6 0 -11 2l-30 -14h-5l-14 -13l-88 45q-104 51 -141 52h-78q-43 -4 -141 -103q-123 -117 -123 -241zM53 965q0 111 117 225q92 92 129 96h76q31 0 133 -49 l100 -49l19 14q4 2 10 6t16 9q12 -2 17 -7l18 -22l-227 -156l-99 58q-72 41 -135 40q-100 0 -100 -92q0 -29 8 -47l10 -45q0 -31 -8 -39l-28 -4q-47 0 -56 62zM82 502q0 131 96 246q84 98 273 225l499 338h31v-25l-14 -14l-6 -17q88 -66 145 -165q59 -102 59 -205v-70 q0 -47 6 -65l13 -25q2 -16 3 -27.5t1 -17.5v-86q0 -8 -4 -25l12 -16l8 -16v-62q0 -133 15 -184q20 -86 84 -86v-31q-16 -47 -76 -113q-25 -29 -74 -61q-154 68 -154 205v166l-8 4q-2 0 -4 2q-6 8 -6 26l-6 39v31q2 18 6 23h-20q-37 -16 -72 -56l-76 -88l-115 58 q-123 59 -194 59q-37 0 -64 -37q-6 -14 -37 -35q-23 6 -28 35q0 25 90 115q106 102 158 102l331 -104l7 233q-14 82 -62 187q-57 137 -117 137q-27 0 -102 -86q-119 -131 -188 -262l-89 -166q-59 -115 -59 -223v-185l-29 -90q-29 -90 -77 -90q-23 0 -41 12q-10 18 -15 37 q0 8 41 84q10 16 15.5 31.5t7.5 28.5q0 6 -82 112.5t-82 196.5zM244 936q0 78 86 78q47 0 104 -29q-51 -35 -95 -66.5t-81 -62.5l-4 31q-10 22 -10 49zM485 1620q0 -61 27 -109.5t74 -72.5l65 -66q55 -55 137 -55t138.5 57.5t56.5 138.5q0 41 -15.5 77t-43.5 65l-64 61 q-25 47 -71 76t-103 29q-86 0 -143.5 -57.5t-57.5 -143.5zM506 1620q0 76 52 128t128 52t128 -54t52 -130t-52 -129t-128 -53q-80 0 -130 53t-50 133zM582 1620q0 -45 30.5 -78t75.5 -33t76 32t31 77q0 47 -30 77.5t-77 30.5q-45 0 -75.5 -30.5t-30.5 -75.5zM618 668 q64 116 175 235q29 29 47 48.5t30 27.5q2 -6 11 -23q23 -51 37 -96t22 -88l-6 -201l-305 99q-4 0 -5 -1t-6 -1zM698 1530q4 29 24.5 50.5t51.5 27.5q-4 -29 -25.5 -51.5t-50.5 -26.5z" />
<glyph unicode="&#xc6;" horiz-adv-x="2095" d="M35 963q10 -63 47 -76l84 -82q8 -10 27 -19q-10 -10 -19.5 -19t-17.5 -19q-92 -111 -93 -246q0 -98 87 -209l75 -103q-4 -23 -18 -49q-43 -80 -43 -96q2 -12 20 -47q12 -8 19 -10l90 -90q20 -14 49 -15q61 0 92 101l29 90v188v25q0 12 2 24l18 -16q14 -14 27 -16 q35 25 45 43h2q20 31 51 30q39 0 85 -14t104 -43l125 -62l36 43q4 -8 10.5 -15t12.5 -15v-41q0 -123 109 -193l61 -59q20 -20 46 -37.5t60 -32.5q25 4 70 51l29 -16q61 -35 135 -35h123q117 0 276 135h-2q158 129 158 242v8l-2 45q-2 4 -6 9l-90 90v8q-16 25 -56 24 l-118 -125q-47 -49 -109 -49h-184q-88 0 -156 37l-2 66v63l-14 27l-4 6q0 4 1 9t1 14v2l10 2h6q10 0 25.5 -4.5t35.5 -10.5q49 -16 72 -16h62q72 0 133 102q57 90 57 162v57l-96 97v12h-72q-35 -84 -96 -84q-27 0 -53 6l-76 17h-35q-4 23 -10 45t-15 45q63 51 117 51h119 q31 0 135 -41q98 -39 158 -39q80 0 178 82t98 164v4l-8 33q-2 6 -10 14l-86 84v6q-16 31 -47 31q-16 -2 -33 -19v2q-49 -51 -80 -51q-35 2 -125 43q-104 43 -137 43h-78q-106 0 -250 -90q-35 -20 -63.5 -41.5t-55.5 -42.5l-4 4l17 17v45l-96 96v12h-60l-223 -151l-2 2 l-53 65v-12q-6 0 -11 2l-30 -14h-4l-15 -13l-88 45q-104 51 -141 52h-78q-43 -4 -141 -103q-123 -117 -123 -241zM55 965q0 111 117 225q92 92 129 96h76q31 0 133 -49l100 -49l19 14q4 2 10 6t16 9q12 -2 17 -7l18 -22l-227 -156l-98 58q-72 41 -136 40q-100 0 -100 -92 q0 -29 8 -47l10 -45q0 -31 -8 -39l-28 -4q-47 0 -56 62zM84 502q0 129 86 233q92 106 283 238l499 338h31v-25l-14 -14l-6 -17q57 -39 120 -129q47 43 136 97q143 88 237 88h78q29 0 129 -41q49 -20 83 -31.5t50 -13.5q41 0 84 47q14 16 31 20q18 0 24 -12l9 -37 q0 -78 -93 -153q-94 -78 -170 -78q-53 0 -151 39q-104 41 -141 41h-119q-59 0 -133 -62q31 -72 30 -145v-86q29 14 54 14h90l75 -16q27 -6 58 -6q74 0 108 83h39v-43q0 -66 -55 -153q-59 -96 -121 -96h-61q-18 0 -68 16q-51 16 -72 14l-24 -2v-16q0 -8 -4 -25l12 -16l8 -16 v-62l4 -117l68 -47q88 -61 203 -61h184q70 0 123 55l113 119q18 0 26 -14l2 -39q6 -106 -151 -240q-156 -131 -267 -131h-122q-70 0 -129 33l-39 20q-43 -49 -66 -53q-154 68 -154 205v49q-70 94 -94 176l-6 21l-10 -11l-76 -88l-115 58q-123 59 -194 59q-37 0 -64 -37 q-6 -14 -36 -35q-23 6 -29 35q0 25 90 115q106 102 158 102l252 -80l-3 19v86q0 80 56 215q-18 55 -47 115q-53 98 -99 98q-27 0 -102 -86q-119 -131 -188 -262l-88 -166q-59 -115 -60 -223v-185l-29 -90q-29 -90 -77 -90q-23 0 -41 12q-10 18 -15 37q0 8 41 84 q10 16 15.5 31.5t7.5 28.5q0 6 -82 112.5t-82 196.5zM246 936q0 78 86 78q47 0 104 -29q-51 -35 -94 -67.5t-80 -65.5l-6 35q-10 22 -10 49zM621 668q63 116 174 235q49 57 77 76q20 -41 35 -90q-53 -127 -53 -215v-76l-223 72q-4 0 -5 -1t-5 -1z" />
<glyph unicode="&#xc7;" horiz-adv-x="1298" d="M33 547q0 -55 23.5 -121t72.5 -137h-2q39 -59 83 -107.5t93 -87.5l41 -39q35 -37 73 -63.5t79 -48.5l-19 -64h15l96 -96q-25 -6 -62 -6h-22l-113 4l-16 -156q4 0 7 -1t7 -1l94 -94q39 -8 80 -11t82 -3q111 0 195 43q109 53 108 161q0 70 -39 109l-65 66q14 4 28.5 7 t28.5 7q94 33 169 89t132 134q61 86 62 121v2q-2 12 -4.5 20.5t-8.5 14.5q-4 8 -6 10l-84 82l-4 8t-6 8q-14 20 -43 21q-10 -8 -17.5 -15.5t-15.5 -13.5q-12 -10 -27.5 -22.5t-48.5 -38.5q-96 -78 -163 -78h-86q-72 0 -199 63q-78 37 -137 90q-90 126 -90 259q0 135 96 239 q98 106 231 107q82 0 217 -70l-6 -20q-10 -31 -10 -89q-10 -10 -10 -28l12 -72h12l97 -96h75v86q0 70 62 186q0 4 82 131q74 117 73 135q0 12 -12 25l-84 84q-4 16 -17.5 27.5t-33.5 21.5q-25 -12 -47.5 -26.5t-42.5 -30.5l-115 31q-111 29 -174 28q-176 0 -410 -178 q-59 -45 -107 -96t-87 -111q-92 -141 -92 -268v-131zM53 547v131q0 117 90 256q76 119 189 203q229 174 397 174q57 0 168 -29l125 -33q31 25 86 56q12 -6 21.5 -13.5t9.5 -17.5q0 -12 -72 -127q-84 -133 -86 -141q-59 -115 -59 -185v-71h-50l-10 55q0 6 6 12l4 4 q0 59 11 90l20 58q0 16 -123 82q-139 74 -231 73q-141 0 -242 -110q-100 -109 -100 -250q0 -145 102 -279q88 -117 234 -190q127 -66 207 -66h86q74 0 176 84q51 41 76 63l26 21q14 0 23 -14q6 -4 10 -29q0 -29 -60 -112q-113 -154 -292 -217q-68 -23 -125 -23l-11 -33 q172 -16 172 -147q0 -98 -100 -150q-82 -41 -188 -41q-82 0 -146 13l13 116l94 -4q160 -6 160 76q0 68 -158 68l35 108q-238 53 -396 293q-92 137 -92 246z" />
<glyph unicode="&#xc8;" horiz-adv-x="1271" d="M33 588q0 -180 149 -369q35 -43 71 -78t71 -63l30 -29q84 -86 181 -131q72 -35 135 -35h123q117 0 276 135h-2q158 129 158 242v8l-2 45q-2 4 -6 9l-91 90v8q-16 25 -55 24l-119 -125q-47 -49 -108 -49h-185q-90 0 -190 60q-43 23 -90 63q-2 4 -2 15q0 37 37 62.5 t82 25.5q20 0 69 -17q43 -14 70 -14h61q72 0 133 102q57 90 58 162v57l-96 97v12h-72q-35 -84 -96 -84q-27 0 -54 6l-75 17h-95q-18 0 -33.5 -4.5t-31.5 -10.5q10 16 25.5 32.5t33.5 35.5q88 88 158 88h119q31 0 135 -41q98 -39 158 -39q80 0 178 82t98 164v4l-8 33 q-2 6 -10 14l-86 84v6q-16 31 -48 31q-16 -2 -32 -19v2q-49 -51 -78 -51q-35 4 -127 43q-23 10 -41 16.5t-35 12.5h80l-133 280l-90 89l-8 20h-273l242 -293h8l82 -82h-47q-51 0 -114.5 -21.5t-135.5 -68.5q-113 -70 -164 -129q-33 -41 -64.5 -91t-60.5 -116 q-63 -135 -63 -231v-86zM53 588v86q0 88 62 223q29 63 58.5 112.5t62.5 88.5q23 27 62.5 58.5t98.5 66.5q139 88 238 88h78q29 0 129 -41q49 -20 82.5 -31.5t50.5 -13.5q41 0 84 47q14 16 31 20q18 0 24 -12l8 -37q0 -78 -92 -153q-94 -78 -170 -78q-53 0 -151 39 q-104 41 -142 41h-118q-74 0 -168 -93q-106 -100 -107 -223v-108q0 -53 43 -80q0 76 55 149q55 76 127 76h90l76 -16q27 -6 58 -6q74 0 108 83h39v-43q0 -66 -55 -153q-59 -96 -121 -96h-62q-23 0 -65 14q-49 16 -74 16q-49 0 -91 -29.5t-42 -72.5q0 -37 82 -111 q33 -29 61.5 -50t53.5 -38q100 -61 202 -61h185q70 0 123 55l112 119q18 0 27 -14l2 -39q6 -106 -152 -240q-156 -131 -266 -131h-123q-57 0 -129 33q-127 59 -239 198q-145 186 -146 357zM391 1686h219l119 -252h-129z" />
<glyph unicode="&#xc9;" horiz-adv-x="1273" d="M33 588q0 -180 149 -369q35 -43 71 -78t71 -63l30 -29q84 -86 181 -131q72 -35 135 -35h123q117 0 276 135h-2q158 129 158 242v8l-2 45q-2 4 -6 9l-91 90v8q-16 25 -55 24l-119 -125q-47 -49 -108 -49h-185q-90 0 -190 60q-43 23 -90 63q-2 4 -2 15q0 37 37 62.5 t82 25.5q20 0 69 -17q43 -14 70 -14h61q72 0 133 102q57 90 58 162v57l-96 97v12h-72q-35 -84 -96 -84q-27 0 -54 6l-75 17h-95q-18 0 -33.5 -4.5t-31.5 -10.5q10 16 25.5 32.5t33.5 35.5q88 88 158 88h119q31 0 135 -41q98 -39 158 -39q80 0 178 82t98 164v4l-8 33 q-2 6 -10 14l-86 84v6q-16 31 -48 31q-16 -2 -32 -19v2q-2 -2 -2 -4q-2 0 -2 -2h-2q-43 -45 -72 -45q-35 4 -127 43q-33 12 -58.5 21.5t-43.5 15.5h69l244 307l-98 99l8 10h-289l-154 -320h17l90 -90q-51 0 -114.5 -21.5t-135.5 -68.5q-113 -70 -164 -129q-33 -41 -64.5 -91 t-60.5 -116q-63 -135 -63 -231v-86zM53 588v86q0 88 62 223q29 63 58.5 112.5t62.5 88.5q23 27 62.5 58.5t98.5 66.5q139 88 238 88h78q29 0 129 -41q49 -20 82.5 -31.5t50.5 -13.5q41 0 84 47q14 16 31 20q18 0 24 -12l8 -37q0 -78 -92 -153q-94 -78 -170 -78 q-53 0 -151 39q-104 41 -142 41h-118q-74 0 -168 -93q-106 -100 -107 -223v-108q0 -53 43 -80q0 76 55 149q55 76 127 76h90l76 -16q27 -6 58 -6q74 0 108 83h39v-43q0 -66 -55 -153q-59 -96 -121 -96h-62q-23 0 -65 14q-49 16 -74 16q-49 0 -91 -29.5t-42 -72.5 q0 -37 82 -111q33 -29 61.5 -50t53.5 -38q100 -61 202 -61h185q70 0 123 55l112 119q18 0 27 -14l2 -39q6 -106 -152 -240q-156 -131 -266 -131h-123q-57 0 -129 33q-127 59 -239 198q-145 186 -146 357zM561 1442l133 278h236l-221 -278h-148z" />
<glyph unicode="&#xca;" horiz-adv-x="1271" d="M33 588q0 -180 149 -369q35 -43 71 -78t71 -63l30 -29q84 -86 181 -131q72 -35 135 -35h123q117 0 276 135h-2q158 129 158 242v8l-2 45q-2 4 -6 9l-91 90v8q-16 25 -55 24l-119 -125q-47 -49 -108 -49h-185q-90 0 -190 60q-43 23 -90 63q-2 4 -2 15q0 37 37 62.5 t82 25.5q20 0 69 -17q43 -14 70 -14h61q72 0 133 102q57 90 58 162v57l-96 97v12h-72q-35 -84 -96 -84q-27 0 -54 6l-75 17h-95q-18 0 -33.5 -4.5t-31.5 -10.5q10 16 25.5 32.5t33.5 35.5q88 88 158 88h119q31 0 135 -41q98 -39 158 -39q80 0 178 82t98 164v4l-8 33 q-2 6 -10 14l-86 84v6q-16 31 -48 31q-16 -2 -32 -19v2q-49 -51 -78 -51q-35 4 -127 43q-104 43 -137 43h-43l61 92l8 -10h11l96 -96h221l-225 280l-68 66l-33 43h-192l-223 -293h18l96 -96h103q-37 -10 -77 -29.5t-81 -46.5q-113 -70 -164 -129q-33 -41 -64.5 -91 t-60.5 -116q-63 -135 -63 -231v-86zM53 588v86q0 88 62 223q29 63 58.5 112.5t62.5 88.5q23 27 62.5 58.5t98.5 66.5q139 88 238 88h78q29 0 129 -41q49 -20 82.5 -31.5t50.5 -13.5q41 0 84 47q14 16 31 20q18 0 24 -12l8 -37q0 -78 -92 -153q-94 -78 -170 -78 q-53 0 -151 39q-104 41 -142 41h-118q-74 0 -168 -93q-106 -100 -107 -223v-108q0 -53 43 -80q0 76 55 149q55 76 127 76h90l76 -16q27 -6 58 -6q74 0 108 83h39v-43q0 -66 -55 -153q-59 -96 -121 -96h-62q-23 0 -65 14q-49 16 -74 16q-49 0 -91 -29.5t-42 -72.5 q0 -37 82 -111q33 -29 61.5 -50t53.5 -38q100 -61 202 -61h185q70 0 123 55l112 119q18 0 27 -14l2 -39q6 -106 -152 -240q-156 -131 -266 -131h-123q-57 0 -129 33q-127 59 -239 198q-145 186 -146 357zM367 1434l192 252h174l203 -252h-184l-101 153l-100 -153h-184z" />
<glyph unicode="&#xcb;" horiz-adv-x="1273" d="M33 588q0 -180 149 -369q35 -43 71 -78t71 -63l30 -29q84 -86 181 -131q72 -35 135 -35h123q117 0 276 135h-2q158 129 158 242v8l-2 45q-2 4 -6 9l-91 90v8q-16 25 -55 24l-119 -125q-47 -49 -108 -49h-185q-90 0 -190 60q-43 23 -90 63q-2 4 -2 15q0 37 37 62.5 t82 25.5q20 0 69 -17q43 -14 70 -14h61q72 0 133 102q57 90 58 162v57l-96 97v12h-72q-35 -84 -96 -84q-27 0 -54 6l-75 17h-95q-18 0 -33.5 -4.5t-31.5 -10.5q10 16 25.5 32.5t33.5 35.5q88 88 158 88h119q31 0 135 -41q98 -39 158 -39q80 0 178 82t98 164v4l-8 33 q-2 6 -10 14l-86 84v6q-12 23 -31 29v248l-96 96v12h-252v-270h12l96 -97h197l-6 -6v2q-49 -51 -80 -51q-35 2 -125 43q-104 43 -137 43h-27v228l-96 96v12h-252v-270h12l96 -97h52q-29 -10 -56.5 -25t-56.5 -34q-113 -70 -164 -129q-33 -41 -64.5 -91t-60.5 -116 q-63 -135 -63 -231v-86zM53 588v86q0 88 62 223q29 63 58.5 112.5t62.5 88.5q23 27 62.5 58.5t98.5 66.5q139 88 238 88h78q29 0 129 -41q49 -20 82.5 -31.5t50.5 -13.5q41 0 84 47q14 16 31 20q18 0 24 -12l8 -37q0 -78 -92 -153q-94 -78 -170 -78q-53 0 -151 39 q-104 41 -142 41h-118q-74 0 -168 -93q-106 -100 -107 -223v-108q0 -53 43 -80q0 76 55 149q55 76 127 76h90l76 -16q27 -6 58 -6q74 0 108 83h39v-43q0 -66 -55 -153q-59 -96 -121 -96h-62q-23 0 -65 14q-49 16 -74 16q-49 0 -91 -29.5t-42 -72.5q0 -37 82 -111 q33 -29 61.5 -50t53.5 -38q100 -61 202 -61h185q70 0 123 55l112 119q18 0 27 -14l2 -39q6 -106 -152 -240q-156 -131 -266 -131h-123q-57 0 -129 33q-127 59 -239 198q-145 186 -146 357zM358 1417v230h211v-230h-211zM776 1417v230h211v-230h-211z" />
<glyph unicode="&#xcc;" horiz-adv-x="1204" d="M33 201q0 -2 1 -4t1 -4q4 -10 5 -16.5t13 -18.5l15 -8l90 -89l26 -12q12 0 140 -82q125 -84 194 -84h135q51 0 144 49q248 131 288 340l7 31l2 33v6q0 6 -3.5 14.5t-7.5 18.5l2 -2l-10 28v574q0 51 29 96l67 94q0 33 -14 47l-88 86q-8 33 -49 33l-164 -61 q-84 -31 -129 -31h-176q-39 0 -174 47l-131 45q-29 -6 -111 -100q-10 -10 -19.5 -21.5t-15.5 -19.5q-8 -8 -10 -12q-6 -8 -9 -11.5t-7 -7.5q-6 -6 -12.5 -14t-10.5 -15l-4 -8q0 -39 25 -53q6 -10 18 -12l78 -78q2 -4 10 -8q4 -6 23 -13q16 8 20 13l12 6q2 0 5 2q8 4 14 8 t12 6l250 -80h141l50 -49l10 -8q2 -10 3 -19.5t1 -21.5v-547q0 -70 -51 -114q-41 -41 -82 -41q-49 0 -99 37q-35 49 -34 77q18 37 36 49q-4 29 -12 37l-88 86q-8 35 -47 35q-25 0 -154 -104v2q-47 -35 -84.5 -67t-70.5 -64zM55 195q25 23 58.5 50t76.5 62q131 106 152 107 q27 0 31 -31q-14 -12 -37 -53q0 -39 76 -129q90 -109 174 -109q45 0 96 47q57 51 57 129v547q0 88 -39 109l-77 47q27 33 65 47q76 27 86 49l10 10h15q47 0 61 64l-172 -82q-61 -29 -151 -29h-121l-250 80q-16 0 -39 -16q-2 -2 -6 -4.5t-12 -6.5q-2 -2 -11 -6q-10 2 -14 8 q-16 10 -16 31q4 8 9 15.5t9 11.5q4 6 20.5 24.5t43.5 49.5q80 92 94 94l127 -45q135 -47 180 -47h176q51 0 135 30l164 62q29 0 29 -37l-66 -92q-31 -47 -31 -105v-577l11 -29q10 -20 8 -33l-2 -28l-6 -33q-37 -201 -281 -330q-90 -47 -137 -47h-135q-61 0 -187 82 q-127 84 -145 84l-18 8q-6 6 -11 21zM268 1706l242 -293h8l96 -96h158l-133 280l-90 89l-8 20h-273zM309 1686h219l119 -252h-129z" />
<glyph unicode="&#xcd;" horiz-adv-x="1204" d="M31 201q0 -2 1 -4t1 -4q4 -10 5 -16.5t13 -18.5l15 -8l90 -89l26 -12q12 0 140 -82q125 -84 194 -84h135q51 0 144 49q248 131 288 340l7 31l2 33v6q0 6 -3.5 14.5t-7.5 18.5l2 -2l-10 28v574q0 51 29 96l67 94q0 33 -14 47l-4 2q2 0 2 -2h2l-88 86q-8 33 -49 33 l-164 -61q-84 -31 -129 -31h-176q-39 0 -174 47l-131 45q-29 -6 -111 -100q-10 -10 -19.5 -21.5t-15.5 -19.5q-8 -8 -10 -12q-6 -8 -9 -11.5t-7 -7.5q-6 -6 -12.5 -14t-10.5 -15l-4 -8q0 -39 25 -53q6 -10 18 -12l78 -78q2 -4 10 -8q4 -6 23 -13q16 8 20 13l12 6q2 0 5 2 q8 4 14 8t12 6l250 -80h141l49 -49l11 -8q2 -10 3 -19.5t1 -21.5v-547q0 -70 -51 -114q-41 -41 -82 -41q-49 0 -99 37q-35 49 -34 77q18 37 36 49q-4 29 -12 37l-4 2q2 0 2 -2h2l-88 86q-8 35 -47 35q-25 0 -154 -104v2q-47 -35 -85 -67t-70 -64zM53 195q25 23 58.5 50 t76.5 62q131 106 152 107q27 0 31 -31q-14 -12 -37 -53q0 -39 76 -129q90 -109 174 -109q45 0 96 47q57 51 57 129v547q0 88 -39 109l-77 47q27 33 65 47q76 27 86 49l10 10h15q47 0 61 64l-172 -82q-61 -29 -151 -29h-121l-250 80q-16 0 -39 -16q-2 -2 -6 -4.5t-13 -6.5 q-2 -2 -10 -6q-10 2 -14 8q-16 10 -16 31q4 8 9 15.5t9 11.5q4 6 20.5 24.5t42.5 49.5q80 92 95 94l127 -45q135 -47 180 -47h176q51 0 135 30l164 62q29 0 29 -37l-66 -92q-31 -47 -31 -105v-577l11 -29q10 -20 8 -33l-2 -28l-6 -33q-37 -201 -281 -330q-90 -47 -137 -47 h-135q-61 0 -187 82q-127 84 -145 84l-19 8q-6 6 -10 21zM520 1397h17l96 -97h176l244 308l-99 98l9 10h-289zM553 1417l133 279h236l-222 -279h-147z" />
<glyph unicode="&#xce;" horiz-adv-x="1206" d="M33 201q0 -2 1 -4t1 -4q4 -10 5 -16.5t13 -18.5l15 -8l90 -89l26 -12q12 0 140 -82q125 -84 194 -84h135q51 0 144 49q248 131 288 340l7 31l2 33v6q0 6 -3.5 14.5t-7.5 18.5l2 -2l-10 28v574q0 51 29 96l67 94q0 33 -14 47l-88 86q-4 14 -8 19h8l-225 280l-68 66l-33 43 h-192l-223 -293h18l96 -96h222l69 106l8 -10h11l96 -96h133l-125 -47q-84 -31 -129 -31h-176q-39 0 -174 47l-131 45q-29 -6 -111 -100q-10 -10 -19.5 -21.5t-15.5 -19.5q-8 -8 -10 -12q-6 -8 -9 -11.5t-7 -7.5q-6 -6 -12.5 -14t-10.5 -15l-4 -8q0 -39 25 -53q6 -10 18 -12 l78 -78q2 -4 10 -8q4 -6 23 -13q16 8 20 13l12 6q2 0 5 2l2 2q10 8 24 12l250 -80h141l50 -49l10 -8q2 -10 3 -19.5t1 -21.5v-547q0 -70 -51 -114q-41 -41 -82 -41q-49 0 -99 37q-35 49 -34 77q18 37 36 49q-4 29 -12 37l-88 86q-8 35 -47 35q-25 0 -154 -104v2 q-47 -35 -84.5 -67t-70.5 -64zM55 195q25 23 58.5 50t76.5 62q131 106 152 107q27 0 31 -31q-14 -12 -37 -53q0 -39 76 -129q90 -109 174 -109q45 0 96 47q57 51 57 129v547q0 88 -39 109l-77 47q27 33 65 47q76 27 86 49l10 10h15q47 0 61 64l-172 -82q-61 -29 -151 -29 h-121l-250 80q-16 0 -39 -16q-2 -2 -6 -4.5t-12 -6.5q-2 -2 -11 -6q-10 2 -14 8q-16 10 -16 31q4 8 9 15.5t9 11.5q4 6 20.5 24.5t43.5 49.5q80 92 94 94l127 -45q135 -47 180 -47h176q51 0 135 30l164 62q29 0 29 -37l-66 -92q-31 -47 -31 -105v-577l11 -29q10 -20 8 -33 l-2 -28l-6 -33q-37 -201 -281 -330q-90 -47 -137 -47h-135q-61 0 -187 82q-127 84 -145 84l-18 8q-6 6 -11 21zM369 1434l192 252h174l203 -252h-184l-101 153l-100 -153h-184z" />
<glyph unicode="&#xcf;" horiz-adv-x="1206" d="M33 201q0 -2 1 -4t1 -4q4 -10 5 -16.5t13 -18.5l15 -8l90 -89l26 -12q12 0 140 -82q125 -84 194 -84h135q51 0 144 49q248 131 288 340l7 31l2 33v6q0 6 -3.5 14.5t-7.5 18.5l2 -2l-10 28v574q0 51 29 96l67 94q0 33 -14 47l-4 2q2 0 2 -2h2l-88 86q-6 18 -25 29v232 l-96 96v12h-252v-270h13l96 -97h133l-82 -30q-84 -31 -129 -31h-176q-39 0 -174 47l-131 45q-29 -6 -111 -100q-10 -10 -19.5 -21.5t-15.5 -19.5q-8 -8 -10 -12q-6 -8 -9 -11.5t-7 -7.5q-6 -6 -12.5 -14t-10.5 -15l-4 -8q0 -39 25 -53q6 -10 18 -12l78 -78q2 -4 10 -8 q4 -6 23 -13q16 8 20 13l12 6q2 2 3 2q2 0 4 2q10 8 24 12l250 -80h141l50 -49l10 -8q2 -10 3 -19.5t1 -21.5v-547q0 -70 -51 -114q-41 -41 -82 -41q-49 0 -99 37q-35 49 -34 77q18 37 36 49q-4 29 -12 37l-88 86q-8 35 -47 35q-25 0 -154 -104v2q-47 -35 -84.5 -67 t-70.5 -64zM55 195q25 23 58.5 50t76.5 62q131 106 152 107q27 0 31 -31q-14 -12 -37 -53q0 -39 76 -129q90 -109 174 -109q45 0 96 47q57 51 57 129v547q0 88 -39 109l-77 47q27 33 65 47q76 27 86 49l10 10h15q47 0 61 64l-172 -82q-61 -29 -151 -29h-121l-250 80 q-16 0 -39 -16q-2 -2 -6 -4.5t-12 -6.5q-2 -2 -11 -6q-10 2 -14 8q-16 10 -16 31q4 8 9 15.5t9 11.5q4 6 20.5 24.5t43.5 49.5q80 92 94 94l127 -45q135 -47 180 -47h176q51 0 135 30l164 62q29 0 29 -37l-66 -92q-31 -47 -31 -105v-577l11 -29q10 -20 8 -33l-2 -28l-6 -33 q-37 -201 -281 -330q-90 -47 -137 -47h-135q-61 0 -187 82q-127 84 -145 84l-18 8q-6 6 -11 21zM279 1397h12l96 -97h240v259l-97 96v12h-251v-270zM299 1417v230h211v-230h-211zM717 1417v230h211v-230h-211z" />
<glyph unicode="&#xd0;" horiz-adv-x="1501" d="M35 154l6 -41q16 -20 31 -23l84 -84q14 -14 30 -14q45 0 64 59q25 70 33 84q27 43 86 43q80 0 159 -74l154 -141q86 -80 192 -80h54q111 0 250 109q102 80 155 158q51 74 92 196q41 127 41 207v133q0 188 -139 338l-27 25l2 -1q1 -1 3 -1l-33 30q-10 14 -20.5 26.5 t-22.5 26.5q-141 152 -332 152h-223l-133 -8l-170 -21q-23 0 -31 2l-33 33q-23 43 -41 43q-66 0 -104 -67v2q-37 -55 -37 -123q0 -82 72 -123q2 -2 10 -6l63 -64q14 -14 33 -26q6 -4 13.5 -9.5t15.5 -9.5q-10 -2 -19 -2h-16h-55q-25 0 -45 -20l-4 -21q4 -14 12 -27.5 t28 -19.5l60 -59h-176v-221h12l96 -97h64q-6 -10 -14.5 -17t-18.5 -15l-127 -101v2q-94 -70 -94 -153zM55 156q0 70 76 127l137 108q76 57 76 144v20h-207v180h199q-10 55 -41 82q-2 0 -47 17q-31 8 -35 26l4 14q8 8 25 9h55q63 0 141 37l164 77q14 0 19 -24q-4 -8 -6.5 -10 t-24.5 -27q-23 -23 -23 -53v-148h123v-180h-123q0 -27 15 -41q16 -23 20 -33q0 -8 -57 -28q-66 -29 -92 -64l28 -2l74 -2q70 -2 131 -55l121 -105q63 -57 133 -57q113 0 209 139q90 127 90 246v53q0 156 -98 283q-104 139 -256 139h-221l-72 -12l-98 -12h-162q-66 0 -123 34 q-63 39 -64 105q0 53 35 110q33 57 86 58q10 0 21 -23q14 -55 86 -55l170 20l131 9h223q182 0 317.5 -145.5t135.5 -328.5v-133q0 -76 -41 -202q-41 -121 -90 -193q-51 -76 -152 -154q-137 -106 -242 -106h-53q-100 0 -182 76l-154 141q-84 78 -170 78q-66 0 -98 -49 q-4 -8 -13.5 -29.5t-21.5 -58.5q-16 -49 -49 -49q-14 0 -23 12zM684 438h123v209l-96 96v13h-27v24q0 25 18 43q16 18 21.5 24.5t9.5 14.5h2l2 2q-2 25 -14 37l43 10h221q72 0 139 -39q92 -121 93 -266v-53q0 -55 -22.5 -114.5t-63.5 -119.5q-94 -131 -193 -131 q-61 0 -119 52l-121 104q-4 2 -6 4t-6 4q31 19 31 31q-2 12 -23 37l-4 2q-4 4 -8 16zM700 899h2l35 -35z" />
<glyph unicode="&#xd1;" horiz-adv-x="1396" d="M35 1083l6 -49l14 -2l95 -94l34 -6h4l5 -35l-3 -29l-2 -59h13v-580l-13 -24l-2 -23l2 -30l-2 -9l-4 -14l-22 -23q-6 -10 -17 -24q-4 -10 -10 -20.5t-2 -6.5q10 -43 41 -53l86 -86q14 -14 39 -14l55 18q37 12 39 12h49l133 -30q8 4 14.5 6t10.5 6h2l25 27l-11 10 q-59 61 -59 123v768q170 145 207 145q35 0 76 -20q8 -10 14 -20.5t14 -20.5q41 -70 61.5 -133.5t20.5 -126.5v-404q0 -113 70 -201q35 -45 65 -61l68 -68q49 -49 104 -49q47 0 66 29l18 25q-4 14 -20 30l-78 76q-10 29 -57 63v9q4 12 22 18l51 19q23 18 41.5 42.5t32.5 57.5 q31 74 31 121v184q0 47 -23 94l-18 45l2 -2l-35 125q-59 150 -155 248l-41 41q-123 164 -330 219l-258 -190q-10 16 -19.5 28.5t-19.5 24.5l-64 61q-39 57 -86 84l-196 -159q-84 -66 -84 -93zM55 1085q0 14 76 76l186 150q41 -18 80 -88l56 -150l311 232q283 -76 410 -394 l32 -118l19 -45q20 -47 20 -89v-184q0 -45 -28 -115q-27 -61 -64 -92l-53 -18q-29 -8 -33 -31q0 -61 76 -113q74 -47 78 -63l-15 -20q-16 -23 -53 -23q-61 0 -119 74q-66 84 -65 188v404q0 129 -84 272q-98 166 -226 166q-45 0 -221 -152v-776q0 -70 64 -133l-15 -16 q-2 -4 -16 -9l-129 31h-53q-6 0 -43 -12l-56 -19q-29 0 -36 37q2 6 8 15.5t14 23.5l27 27l4 14l2 17l-2 28l2 21l12 24v604h-12l2 39l2 31l-4 35h12q0 43 -18 84q-23 49 -62 49q-6 0 -61 -18l-21 4zM291 1409h12l96 -96h150q0 86 53 86q25 0 80 -31q90 -51 158 -51 q86 0 137 57.5t51 161.5l-96 96v8l-19 19h-135q-10 -78 -49 -78q-27 0 -76 25q-104 51 -159 51q-94 0 -148.5 -68.5t-54.5 -179.5zM311 1430q0 92 48.5 149t134.5 57q49 0 151 -49q51 -27 84 -26q57 0 68 77h114q0 -98 -48 -151t-126 -53q-61 0 -149 49q-57 33 -88 33 q-68 0 -68 -86h-121z" />
<glyph unicode="&#xd2;" d="M33 612q0 -236 178 -434q43 -49 92 -86l39 -39q170 -170 385 -170q154 0 295 146q53 53 100 121.5t88 152.5q72 141 72 238v114q0 139 -96 279q-49 72 -103 125l-20 20q-86 115 -207 191q-53 33 -94 47h43l-133 280l-90 89l-9 20h-272l242 -293h8l82 -82h-55 q-125 0 -267 -129q-53 -51 -100 -106.5t-86 -120.5q-16 -51 -29.5 -90t-19.5 -60q-27 -80 -31 -96q-12 -55 -12 -117zM53 612q0 55 13 111q4 16 30 96q6 20 18.5 56t28.5 88q41 66 86 122t97 103q135 123 252 123h102q70 0 164 -60q137 -86 227 -223q94 -137 94 -270v-115 q0 -92 -69 -231q-80 -164 -187 -271q-139 -141 -284 -141q-225 0 -400 193q-172 193 -172 419zM221 709q0 -72 78 -199q121 -195 262 -277q84 -47 135 -47h68q106 0 194 131q18 27 70 134v155q-78 219 -180 316l-100 94q-102 96 -207 96h-103q-68 0 -143 -88 q-74 -90 -74 -158v-157zM338 606v158q0 63 68 147h2q72 84 133 84h102q82 0 170 -69l21 -19q96 -90 174 -309v-143l-13 -25q-18 -39 -31.5 -64.5t-21.5 -35.5q-84 -123 -178 -123h-68q-43 0 -127 45h2q-47 27 -94 67q-35 43 -63 97q-76 127 -76 190zM342 1686h219l119 -252 h-129z" />
<glyph unicode="&#xd3;" d="M33 612q0 -236 178 -434q43 -49 92 -86l39 -39q170 -170 385 -170q154 0 295 146q53 53 100 121.5t88 152.5q72 141 72 238v114q0 139 -96 279q-49 72 -103 125l-20 20q-86 115 -207 191q-18 12 -36.5 21t-35.5 18h17l243 307l-98 98l8 10h-288l-154 -319h16l74 -74h-24 q-125 0 -267 -129q-53 -51 -100 -106.5t-86 -120.5q-16 -51 -29.5 -90t-19.5 -60q-27 -80 -31 -96q-12 -55 -12 -117zM53 612q0 55 13 111q4 16 30 96q6 20 18.5 56t28.5 88q41 66 86 122t97 103q135 123 252 123h102q70 0 164 -60q137 -86 227 -223q94 -137 94 -270v-115 q0 -92 -69 -231q-80 -164 -187 -271q-139 -141 -284 -141q-225 0 -400 193q-172 193 -172 419zM221 709q0 -72 78 -199q121 -195 262 -277q84 -47 135 -47h68q106 0 194 131q18 27 70 134v155q-78 219 -180 316l-100 94q-102 96 -207 96h-103q-68 0 -143 -88 q-74 -90 -74 -158v-157zM338 606v158q0 63 68 147h2q72 84 133 84h102q82 0 170 -69l21 -19q96 -90 174 -309v-143l-13 -25q-18 -39 -31.5 -64.5t-21.5 -35.5q-84 -123 -178 -123h-68q-43 0 -127 45h2q-47 27 -94 67q-35 43 -63 97q-76 127 -76 190zM545 1425l133 279h235 l-221 -279h-147z" />
<glyph unicode="&#xd4;" d="M33 612q0 -236 178 -434q43 -49 92 -86l39 -39q170 -170 385 -170q154 0 295 146q53 53 100 121.5t88 152.5q72 141 72 238v114q0 139 -96 279q-49 72 -103 125l-20 20q-86 115 -207 191q-92 61 -176 61h-10l61 92l8 -10h11l96 -96h221l-225 280l-68 66l-33 43h-192 l-223 -293h18l96 -96h49q-43 -16 -87 -44t-91 -71q-53 -51 -100 -106.5t-86 -120.5q-16 -51 -29.5 -90t-19.5 -60q-27 -80 -31 -96q-12 -55 -12 -117zM53 612q0 55 13 111q4 16 30 96q6 20 18.5 56t28.5 88q41 66 86 122t97 103q135 123 252 123h102q70 0 164 -60 q137 -86 227 -223q94 -137 94 -270v-115q0 -92 -69 -231q-80 -164 -187 -271q-139 -141 -284 -141q-225 0 -400 193q-172 193 -172 419zM221 709q0 -72 78 -199q121 -195 262 -277q84 -47 135 -47h68q106 0 194 131q18 27 70 134v155q-78 219 -180 316l-100 94 q-102 96 -207 96h-103q-68 0 -143 -88q-74 -90 -74 -158v-157zM338 606v158q0 63 68 147h2q72 84 133 84h102q82 0 170 -69l21 -19q96 -90 174 -309v-143l-13 -25q-18 -39 -31.5 -64.5t-21.5 -35.5q-84 -123 -178 -123h-68q-43 0 -127 45h2q-47 27 -94 67q-35 43 -63 97 q-76 127 -76 190zM367 1434l192 252h174l203 -252h-184l-101 153l-100 -153h-184z" />
<glyph unicode="&#xd5;" horiz-adv-x="1316" d="M33 612q0 -236 178 -434q43 -49 92 -86l39 -39q170 -170 385 -170q154 0 295 146q53 53 100 121.5t88 152.5q72 141 72 238v114q0 139 -96 279q-49 72 -103 125l-20 20q-86 115 -207 191q-92 61 -176 61h-102h-19q2 68 53 68q25 0 80 -31q90 -51 158 -51q86 0 137 57.5 t51 161.5l-96 96v8l-18 19h-136q-10 -78 -49 -78q-27 0 -75 25q-104 51 -160 51q-94 0 -148.5 -68.5t-54.5 -179.5h12l97 -96h69q-84 -33 -168 -111q-53 -51 -100 -106.5t-86 -120.5q-16 -51 -29.5 -90t-19.5 -60q-27 -80 -31 -96q-12 -55 -12 -117zM53 612q0 55 13 111 q4 16 30 96q6 20 18.5 56t28.5 88q41 66 86 122t97 103q135 123 252 123h102q70 0 164 -60q137 -86 227 -223q94 -137 94 -270v-115q0 -92 -69 -231q-80 -164 -187 -271q-139 -141 -284 -141q-225 0 -400 193q-172 193 -172 419zM221 709q0 -72 78 -199q121 -195 262 -277 q84 -47 135 -47h68q106 0 194 131q18 27 70 134v155q-78 219 -180 316l-100 94q-102 96 -207 96h-103q-68 0 -143 -88q-74 -90 -74 -158v-157zM322 1430q0 92 48 149t134 57q49 0 151 -49q51 -27 84 -26q57 0 68 77h115q0 -98 -48.5 -151t-125.5 -53q-61 0 -150 49 q-57 33 -88 33q-68 0 -68 -86h-120zM338 606v158q0 63 68 147h2q72 84 133 84h102q82 0 170 -69l21 -19q96 -90 174 -309v-143l-13 -25q-18 -39 -31.5 -64.5t-21.5 -35.5q-84 -123 -178 -123h-68q-43 0 -127 45h2q-47 27 -94 67q-35 43 -63 97q-76 127 -76 190z" />
<glyph unicode="&#xd6;" horiz-adv-x="1316" d="M33 612q0 -236 178 -434q43 -49 92 -86l39 -39q170 -170 385 -170q154 0 295 146q53 53 100 121.5t88 152.5q72 141 72 238v114q0 139 -96 279q-49 72 -103 125l-20 20q-86 115 -207 191q-92 61 -176 61h-35v228l-96 96v12h-252v-270h12l97 -97h45q-70 -35 -140 -98 q-53 -51 -100 -106.5t-86 -120.5q-16 -51 -29.5 -90t-19.5 -60q-27 -80 -31 -96q-12 -55 -12 -117zM53 612q0 55 13 111q4 16 30 96q6 20 18.5 56t28.5 88q41 66 86 122t97 103q135 123 252 123h102q70 0 164 -60q137 -86 227 -223q94 -137 94 -270v-115q0 -92 -69 -231 q-80 -164 -187 -271q-139 -141 -284 -141q-225 0 -400 193q-172 193 -172 419zM221 709q0 -72 78 -199q121 -195 262 -277q84 -47 135 -47h68q106 0 194 131q18 27 70 134v155q-78 219 -180 316l-100 94q-102 96 -207 96h-103q-68 0 -143 -88q-74 -90 -74 -158v-157z M317 1417v230h211v-230h-211zM338 606v158q0 63 68 147h2q72 84 133 84h102q82 0 170 -69l21 -19q96 -90 174 -309v-143l-13 -25q-18 -39 -31.5 -64.5t-21.5 -35.5q-84 -123 -178 -123h-68q-43 0 -127 45h2q-47 27 -94 67q-35 43 -63 97q-76 127 -76 190zM715 1397h12 l96 -97h240v259l-96 96v12h-252v-270zM735 1417v230h211v-230h-211z" />
<glyph unicode="&#xd7;" horiz-adv-x="1091" d="M35 410l149 -150l4 4l99 -98l311 309l215 -215l4 4l98 -98l142 143l-99 99l5 4l-215 215l307 309l-99 98l5 4l-148 150l-313 -314l-314 314l-151 -150l313 -313zM63 410l314 315l-314 313l123 121l314 -313l313 313l119 -121l-311 -313l313 -313l-121 -123l-313 313 l-316 -313z" />
<glyph unicode="&#xd8;" d="M33 612q0 -256 198 -448q16 -16 34 -30.5t34 -29.5l20 -22l-49 -172h15l96 -96h178l27 92q59 -23 141 -23q154 0 295 146q53 53 100 121.5t88 152.5q72 141 72 238v114q0 139 -94 277q-10 16 -34 44t-60 68q-2 2 -4 3l-3 2q-4 4 -8 10t-8 10l-22 23q-18 23 -54 59 q-14 14 -25.5 26.5t-23.5 22.5l43 154l-98 96l4 12h-186l-37 -131h-94q-125 0 -267 -129q-53 -51 -100 -106.5t-86 -120.5q-16 -51 -29.5 -90t-19.5 -60q-27 -80 -31 -96q-12 -55 -12 -117zM53 612q0 55 13 111q4 16 30 96q6 20 18.5 56t28.5 88q41 66 86 122t97 103 q135 123 252 123h110l37 131h143l-49 -178l17 -9q35 -16 70.5 -46.5t74.5 -71.5q68 -78 92 -111q92 -135 92 -268v-115q0 -92 -69 -231q-80 -164 -187 -271q-139 -141 -284 -141q-86 0 -152 27l-29 -97h-145l47 164q-14 10 -39.5 31.5t-60.5 52.5q-193 186 -193 434z M221 709q0 -113 164 -320l33 -41l209 744q-47 20 -86 20h-103q-68 0 -143 -88q-74 -90 -74 -158v-157zM338 606v158q0 63 68 147h2q72 84 133 84h34l-161 -585q-76 118 -76 196zM535 250l26 -17q78 -47 135 -47h68q106 0 194 131q18 27 70 134v155q-78 219 -180 316l-98 92z M670 209l188 672q41 -47 78 -118t72 -165v-143l-13 -25q-18 -39 -31.5 -64.5t-21.5 -35.5q-84 -123 -178 -123h-68h-14q-6 0 -12 2z" />
<glyph unicode="&#xd9;" horiz-adv-x="1427" d="M33 1122q0 -45 33 -55l88 -86q6 -12 24 -12v-135l-6 -21l-12 -6v-365q0 -201 198 -350l37 -37q66 -66 158 -118q86 -53 106 -54q29 0 113 64q55 41 96 71.5t68 49.5q45 -57 78 -76l71 -72q37 -37 62 -37l125 74q123 74 123 111v36l-97 97v12q-49 0 -73 8v756 q0 143 67 197q-2 14 -16 28l-84 82q-8 23 -28.5 35t-37.5 12l-75 -20l-66 -21l-67 17l-68 18h-21q-16 0 -24 -8l-133 280l-90 89l-9 20h-272l242 -293h8l96 -96h156q-12 -12 -12 -39l47 -88q18 -31 18 -129v-524l10 4h2l2 -203q-6 -16 -92 -78q-8 -6 -30.5 -19.5 t-63.5 -39.5q-8 4 -22.5 13t-34.5 24v-2q-41 25 -70 51q-31 51 -31 108v246l11 88l18 39l-4 4l2 12v86l-2 54q-2 72 -25.5 127t-66.5 98l-58 55q-10 14 -20 26.5t-21 24.5q-33 33 -96 64q-31 0 -131 -84t-100 -113zM53 1122q0 20 92 99q94 78 115 77q55 -27 86 -57 q86 -86 88 -215l2 -53v-84l-2 -15l-8 -12l-8 -6h12l-10 -22l-10 -89v-247q0 -141 204 -279q63 -43 76 -43q33 20 57.5 36.5t43.5 31.5q96 70 100 90l-2 241l-12 -6v492q0 104 -21 139l-45 82q0 23 18 23h15l67 -19l76 -18l70 22l76 21q12 0 26.5 -7.5t16.5 -21.5 q-68 -53 -68 -203v-739q0 -100 106 -137q35 -10 64 -10v-23q0 -29 -117 -98l-121 -72q-29 0 -90 84q-59 84 -59 129h-19q-16 -6 -210 -152q-84 -61 -105 -61q-14 0 -98 51q-279 166 -279 391v353l13 6l6 24v170q0 53 -26 71.5t-83 18.5q-37 0 -37 37zM342 1686h219l119 -252 h-129z" />
<glyph unicode="&#xda;" horiz-adv-x="1427" d="M33 1122q0 -45 33 -55l88 -86q6 -12 24 -12v-135l-6 -21l-12 -6v-365q0 -201 198 -350l37 -37q66 -66 158 -118q86 -53 106 -54q29 0 113 64q55 41 96 71.5t68 49.5q45 -57 78 -76l71 -72q37 -37 62 -37l125 74q123 74 123 111v36l-97 97v12q-49 0 -73 8v756 q0 143 67 197q-2 14 -16 28l-84 82q-8 23 -28.5 35t-37.5 12l-75 -20l-66 -21l-67 17l-68 18h-21l232 291l-98 98l8 10h-289l-154 -319h17l96 -96h156q-6 -12 -6 -31l47 -88q18 -31 18 -129v-524l10 4h2l2 -203q-6 -16 -92 -78q-8 -6 -30.5 -19.5t-63.5 -39.5q-8 4 -22.5 13 t-34.5 24v-2q-41 25 -70 51q-31 51 -31 108v248l11 86l18 39l-4 4l2 12v86l-2 54q-2 72 -25.5 127t-66.5 98l-58 55q-10 14 -20 26.5t-21 24.5q-33 33 -96 64q-31 0 -131 -84t-100 -113zM53 1122q0 20 92 99q94 78 115 77q55 -27 86 -57q86 -86 88 -215l2 -53v-84l-2 -15 l-8 -12l-8 -6h12l-10 -22l-10 -89v-247q0 -141 204 -279q63 -43 76 -43q33 20 57.5 36.5t43.5 31.5q96 70 100 90l-2 241l-12 -6v492q0 104 -21 139l-45 82q0 23 18 23h15l67 -19l76 -18l70 22l76 21q12 0 26.5 -7.5t16.5 -21.5q-68 -53 -68 -203v-739q0 -100 106 -137 q35 -10 64 -10v-23q0 -29 -117 -98l-121 -72q-29 0 -90 84q-59 84 -59 129h-19q-16 -6 -210 -152q-84 -61 -105 -61q-14 0 -98 51q-279 166 -279 391v353l13 6l6 24v170q0 53 -26 71.5t-83 18.5q-37 0 -37 37zM561 1425l133 279h236l-221 -279h-148z" />
<glyph unicode="&#xdb;" horiz-adv-x="1427" d="M33 1122q0 -45 33 -55l88 -86q6 -12 24 -12v-135l-6 -21l-12 -6v-365q0 -201 198 -350l37 -37q66 -66 158 -118q86 -53 106 -54q29 0 113 64q55 41 96 71.5t68 49.5q45 -57 78 -76l71 -72q37 -37 62 -37l125 74q123 74 123 111v36l-97 97v12q-49 0 -73 8v756 q0 143 67 197q-2 14 -16 28l-6 4l1 -1t3 -1l-82 80q-8 23 -28.5 35t-37.5 12l-75 -20l-66 -21l-67 17l-39 10h188l-225 280l-68 66l-33 43h-192l-223 -293h18l96 -96h222l69 106l8 -10h11l88 -88h-9q-39 0 -38 -47l47 -88q18 -31 18 -129v-524l10 4h2l2 -203q-6 -16 -92 -78 q-8 -6 -30.5 -19.5t-63.5 -39.5q-8 4 -22.5 13t-34.5 24v-2q-41 25 -70 51q-31 51 -31 108v248l11 86l18 39l-4 4l2 12v86l-2 54q-2 72 -25.5 127t-66.5 98l-58 55q-10 14 -20 26.5t-21 24.5q-33 33 -96 64q-31 0 -131 -84t-100 -113zM53 1122q0 20 92 99q94 78 115 77 q55 -27 86 -57q86 -86 88 -215l2 -53v-84l-2 -15l-8 -12l-8 -6h12l-10 -22l-10 -89v-247q0 -141 204 -279q63 -43 76 -43q33 20 57.5 36.5t43.5 31.5q96 70 100 90l-2 241l-12 -6v492q0 104 -21 139l-45 82q0 23 18 23h15l67 -19l76 -18l70 22l76 21q12 0 26.5 -7.5 t16.5 -21.5q-68 -53 -68 -203v-739q0 -100 106 -137q35 -10 64 -10v-23q0 -29 -117 -98l-121 -72q-29 0 -90 84q-59 84 -59 129h-19q-16 -6 -210 -152q-84 -61 -105 -61q-14 0 -98 51q-279 166 -279 391v353l13 6l6 24v170q0 53 -26 71.5t-83 18.5q-37 0 -37 37zM367 1434 l192 252h174l203 -252h-184l-101 153l-100 -153h-184z" />
<glyph unicode="&#xdc;" horiz-adv-x="1429" d="M33 1122q0 -45 33 -55l88 -86q6 -12 24 -12v-135l-6 -21l-12 -6v-365q0 -201 198 -350l37 -37q66 -66 158 -118q86 -53 106 -54q29 0 113 64q55 41 96 71.5t68 49.5q45 -57 78 -76l71 -72q37 -37 62 -37l125 74q123 74 123 111v36l-97 97v12q-49 0 -73 8v756 q0 143 67 197q-2 14 -16 28l-6 4l1 -1t3 -1l-82 80q-8 23 -28.5 35t-37.5 12l-22 -6v234l-96 96v12h-252v-270h12l72 -72h-11q-39 0 -38 -47l47 -88q18 -31 18 -129v-524l10 4h2l2 -203q-6 -16 -92 -78q-8 -6 -30.5 -19.5t-63.5 -39.5q-8 4 -22.5 13t-34.5 24v-2 q-41 25 -70 51q-31 51 -31 108v248l11 86l18 39l-4 4l2 12v86l-2 54q-2 72 -25.5 127t-66.5 98l-58 55q-10 14 -20 26.5t-21 24.5q-33 33 -96 64q-31 0 -131 -84t-100 -113zM53 1122q0 20 92 99q94 78 115 77q55 -27 86 -57q86 -86 88 -215l2 -53v-84l-2 -15l-8 -12l-8 -6 h12l-10 -22l-10 -89v-247q0 -141 204 -279q63 -43 76 -43q33 20 57.5 36.5t43.5 31.5q96 70 100 90l-2 241l-12 -6v492q0 104 -21 139l-45 82q0 23 18 23h15l67 -19l76 -18l70 22l76 21q12 0 26.5 -7.5t16.5 -21.5q-68 -53 -68 -203v-739q0 -100 106 -137q35 -10 64 -10v-23 q0 -29 -117 -98l-121 -72q-29 0 -90 84q-59 84 -59 129h-19q-16 -6 -210 -152q-84 -61 -105 -61q-14 0 -98 51q-279 166 -279 391v353l13 6l6 24v170q0 53 -26 71.5t-83 18.5q-37 0 -37 37zM338 1397h12l96 -97h240v259l-96 96v12h-252v-270zM358 1417v230h211v-230h-211z M776 1417v230h211v-230h-211zM942 1300h76l-33 -10z" />
<glyph unicode="&#xdd;" horiz-adv-x="1466" d="M31 1106q10 -33 47 -49l80 -80q10 -10 24 -16q8 0 25 8h-2q6 4 14 7t19 5l4 -8q16 -47 34.5 -108.5t38.5 -133.5l54 -196l92 -302q59 -117 155 -188l56 -53l24 -25q-20 -37 -18 -35q-66 -76 -139 -75q-35 0 -62 6l-12 24l-86 86l-17 31l-90 -139l-69 -111q0 -35 43 -59 l80 -80q18 -18 69 -35q61 -18 90 -18h111q74 0 178 96q33 33 56.5 57.5t35.5 38.5l49 70q35 59 67 114.5t54 98.5q20 37 37 66.5t31 52.5l186 327q143 250 144 355v51q0 45 -66 110l-49 50q-10 14 -31 38q4 4 6 11l54 -54q41 8 51 18.5t10 47.5q0 33 -29 61l-6 5l1 -1t3 -1 l-73 71q-12 27 -43 49q-25 20 -48.5 28.5t-44.5 8.5h-49q-49 0 -106 -51q-55 -49 -56 -98v-88q0 -35 129 -172q47 -53 48 -99q0 -82 -58 -196q-27 -47 -41 -77t-18 -42q-4 -8 -29.5 -51t-75.5 -123q-4 -6 -9 -14.5t-8 -14.5l-4 -8t5 4l-12 -16q-6 -10 -11.5 -18.5 t-11.5 -16.5q-2 -4 -3 -5t-3 -5l2 2l-16 -23q-6 0 -8 2q-10 29 -19.5 51.5t-13.5 38.5q-31 82 -61.5 179.5t-63.5 214.5q-35 139 -62.5 227t-44.5 129q-35 80 -73 119l-66 63q-57 88 -133 88q-27 -2 -147 -98q-119 -94 -119 -127zM51 1112q0 16 111 107q115 90 137 92 q90 0 156 -154q31 -70 104 -354q33 -119 63.5 -218.5t61.5 -176.5q14 -41 43 -105q57 -104 127 -104l20 30q8 12 21.5 36t36.5 59q47 76 72.5 119.5t31.5 56.5q2 10 60 118q59 115 59 205q0 53 -53 113q-123 131 -123 158v88q0 37 49 84q51 45 92 45h49q39 0 80 -33 q43 -31 43 -66q0 -29 -6 -37t-29 -12l-8 37q-6 27 -28 31q-20 0 -35 -14q-16 -23 -17 -35q0 -8 74 -78q74 -68 74 -113v-51q0 -100 -141 -348l-187 -326q-29 -51 -74 -132t-108 -191l-55 -80q-12 -14 -35 -37l-55 -55q-102 -92 -168 -93h-111q-25 0 -86 19q-74 20 -74 49 l68 107l71 108l33 -61q33 -63 144 -64q84 0 155 84q8 12 49 80q-164 59 -260 236l-94 305l-53 196q-41 143 -74 240l-55 98q-23 20 -55 25q-23 0 -43.5 -11.5t-26.5 -11.5q-23 10 -31 35zM600 1438h16l97 -97h176l244 308l-99 98l8 10h-288zM633 1458l133 279h235l-221 -279 h-147z" />
<glyph unicode="&#xde;" horiz-adv-x="1323" d="M37 -20h12l96 -97h224v299h360q565 0 565 459q0 197 -114 311l-15 13q4 -4 6 -4l-49 49q-94 133 -284 164h2q-84 14 -230 14h-241v190l-97 97v12h-235v-1507zM57 0v1466h195v-299h358q141 0 226 -14q166 -27 254 -135.5t88 -274.5q0 -444 -551 -444h-375v-299h-195z M252 471h379q346 0 346 266q0 88 -45 154.5t-123 89.5q-45 14 -182 14h-375v-524zM369 492v387h360q133 0 178 -15q4 -4 10.5 -5t10.5 -3q28 -53 28 -119q0 -246 -325 -245h-262zM987 819q2 0 2 -2z" />
<glyph unicode="&#xdf;" horiz-adv-x="1126" d="M35 625q0 -35 39 -52l49 -49v-350q-14 -41 -14 -74v-8q-16 -27 -23.5 -44t-7.5 -23q0 -35 28 -43l89 -88q10 -10 32 -11q23 0 90 25h2q31 0 144 -27l29 17q6 6 9 16t3 20q-43 61 -53 103q14 -18 38 -33q4 -4 7.5 -5t7.5 -3l65 -66q6 -6 12.5 -12t14.5 -10q51 -33 129 -33 q127 0 244 143l9 13.5l9 13.5q16 29 27.5 47.5t29.5 50.5h3q4 4 6 10.5t6 10.5q12 18 20 37.5t11 48.5q0 10 1 17t1 18q0 78 -25 140t-72 110l-65 63q-35 51 -86 84q14 8 23.5 13.5t13.5 9.5q35 25 59 122q18 80 18 127q0 70 -79 150l-52 49q-37 57 -129 127h-4 q-14 8 -19 10t-22 10l-2 -2v2q-2 0 -3 1.5t-3 1.5l-10 6q-6 2 -11.5 3t-15.5 3q-27 8 -46 12t-38 4h-51q-111 0 -231 -127q-119 -125 -119 -237v-154q-12 -12 -24.5 -33.5t-28.5 -50.5q-35 -68 -35 -104zM55 625q0 31 33 96q35 70 55 84v162q0 104 113 223q115 121 217 121 h51q20 0 76 -17q10 -2 22.5 -6t26.5 -8q6 -2 16.5 -7t24.5 -13q152 -111 152 -203q0 -47 -19 -123q-20 -92 -53 -115q-14 -10 -49 -30.5t-92 -53.5q174 -18 265 -119.5t79 -263.5q-2 -33 -14.5 -53t-26.5 -45q-10 -23 -29.5 -53.5t-46.5 -71.5q-111 -137 -233 -137 q-72 0 -121 31q-57 37 -58 104q0 35 39 68v4q-2 -4 -4 -8.5t-4 -8.5l8 17q51 -61 82 -62q35 0 64 31q39 45 62.5 75.5t33.5 47.5q33 51 33 106q0 129 -68 197q-59 57 -196 98q-29 10 -29 23q0 27 10 37l111 61q35 18 55 88q20 55 21 109q0 16 -5 28q-10 23 -20 27 q-10 2 -22.5 4t-22.5 4l-49 6q-68 61 -105 76h-4q-61 0 -98 -12q0 -250 -6 -963q0 -66 57 -149q0 -12 -8 -21l-19 -10q-119 27 -149 25q-68 -25 -86 -25q-27 0 -27 25q0 10 33 63q-6 23 12 78v465q-27 0 -42 -18.5t-21 -18.5q-25 8 -25 31zM446 184q2 152 3.5 278t1.5 230 q10 -12 26 -18l84 -82q10 -10 31 -17q35 -12 64.5 -22t54.5 -23q27 -51 26 -133q0 -45 -30 -94q-27 -45 -93 -121q-23 -25 -49 -24q-23 0 -86 75l-14 -28l-2 2v-4q-12 -12 -17 -19zM451 750q2 88 2 157v121q37 10 82 10q33 -14 98 -69l4 -4q-4 -14 -8 -27.5t-8 -30.5 q-10 -33 -21.5 -50t-24.5 -26h3l-115 -63q-4 -4 -6 -9t-6 -9z" />
<glyph unicode="&#xe0;" horiz-adv-x="1087" d="M33 377q0 -176 125 -295q27 -27 51 -45l55 -53q104 -100 207 -101q16 2 127 74l82 53q12 -8 16 -10l80 -78q33 -33 76 -33q2 4 6 6.5t8 4.5q12 8 24.5 15t22.5 13q16 10 26.5 16.5t16.5 10.5l99 68q-4 8 -13 18l-81 82q-10 29 -58 49v289q0 41 9.5 70.5t25.5 54.5l84 114 v45l-96 97v12h-52q-74 -61 -112 -61q-10 2 -29.5 10t-48.5 26h49l-133 281l-90 88l-8 21h-273l242 -293h8l33 -35q-164 -18 -317 -184q-162 -174 -162 -330zM53 377q0 147 156 315q168 180 340 180q25 0 104 -49q78 -47 109 -51q45 0 119 62h24v-25l-82 -113 q-37 -53 -37 -133v-280q0 -82 74 -115q72 -25 76 -37l-90 -61q-10 -8 -31.5 -20.5t-54.5 -33.5q-2 -2 -6 -4t-11 -6q-39 0 -71 43l-74 94l-111 -71q-104 -68 -120 -72q-94 0 -195 96q-119 117 -119 281zM229 477q0 -86 90 -205q72 -90 160 -90q37 0 72 15l41 16v250l26 39 l68 125v-19q-8 8 -31 8q-10 0 -22 -4l-17 -4q-47 0 -122 62q-72 63 -103 63q-74 0 -112 -69q-37 -59 -37 -136l-6 -22zM270 1198h219l119 -252h-129zM346 373l6 26l6 23q0 74 35 131q37 63 101 63q23 0 88 -57l4 -2q10 -10 26 -22l-10 -21l-31 -43v-246l-28 -10 q-31 -12 -64 -12q-45 0 -80 20q-53 80 -53 150z" />
<glyph unicode="&#xe1;" horiz-adv-x="1089" d="M33 377q0 -176 125 -295q27 -27 51 -45l55 -53q104 -100 207 -101q16 2 127 74l82 53q12 -8 16 -10l80 -78q33 -33 76 -33q4 4 9 7.5t7 5.5q10 8 22.5 14t22.5 12q16 10 26.5 16.5t16.5 10.5l99 68q-4 8 -13 18l-81 82q-10 29 -58 49v289q0 41 9.5 70.5t25.5 54.5l84 114 v45l-96 97v12h-52q-74 -61 -112 -61q-10 2 -29.5 10t-48.5 26h33l219 281l-98 98l8 11h-266l-142 -293h17l37 -37q-147 -25 -297 -182q-162 -174 -162 -330zM53 377q0 147 156 315q168 180 340 180q25 0 104 -49q78 -47 109 -51q45 0 119 62h24v-25l-82 -113 q-37 -53 -37 -133v-280q0 -82 74 -115q72 -25 76 -37l-90 -61q-10 -8 -31.5 -20.5t-54.5 -33.5q-2 -2 -6 -4t-11 -6q-39 0 -71 43l-74 94l-111 -71q-104 -68 -120 -72q-94 0 -195 96q-119 117 -119 281zM229 477q0 -86 90 -205q72 -90 160 -90q41 0 72 15l41 16v250l26 39 l68 125v-19q-8 8 -31 8q-10 0 -22 -4l-17 -4q-47 0 -122 62q-72 63 -103 63q-74 0 -112 -69q-37 -59 -37 -136l-6 -22zM346 373l6 26l6 23q0 74 35 131q37 63 101 63q23 0 88 -57l4 -2q10 -10 26 -22l-10 -21l-31 -43v-246l-28 -10q-29 -12 -64 -12q-45 0 -80 20 q-53 80 -53 150zM471 946l121 252h211l-197 -252h-135z" />
<glyph unicode="&#xe2;" horiz-adv-x="1087" d="M33 377q0 -176 125 -295q27 -27 51 -45l55 -53q104 -100 207 -101q16 2 127 74l82 53q12 -8 16 -10l80 -78q33 -33 76 -33q2 4 6 6.5t8 4.5q12 8 24.5 15t22.5 13q16 10 26.5 16.5t16.5 10.5l99 68q-4 8 -13 18l-81 82q-10 29 -58 49v289q0 41 9.5 70.5t25.5 54.5l84 114 v45l-84 84h12l-225 281l-68 66l-32 43h-193l-223 -293h18l97 -97h16q-76 -47 -145 -122q-162 -174 -162 -330zM53 377q0 147 156 315q168 180 340 180q25 0 104 -49q78 -47 109 -51q45 0 119 62h24v-25l-82 -113q-37 -53 -37 -133v-280q0 -82 74 -115q72 -25 76 -37l-90 -61 q-10 -8 -31.5 -20.5t-54.5 -33.5q-2 -2 -6 -4t-11 -6q-39 0 -71 43l-74 94l-111 -71q-104 -68 -120 -72q-94 0 -195 96q-119 117 -119 281zM229 477q0 -86 90 -205q72 -90 160 -90q41 0 72 15l41 16v250l26 39l68 125v-19q-8 8 -31 8q-10 0 -22 -4l-17 -4q-47 0 -122 62 q-72 63 -103 63q-74 0 -112 -69q-37 -59 -37 -136l-6 -22zM250 946l192 252h174l203 -252h-184l-100 154l-101 -154h-184zM346 373l6 26l6 23q0 74 35 131q37 63 101 63q23 0 88 -57l4 -2q10 -10 26 -22l-10 -21l-31 -43v-246l-28 -10q-29 -12 -64 -12q-45 0 -80 20 q-53 80 -53 150zM582 885l32 51l9 -10h10l96 -97h115q-53 -37 -80 -36q-10 2 -33.5 13t-64.5 36q-49 29 -84 43z" />
<glyph unicode="&#xe3;" horiz-adv-x="1091" d="M35 377q0 -176 125 -295q27 -27 51 -45l55 -53q104 -100 207 -101q16 2 127 74l82 53q12 -8 16 -10l80 -78q33 -33 76 -33q2 4 6 6.5t8 4.5q12 8 24.5 15t22.5 13q16 10 26.5 16.5t16.5 10.5l99 68q-4 8 -13 18l-4 2q2 0 2 -2h2l-81 82q-10 29 -58 49v289q0 41 9.5 70.5 t25.5 54.5l84 114v45l-96 97v12h-51q-74 -61 -113 -61q-23 2 -96 49q-10 6 -19.5 11t-17.5 9q68 -33 125 -33q86 0 137 57.5t51 162.5l-96 96v8l-19 18h-135q-10 -78 -49 -77q-27 0 -76 24q-104 51 -159 51q-94 0 -148.5 -68.5t-54.5 -178.5h12l96 -97h19q-35 -23 -69 -52.5 t-68 -65.5q-162 -174 -162 -330zM55 377q0 147 156 315q168 180 340 180q25 0 104 -49q78 -47 109 -51q45 0 119 62h24v-25l-82 -113q-37 -53 -37 -133v-280q0 -82 74 -115q72 -25 76 -37l-90 -61q-10 -8 -31.5 -20.5t-54.5 -33.5q-2 -2 -6 -4t-11 -6q-39 0 -71 43l-74 94 l-111 -71q-104 -68 -120 -72q-94 0 -195 96q-119 117 -119 281zM227 942q0 92 48.5 149.5t134.5 57.5q49 0 151 -49q51 -27 84 -27q57 0 68 78h114q0 -98 -48 -151.5t-126 -53.5q-61 0 -149 49q-57 33 -88 33q-68 0 -68 -86h-121zM231 477q0 -86 91 -205q72 -90 159 -90 q41 0 72 15l41 16v250l27 39l67 125v-19q-8 8 -31 8q-10 0 -22 -4l-17 -4q-47 0 -122 62q-72 63 -103 63q-74 0 -112 -69q-37 -59 -37 -136l-6 -22zM348 375l6 24l6 23q0 74 35 131q37 63 101 63q23 0 88 -57l4 -2q10 -10 26 -22l-10 -21l-31 -43v-246l-28 -10 q-29 -12 -64 -12q-45 0 -80 20q-53 80 -53 152zM473 885q16 26 45 26q25 0 80 -30v-2h2q-31 14 -49 14q-43 0 -78 -8z" />
<glyph unicode="&#xe4;" horiz-adv-x="1089" d="M33 377q0 -176 125 -295q27 -27 51 -45l55 -53q104 -100 207 -101q16 2 127 74l82 53q12 -8 16 -10l80 -78q33 -33 76 -33q2 4 6 6.5t8 4.5q12 8 24.5 15t22.5 13q16 10 26.5 16.5t16.5 10.5l99 68q-4 8 -13 18l-4 2q2 0 2 -2h2l-81 82q-10 29 -58 49v289q0 41 9.5 70.5 t25.5 54.5l84 114v45l-96 97v12h-52q-74 -61 -110 -61q-10 2 -33.5 13t-64.5 36q-61 37 -99 47q6 10 13.5 19.5t13.5 19.5q8 14 15 26.5t16 24.5q18 -41 47 -51l84 -84q14 -14 32 -15q61 0 123 98.5t62 135.5q0 53 -39 92l-72 70l-2 2q-18 35 -54 57.5t-79 22.5 q-57 0 -93 -36t-44 -91l-45 47q-18 35 -55 57.5t-80 22.5q-63 0 -101.5 -44t-38.5 -110q0 -57 21 -125q23 -88 63 -100l60 -62q-113 -43 -219 -159q-162 -174 -162 -330zM53 377q0 147 156 315q168 180 340 180q25 0 104 -49q78 -47 109 -51q45 0 119 62h24v-25l-82 -113 q-37 -53 -37 -133v-280q0 -82 74 -115q72 -25 76 -37l-90 -61q-10 -8 -31.5 -20.5t-54.5 -33.5q-2 -2 -6 -4t-11 -6q-39 0 -71 43l-74 94l-111 -71q-104 -68 -120 -72q-94 0 -195 96q-119 117 -119 281zM229 477q0 -86 90 -205q72 -90 160 -90q37 0 72 15l41 16v250l26 39 l68 125v-19q-8 8 -31 8q-10 0 -22 -4l-17 -4q-47 0 -122 62q-72 63 -103 63q-74 0 -112 -69q-37 -59 -37 -136l-6 -22zM291 1153q0 55 32.5 94t86.5 39q51 0 90 -34.5t39 -86.5q0 -31 -60 -127q-59 -92 -110 -92q-33 0 -58 88q-20 68 -20 119zM346 373l6 26l6 23 q0 74 35 131q37 63 101 63q25 0 92 -59q10 -10 26 -22l-10 -21l-31 -43v-246l-28 -10q-31 -12 -64 -12q-45 0 -80 20q-53 80 -53 150zM608 1153q0 55 33 94t86 39q51 0 90 -34.5t39 -86.5q0 -31 -59 -127q-60 -92 -111 -92q-33 0 -57 88q-20 68 -21 119z" />
<glyph unicode="&#xe5;" horiz-adv-x="1087" d="M33 377q0 -176 125 -295q27 -27 51 -45l55 -53q104 -100 207 -101q16 2 127 74l82 53q12 -8 16 -10l80 -78q33 -33 76 -33q2 4 6 6.5t8 4.5q12 8 24.5 15t22.5 13q16 10 26.5 16.5t16.5 10.5l99 68q-4 8 -13 18l-81 82q-10 29 -58 49v289q0 41 9.5 70.5t25.5 54.5l84 114 v45l-96 97v12h-52q-74 -61 -110 -61q-10 2 -29.5 10t-52.5 28q66 14 111 68.5t45 126.5q0 41 -15.5 77t-44.5 64l-63 62q-25 47 -71 75.5t-103 28.5q-86 0 -143.5 -57t-57.5 -143q0 -61 26.5 -109.5t73.5 -73.5l60 -61q-158 -23 -305 -182q-162 -174 -162 -330zM53 377 q0 147 156 315q168 180 340 180q25 0 104 -49q78 -47 109 -51q45 0 119 62h24v-25l-82 -113q-37 -53 -37 -133v-280q0 -82 74 -115q72 -25 76 -37l-90 -61q-10 -8 -31.5 -20.5t-54.5 -33.5q-2 -2 -6 -4t-11 -6q-39 0 -71 43l-74 94l-111 -71q-104 -68 -120 -72 q-94 0 -195 96q-119 117 -119 281zM229 477q0 -86 90 -205q72 -90 160 -90q41 0 72 15l41 16v250l26 39l68 125v-19q-8 8 -31 8q-10 0 -22 -4l-17 -4q-47 0 -122 62q-72 63 -103 63q-74 0 -112 -69q-37 -59 -37 -136l-6 -22zM346 373l6 26l6 23q0 74 35 131q37 63 101 63 q25 0 92 -59q10 -10 26 -22l-10 -21l-31 -43v-246l-28 -10q-29 -12 -64 -12q-45 0 -80 20q-53 80 -53 150zM360 1133q0 76 52.5 128t128.5 52t128 -54.5t52 -130.5t-52.5 -129t-127.5 -53q-80 0 -130.5 53.5t-50.5 133.5zM436 1133q0 -45 31 -78t76 -33t75.5 31.5t30.5 76.5 q0 47 -29.5 78t-76.5 31q-45 0 -76 -30.5t-31 -75.5zM553 1042q4 29 24.5 50.5t51.5 27.5q-4 -29 -25.5 -51t-50.5 -27z" />
<glyph unicode="&#xe6;" horiz-adv-x="1497" d="M35 377q0 -176 125 -295q27 -27 51 -45l55 -53q104 -100 207 -101q16 2 127 74l82 53q12 -8 16 -10l80 -78q33 -33 74 -33l63 39q63 -45 117 -45h88q100 0 211 111q113 113 113 213l-6 37l-2 2q0 2 -2 4l-4 2q2 0 2 -2h2l-93 90v8q-16 23 -49 23l-106 -107 q-29 -20 -62.5 -31.5t-68.5 -11.5q-59 0 -111 25q14 8 37 21.5t53 31.5l127 74l195 119q106 63 106 96v2q0 6 -12 18l-84 84q-4 29 -137 105h4q-162 96 -207 96h-65q-96 0 -205 -98q-25 10 -88 47v-2q-78 53 -117 53q-180 0 -354 -186q-162 -174 -162 -330zM55 377 q0 147 156 315q168 180 340 180q31 0 104 -49q39 -23 64.5 -36t42.5 -15q100 100 199 100h65q35 0 174 -81q144 -81 146 -101q0 -23 -101 -84l-194 -119l-127 -73q-119 -70 -119 -76q20 -27 36.5 -43t26.5 -25q82 -70 187 -69q78 0 143 47l102 102q14 0 21 -10l6 -33 q0 -92 -108 -201q-106 -106 -201 -106h-88q-49 0 -115 47l-70 -41q-39 0 -71 43l-74 94l-111 -71q-104 -68 -120 -72q-94 0 -195 96q-119 117 -119 281zM231 477q0 -86 91 -205q72 -90 159 -90q41 0 72 15l41 16v250l27 39l59 110l-23 4q-10 0 -22 -4l-17 -4q-47 0 -122 62 q-72 63 -103 63q-74 0 -112 -69q-37 -59 -37 -136l-6 -22zM348 373l6 26l6 23q0 74 35 131q37 63 101 63q25 0 92 -59q10 -10 26 -22l-10 -21l-31 -43v-246l-28 -10q-29 -12 -64 -12q-45 0 -80 20q-53 80 -53 150zM680 612l8 -4v19zM788 416q4 4 32 21.5t75 45.5l211 125 q-59 29 -145 135q-27 33 -68 33h-10l-58 -80q-37 -53 -37 -133v-147zM911 518q6 35 29 68l53 73h2q8 0 13 -2q16 -14 29.5 -25t27.5 -22z" />
<glyph unicode="&#xe7;" horiz-adv-x="899" d="M35 356q0 -115 90 -227q39 -49 88 -82l49 -49q8 -8 16.5 -15.5t16.5 -15.5l-25 -84h15l96 -96q-25 -6 -62 -6h-22l-113 4l-16 -156q4 0 7 -1t7 -1l94 -94q39 -8 80 -11t82 -3q111 0 195 43q109 53 108 162q0 70 -39 108l-69 70q57 20 121 67q111 82 110 170v94l-96 97v12 h-66l-88 -74q-31 -25 -71 -24h-80q-72 0 -154 69q-39 60 -39 117v66q4 31 33 65h-2q43 53 96 53q27 0 86 -24q115 -51 181 -51q70 0 135 71.5t65 102.5q0 18 -10 28l-88 86q-6 35 -53 35q-25 -4 -49 -22h-2t-13 -4h-43l-63 26q-74 31 -123 31q-133 0 -258 -131 q-61 -66 -94 -130.5t-33 -129.5v-146zM55 356v146q0 121 121 246q119 125 244 124q41 0 115 -28l69 -29h51q14 2 21 8q20 14 39 19q33 0 33 -27q0 -25 -61.5 -92.5t-125.5 -67.5q-61 0 -174 50q-59 27 -92 26q-59 0 -107 -59q-33 -41 -34 -72v-68q0 -88 108 -200 q113 -109 201 -109h80q47 0 84 31l82 68h39v-80q0 -82 -105 -158q-90 -70 -180 -82l-10 -29q172 -16 172 -147q0 -98 -101 -150q-82 -41 -188 -41q-82 0 -146 13l13 116l94 -4q160 -6 160 76q0 68 -158 68l35 108q-106 27 -195 131q-84 102 -84 213z" />
<glyph unicode="&#xe8;" horiz-adv-x="921" d="M35 350q0 -100 108 -237q51 -63 97 -93l51 -51q86 -86 168 -86h88q100 0 211 111q113 113 112 213l-6 37l-2 2q0 2 -2 4l-4 2q2 0 2 -2h2l-92 90v8q-16 23 -49 23l-109 -109q-59 -41 -129 -41q-59 0 -110 25q14 8 36.5 21.5t53.5 31.5l127 74l194 119q106 63 107 96v2 q0 6 -12 18l-84 84q-4 29 -138 105h4q-16 10 -29.5 17t-27.5 15h4l-133 281l-90 88l-8 21h-273l242 -293h8l33 -33q-119 -4 -233 -129q-59 -66 -88 -127.5t-29 -116.5v-170zM55 350v170q0 109 111 230q113 123 221 122h66q35 0 174 -81q143 -81 145 -101q0 -23 -100 -84 l-195 -119l-127 -73q-119 -70 -119 -76q20 -27 37 -43t27 -25q82 -70 186 -69q78 0 144 47l102 102q14 0 21 -10l6 -33q0 -92 -109 -201q-106 -106 -201 -106h-88q-98 0 -198 125q-102 127 -103 225zM143 1198h219l119 -252h-129zM168 496q4 -2 13 -31t32 -51q4 6 109 69 l210 125q-59 29 -145 135q-27 33 -68 33q-51 0 -90 -45l-61 -113v-122zM285 485v29l57 104q35 41 80 41q8 0 12 -2q16 -14 29.5 -25t28.5 -22l-183 -108q-6 -4 -12 -8.5t-12 -8.5z" />
<glyph unicode="&#xe9;" horiz-adv-x="921" d="M33 350q0 -100 108 -237q51 -63 97 -93l51 -51q86 -86 168 -86h88q100 0 211 111q113 113 112 213l-6 37l-2 2q0 2 -2 4l-4 2q2 0 2 -2h2l-92 90v8q-16 23 -49 23l-109 -109q-59 -41 -129 -41q-59 0 -110 25q14 8 36.5 21.5t53.5 31.5l127 74l194 119q106 63 107 96v2 q0 6 -13 18l-83 84q-4 29 -138 105h4q-16 10 -29.5 17t-27.5 15h12l219 281l-98 98l8 11h-266l-141 -293h16l33 -33q-119 -4 -233 -129q-59 -66 -88 -127.5t-29 -116.5v-170zM53 350v170q0 109 111 230q113 123 221 122h66q35 0 174 -81q143 -81 145 -101q0 -23 -100 -84 l-195 -119l-127 -73q-119 -70 -119 -76q20 -27 37 -43t27 -25q82 -70 186 -69q78 0 144 47l102 102q14 0 20 -10l7 -33q0 -92 -109 -201q-106 -106 -201 -106h-88q-98 0 -198 125q-102 127 -103 225zM166 496q4 -2 13 -31t32 -51q4 6 108 69l211 125q-59 29 -145 135 q-27 33 -68 33q-51 0 -90 -45l-61 -113v-122zM283 485v29l57 104q35 41 80 41q8 0 12 -2q16 -14 29.5 -25t27.5 -22l-182 -108q-6 -4 -12 -8.5t-12 -8.5zM367 946l120 252h211l-196 -252h-135z" />
<glyph unicode="&#xea;" horiz-adv-x="921" d="M35 350q0 -100 108 -237q51 -63 97 -93l51 -51q86 -86 168 -86h88q100 0 211 111q113 113 112 213l-6 37l-2 2q0 2 -2 4l-92 90v8q-16 23 -49 23l-107 -107q-29 -20 -62.5 -31.5t-68.5 -11.5q-59 0 -110 25q14 8 36.5 21.5t53.5 31.5l127 74l194 119q106 63 107 96v2 q0 6 -12 18l-84 84q-4 29 -138 105h4q-121 70 -176 88l33 51l8 -10h11l96 -97h221l-225 281l-68 66l-33 43h-192l-223 -293h18l94 -95q-18 -14 -35.5 -30.5t-35.5 -36.5q-59 -66 -88 -127.5t-29 -116.5v-170zM55 350v170q0 109 111 230q113 123 221 122h66q35 0 174 -81 q143 -81 145 -101q0 -23 -100 -84l-195 -119l-127 -73q-119 -70 -119 -76q20 -27 37 -43t27 -25q82 -70 186 -69q78 0 144 47l102 102q14 0 21 -10l6 -33q0 -92 -109 -201q-106 -106 -201 -106h-88q-98 0 -198 125q-102 127 -103 225zM152 946l192 252h174l203 -252h-184 l-101 154l-100 -154h-184zM168 496q4 -2 13 -31t32 -51q4 6 109 69l210 125q-59 29 -145 135q-27 33 -68 33q-51 0 -90 -45l-61 -113v-122zM285 485v29l57 104q35 41 80 41q8 0 12 -2q16 -14 29.5 -25t28.5 -22l-183 -108q-6 -4 -12 -8.5t-12 -8.5z" />
<glyph unicode="&#xeb;" horiz-adv-x="923" d="M35 350q0 -100 108 -237q51 -63 97 -93l51 -51q86 -86 168 -86h88q100 0 211 111q113 113 112 213l-6 37l-2 2q0 2 -2 4l-92 90v8q-16 23 -49 23l-107 -107q-29 -20 -62.5 -31.5t-68.5 -11.5q-59 0 -110 25q14 8 36.5 21.5t53.5 31.5l127 74l194 119q106 63 107 96v2 q0 6 -12 18l-84 84q-4 29 -138 105h4q-162 96 -206 96h-7q10 10 25 35q8 14 15.5 26.5t15.5 24.5q18 -41 47 -51l84 -84q14 -14 33 -15q61 0 122.5 98.5t61.5 135.5q0 53 -39 92l-72 70l-2 2q-18 35 -54 57.5t-79 22.5q-57 0 -93 -36t-44 -91l-45 47q-18 35 -55 57.5 t-80 22.5q-63 0 -101.5 -44t-38.5 -110q0 -57 21 -125q23 -88 63 -100l58 -58q-72 -33 -137 -106q-59 -66 -88 -127.5t-29 -116.5v-170zM55 350v170q0 109 111 230q113 123 221 122h66q35 0 174 -81q143 -81 145 -101q0 -23 -100 -84l-195 -119l-127 -73q-119 -70 -119 -76 q20 -27 37 -43t27 -25q82 -70 186 -69q78 0 144 47l102 102q14 0 21 -10l6 -33q0 -92 -109 -201q-106 -106 -201 -106h-88q-98 0 -198 125q-102 127 -103 225zM168 496q4 -2 13 -31t32 -51q4 6 109 69l210 125q-59 29 -145 135q-27 33 -68 33q-51 0 -90 -45l-61 -113v-122z M168 1153q0 55 32.5 94t86.5 39q51 0 90 -34.5t39 -86.5q0 -31 -60 -127q-59 -92 -110 -92q-33 0 -58 88q-20 68 -20 119zM285 485v29l57 104q35 41 80 41q8 0 12 -2q16 -14 29.5 -25t28.5 -22l-183 -108q-6 -4 -12 -8.5t-12 -8.5zM485 1153q0 55 33 94t86 39q51 0 90 -34.5 t39 -86.5q0 -31 -59 -127q-60 -92 -111 -92q-33 0 -57 88q-20 68 -21 119z" />
<glyph unicode="&#xec;" horiz-adv-x="823" d="M31 1219l239 -293h9l96 -97h4q-41 -23 -74 -45t-55 -45q39 -45 59 -53l72 -72q0 -2 4 -6v-438q0 -33 -16 -70l-35 -69v-51h12l96 -97h349v37l-43 55h2q-18 31 -19 66v569l-37 84q-18 43 -41 66l-69 69q-39 63 -84 64l-101 217l-90 88l-8 21h-270zM72 1198h217l119 -252 h-129zM276 737q31 31 119 78l109 57q43 0 76 -81l34 -80v-568q0 -41 21 -73l39 -50v-20h-320v27l33 65q18 37 19 78v467q0 68 -84 68q-18 0 -46 32z" />
</font>
</defs>
</svg>
